<svg width="190" height="190" viewBox="0 0 190 190" fill="none" xmlns="http://www.w3.org/2000/svg">
<rect width="190" height="190" rx="95" fill="#D9D9D9"/>
<path fill-rule="evenodd" clip-rule="evenodd" d="M99.0121 73.6673H103.136C106.229 73.6673 115.164 80.4259 115.164 86.7006V104.27C115.164 110.858 106.229 116.819 103.136 116.819H99.0121V123.407H103.136C106.893 123.407 111.131 120.771 113.439 119.101C114.132 118.599 115.164 119.091 115.164 119.947V134.928C115.164 135.356 114.893 135.734 114.479 135.843C113.437 136.12 111.29 136.584 108.634 136.584H99.0121L99.0019 141.998C99.0008 142.551 99.4489 143 100.002 143H108.966C127.523 143 142.999 127.8 142.999 111.799V77.6023C142.999 63.4843 126.159 48.1113 108.978 48.1113H100.012C99.4599 48.1113 99.0121 48.559 99.0121 49.1113V54.386H108.978C110.753 54.386 113.275 55.0688 114.476 55.4271C114.889 55.5503 115.164 55.9317 115.164 56.3626V71.0941C115.164 71.9387 114.163 72.4291 113.472 71.9425C111.11 70.2775 106.71 67.5628 103.136 67.5628H99.0121V73.6673ZM122.037 133.133V123.407H132.69C134.408 123.407 122.037 134.702 122.037 133.133ZM123.037 117.133C122.484 117.133 122.037 116.685 122.037 116.133V99.6224C122.037 99.0701 122.484 98.6224 123.037 98.6224H135.47C136.022 98.6224 136.47 99.0694 136.47 99.6217C136.47 101.884 136.47 107.489 136.47 111.172C136.47 114.633 135.726 116.227 135.333 116.829C135.196 117.038 134.957 117.133 134.707 117.133H123.037ZM135.321 74.8118C135.19 74.4127 134.816 74.1512 134.396 74.1512H123.037C122.484 74.1512 122.037 74.5989 122.037 75.1512V91.3478C122.037 91.9 122.484 92.3478 123.037 92.3478H135.47C136.022 92.3478 136.47 91.9043 136.47 91.352C136.47 88.8645 136.47 82.4346 136.47 80.4259C136.47 78.561 135.711 76.0032 135.321 74.8118ZM122.037 67.5628V58.1508C122.037 56.2684 134.408 67.5628 132.346 67.5628H122.037Z" fill="url(#paint0_linear_234_10421)"/>
<path d="M99.0121 136.584H108.634C111.29 136.584 113.437 136.12 114.479 135.843C114.893 135.734 115.164 135.356 115.164 134.928V119.947C115.164 119.091 114.132 118.599 113.439 119.101C111.131 120.771 106.893 123.407 103.136 123.407H99.0121V136.584Z" fill="url(#paint1_linear_234_10421)"/>
<path d="M122.037 123.407V133.133C122.037 134.702 134.408 123.407 132.69 123.407H122.037Z" fill="url(#paint2_linear_234_10421)"/>
<path d="M123.037 98.6224C122.484 98.6224 122.037 99.0701 122.037 99.6224V116.133C122.037 116.685 122.484 117.133 123.037 117.133H134.707C134.957 117.133 135.196 117.038 135.333 116.829C135.726 116.227 136.47 114.633 136.47 111.172C136.47 107.489 136.47 101.884 136.47 99.6217C136.47 99.0694 136.022 98.6224 135.47 98.6224H123.037Z" fill="url(#paint3_linear_234_10421)"/>
<path d="M122.037 75.1512C122.037 74.5989 122.484 74.1512 123.037 74.1512H134.396C134.816 74.1512 135.19 74.4127 135.321 74.8118C135.711 76.0032 136.47 78.561 136.47 80.4259C136.47 82.4346 136.47 88.8645 136.47 91.352C136.47 91.9043 136.022 92.3478 135.47 92.3478H123.037C122.484 92.3478 122.037 91.9 122.037 91.3478V75.1512Z" fill="url(#paint4_linear_234_10421)"/>
<path d="M122.037 58.1508V67.5628H132.346C134.408 67.5628 122.037 56.2684 122.037 58.1508Z" fill="url(#paint5_linear_234_10421)"/>
<path d="M99.0121 67.5628H103.136C106.71 67.5628 111.11 70.2775 113.472 71.9425C114.163 72.4291 115.164 71.9387 115.164 71.0941V56.3626C115.164 55.9317 114.889 55.5503 114.476 55.4271C113.275 55.0688 110.753 54.386 108.978 54.386H99.0121V67.5628Z" fill="url(#paint6_linear_234_10421)"/>
<path d="M99.0121 73.6673C99.0121 73.6673 100.043 73.6673 103.136 73.6673M99.0121 73.6673V67.5628M99.0121 73.6673H103.136M103.136 73.6673C106.229 73.6673 115.164 80.4259 115.164 86.7006M115.164 86.7006C115.164 92.9752 115.164 97.6812 115.164 104.27M115.164 86.7006V104.27M115.164 104.27C115.164 110.858 106.229 116.819 103.136 116.819M103.136 116.819C100.043 116.819 99.0121 116.819 99.0121 116.819M103.136 116.819H99.0121M99.0121 116.819V123.407M142.999 111.799C142.999 127.8 127.523 143 108.966 143H100.002C99.4489 143 99.0008 142.551 99.0019 141.998L99.0121 136.584M142.999 111.799C142.999 95.7988 142.999 91.7203 142.999 77.6023M142.999 111.799V77.6023M142.999 77.6023C142.999 63.4843 126.159 48.1113 108.978 48.1113H100.012C99.4599 48.1113 99.0121 48.559 99.0121 49.1113V54.386M99.0121 136.584C99.0121 136.584 104.855 136.584 108.634 136.584M99.0121 136.584V123.407M99.0121 136.584H108.634M108.634 136.584C111.29 136.584 113.437 136.12 114.479 135.843C114.893 135.734 115.164 135.356 115.164 134.928V119.947C115.164 119.091 114.132 118.599 113.439 119.101C111.131 120.771 106.893 123.407 103.136 123.407M103.136 123.407C97.6374 123.407 99.0121 123.407 99.0121 123.407M103.136 123.407H99.0121M122.037 123.407C122.037 123.407 122.037 131.564 122.037 133.133M122.037 123.407C122.037 123.407 130.971 123.407 132.69 123.407M122.037 123.407V133.133M122.037 123.407H132.69M122.037 133.133C122.037 134.702 134.408 123.407 132.69 123.407M122.037 58.1508C122.037 60.0332 122.037 67.5628 122.037 67.5628M122.037 58.1508C122.037 56.2684 134.408 67.5628 132.346 67.5628M122.037 58.1508V67.5628M122.037 67.5628C122.037 67.5628 130.284 67.5628 132.346 67.5628M122.037 67.5628H132.346M99.0121 67.5628C99.0121 67.5628 97.981 67.5628 103.136 67.5628M99.0121 67.5628V54.386M99.0121 67.5628H103.136M103.136 67.5628C106.71 67.5628 111.11 70.2775 113.472 71.9425C114.163 72.4291 115.164 71.9387 115.164 71.0941V56.3626C115.164 55.9317 114.889 55.5503 114.476 55.4271C113.275 55.0688 110.753 54.386 108.978 54.386M108.978 54.386C106.572 54.386 99.0121 54.386 99.0121 54.386M108.978 54.386H99.0121M136.47 111.172C136.47 114.633 135.726 116.227 135.333 116.829C135.196 117.038 134.957 117.133 134.707 117.133H123.037C122.484 117.133 122.037 116.685 122.037 116.133V99.6224C122.037 99.0701 122.484 98.6224 123.037 98.6224H135.47C136.022 98.6224 136.47 99.0694 136.47 99.6217C136.47 101.884 136.47 107.489 136.47 111.172ZM136.47 80.4259C136.47 78.561 135.711 76.0032 135.321 74.8118C135.19 74.4127 134.816 74.1512 134.396 74.1512H123.037C122.484 74.1512 122.037 74.5989 122.037 75.1512V91.3478C122.037 91.9 122.484 92.3478 123.037 92.3478H135.47C136.022 92.3478 136.47 91.9043 136.47 91.352C136.47 88.8645 136.47 82.4346 136.47 80.4259Z" stroke="black"/>
<path fill-rule="evenodd" clip-rule="evenodd" d="M59.6868 143C63.9216 143 72.6741 143 82.5 143H98.8628V117.788C98.8628 117.236 98.4151 116.788 97.8628 116.788H77.0156C76.4634 116.788 76.0156 116.34 76.0156 115.788V74.6641C76.0156 74.1118 76.4634 73.6641 77.0156 73.6641H97.8628C98.4151 73.6641 98.8628 73.2163 98.8628 72.6641V49.0023C98.8628 48.4494 98.4248 48.0014 97.8718 48.0022C92.017 48.0117 62.1004 48.0568 58.9995 48.0006C55.5603 47.9383 47.9999 52.644 48 59.8598C48.0001 65.9209 48 111.161 48 127.345L48 132.96C48 136.097 53.1574 143 59.6868 143ZM91.9871 124.234C91.9871 123.682 91.5394 123.234 90.9871 123.234H77.0156C76.4634 123.234 76.0156 123.682 76.0156 124.234V135.411C76.0156 135.963 76.4634 136.411 77.0156 136.411H90.9871C91.5394 136.411 91.9871 135.963 91.9871 135.411V124.234ZM67.9626 123.234C68.5149 123.234 68.9626 123.682 68.9626 124.234V136.411H60.0277C57.6222 136.411 54.873 133.901 54.873 132.333V123.234H67.9626ZM67.9626 98.4494C68.5149 98.4494 68.9626 98.8971 68.9626 99.4494V115.788C68.9626 116.34 68.5149 116.788 67.9626 116.788H55.873C55.3207 116.788 54.873 116.34 54.873 115.788V99.4494C54.873 98.8971 55.3207 98.4494 55.873 98.4494H67.9626ZM91.9871 55.2129C91.9871 54.6606 91.5394 54.2129 90.9871 54.2129H77.0156C76.4634 54.2129 76.0156 54.6606 76.0156 55.2129V66.3897C76.0156 66.942 76.4634 67.3897 77.0156 67.3897H90.9871C91.5394 67.3897 91.9871 66.942 91.9871 66.3897V55.2129ZM67.9626 73.6641C68.5149 73.6641 68.9626 74.1118 68.9626 74.6641V91.0029C68.9626 91.5552 68.5149 92.0029 67.9626 92.0029H55.873C55.3207 92.0029 54.873 91.5552 54.873 91.0029V74.6641C54.873 74.1118 55.3207 73.6641 55.873 73.6641H67.9626ZM68.9626 66.7587V54.8368C68.9626 54.4903 68.6578 54.2094 68.2782 54.2094H60.0277C57.6222 54.2094 54.873 56.7192 54.873 58.2879V66.7623C54.873 67.1088 55.1807 67.3862 55.5603 67.3862H68.2753C68.6549 67.3862 68.9626 67.1052 68.9626 66.7587Z" fill="url(#paint7_linear_234_10421)"/>
<path d="M76.0156 55.2129C76.0156 54.6606 76.4634 54.2129 77.0156 54.2129H90.9871C91.5394 54.2129 91.9871 54.6606 91.9871 55.2129V66.3897C91.9871 66.942 91.5394 67.3897 90.9871 67.3897H77.0156C76.4634 67.3897 76.0156 66.942 76.0156 66.3897V55.2129Z" fill="url(#paint8_linear_234_10421)"/>
<path d="M67.9626 92.0029C68.5149 92.0029 68.9626 91.5552 68.9626 91.0029V74.6641C68.9626 74.1118 68.5149 73.6641 67.9626 73.6641H55.873C55.3207 73.6641 54.873 74.1118 54.873 74.6641V91.0029C54.873 91.5552 55.3207 92.0029 55.873 92.0029H67.9626Z" fill="url(#paint9_linear_234_10421)"/>
<path d="M67.9626 116.788C68.5149 116.788 68.9626 116.34 68.9626 115.788V99.4494C68.9626 98.8971 68.5149 98.4494 67.9626 98.4494H55.873C55.3207 98.4494 54.873 98.8971 54.873 99.4494V115.788C54.873 116.34 55.3207 116.788 55.873 116.788H67.9626Z" fill="url(#paint10_linear_234_10421)"/>
<path d="M68.9626 54.8368V66.7587C68.9626 67.1052 68.6549 67.3862 68.2753 67.3862H55.5603C55.1807 67.3862 54.873 67.1088 54.873 66.7623V58.2879C54.873 56.7192 57.6222 54.2094 60.0277 54.2094H68.2782C68.6578 54.2094 68.9626 54.4903 68.9626 54.8368Z" fill="url(#paint11_linear_234_10421)"/>
<path d="M68.9626 136.411V124.234C68.9626 123.682 68.5149 123.234 67.9626 123.234H54.873V132.333C54.873 133.901 57.6222 136.411 60.0277 136.411H68.9626Z" fill="url(#paint12_linear_234_10421)"/>
<path d="M76.0156 124.234C76.0156 123.682 76.4634 123.234 77.0156 123.234H90.9871C91.5394 123.234 91.9871 123.682 91.9871 124.234V135.411C91.9871 135.963 91.5394 136.411 90.9871 136.411H77.0156C76.4634 136.411 76.0156 135.963 76.0156 135.411V124.234Z" fill="url(#paint13_linear_234_10421)"/>
<path d="M98.8628 143V117.788C98.8628 117.236 98.4151 116.788 97.8628 116.788H77.0156C76.4634 116.788 76.0156 116.34 76.0156 115.788V74.6641C76.0156 74.1118 76.4634 73.6641 77.0156 73.6641H97.8628C98.4151 73.6641 98.8628 73.2163 98.8628 72.6641V49.0023C98.8628 48.4494 98.4248 48.0014 97.8718 48.0022C92.017 48.0117 62.1004 48.0568 58.9995 48.0006C55.5603 47.9383 47.9999 52.644 48 59.8598C48.0001 65.9209 48 111.161 48 127.345M98.8628 143H82.5M98.8628 143C93.4864 143 87.824 143 82.5 143M48 132.96C48 136.097 53.1574 143 59.6868 143C63.9216 143 72.6741 143 82.5 143M48 132.96L48 127.345M48 132.96C48 132.458 48 130.429 48 127.345M68.9626 136.411V124.234C68.9626 123.682 68.5149 123.234 67.9626 123.234H54.873M68.9626 136.411C68.9626 136.411 62.4333 136.411 60.0277 136.411M68.9626 136.411H60.0277M54.873 123.234C54.873 123.234 54.873 130.764 54.873 132.333M54.873 123.234V132.333M54.873 132.333C54.873 133.901 57.6222 136.411 60.0277 136.411M68.9626 54.8368V66.7587C68.9626 67.1052 68.6549 67.3862 68.2753 67.3862H55.5603C55.1807 67.3862 54.873 67.1088 54.873 66.7623V58.2879C54.873 56.7192 57.6222 54.2094 60.0277 54.2094H68.2782C68.6578 54.2094 68.9626 54.4903 68.9626 54.8368ZM54.873 91.0029V74.6641C54.873 74.1118 55.3207 73.6641 55.873 73.6641H67.9626C68.5149 73.6641 68.9626 74.1118 68.9626 74.6641V91.0029C68.9626 91.5552 68.5149 92.0029 67.9626 92.0029H55.873C55.3207 92.0029 54.873 91.5552 54.873 91.0029ZM90.9871 54.2129H77.0156C76.4634 54.2129 76.0156 54.6606 76.0156 55.2129V66.3897C76.0156 66.942 76.4634 67.3897 77.0156 67.3897H90.9871C91.5394 67.3897 91.9871 66.942 91.9871 66.3897V55.2129C91.9871 54.6606 91.5394 54.2129 90.9871 54.2129ZM54.873 115.788V99.4494C54.873 98.8971 55.3207 98.4494 55.873 98.4494H67.9626C68.5149 98.4494 68.9626 98.8971 68.9626 99.4494V115.788C68.9626 116.34 68.5149 116.788 67.9626 116.788H55.873C55.3207 116.788 54.873 116.34 54.873 115.788ZM91.9871 135.411V124.234C91.9871 123.682 91.5394 123.234 90.9871 123.234H77.0156C76.4634 123.234 76.0156 123.682 76.0156 124.234V135.411C76.0156 135.963 76.4634 136.411 77.0156 136.411H90.9871C91.5394 136.411 91.9871 135.963 91.9871 135.411Z" stroke="black"/>
<defs>
<linearGradient id="paint0_linear_234_10421" x1="120.929" y1="48" x2="120.929" y2="142.889" gradientUnits="userSpaceOnUse">
<stop offset="0.504808" stop-color="#284781"/>
<stop offset="1" stop-color="#16153D"/>
</linearGradient>
<linearGradient id="paint1_linear_234_10421" x1="120.929" y1="48" x2="120.929" y2="142.889" gradientUnits="userSpaceOnUse">
<stop offset="0.504808" stop-color="#284781"/>
<stop offset="1" stop-color="#16153D"/>
</linearGradient>
<linearGradient id="paint2_linear_234_10421" x1="120.929" y1="48" x2="120.929" y2="142.889" gradientUnits="userSpaceOnUse">
<stop offset="0.504808" stop-color="#284781"/>
<stop offset="1" stop-color="#16153D"/>
</linearGradient>
<linearGradient id="paint3_linear_234_10421" x1="120.929" y1="48" x2="120.929" y2="142.889" gradientUnits="userSpaceOnUse">
<stop offset="0.504808" stop-color="#284781"/>
<stop offset="1" stop-color="#16153D"/>
</linearGradient>
<linearGradient id="paint4_linear_234_10421" x1="120.929" y1="48" x2="120.929" y2="142.889" gradientUnits="userSpaceOnUse">
<stop offset="0.504808" stop-color="#284781"/>
<stop offset="1" stop-color="#16153D"/>
</linearGradient>
<linearGradient id="paint5_linear_234_10421" x1="120.929" y1="48" x2="120.929" y2="142.889" gradientUnits="userSpaceOnUse">
<stop offset="0.504808" stop-color="#284781"/>
<stop offset="1" stop-color="#16153D"/>
</linearGradient>
<linearGradient id="paint6_linear_234_10421" x1="120.929" y1="48" x2="120.929" y2="142.889" gradientUnits="userSpaceOnUse">
<stop offset="0.504808" stop-color="#284781"/>
<stop offset="1" stop-color="#16153D"/>
</linearGradient>
<linearGradient id="paint7_linear_234_10421" x1="73.4314" y1="48" x2="73.4314" y2="142.685" gradientUnits="userSpaceOnUse">
<stop offset="0.495192" stop-color="#B39AF5"/>
<stop offset="1" stop-color="#9262F1"/>
</linearGradient>
<linearGradient id="paint8_linear_234_10421" x1="73.4314" y1="48" x2="73.4314" y2="142.685" gradientUnits="userSpaceOnUse">
<stop offset="0.495192" stop-color="#B39AF5"/>
<stop offset="1" stop-color="#9262F1"/>
</linearGradient>
<linearGradient id="paint9_linear_234_10421" x1="73.4314" y1="48" x2="73.4314" y2="142.685" gradientUnits="userSpaceOnUse">
<stop offset="0.495192" stop-color="#B39AF5"/>
<stop offset="1" stop-color="#9262F1"/>
</linearGradient>
<linearGradient id="paint10_linear_234_10421" x1="73.4314" y1="48" x2="73.4314" y2="142.685" gradientUnits="userSpaceOnUse">
<stop offset="0.495192" stop-color="#B39AF5"/>
<stop offset="1" stop-color="#9262F1"/>
</linearGradient>
<linearGradient id="paint11_linear_234_10421" x1="73.4314" y1="48" x2="73.4314" y2="142.685" gradientUnits="userSpaceOnUse">
<stop offset="0.495192" stop-color="#B39AF5"/>
<stop offset="1" stop-color="#9262F1"/>
</linearGradient>
<linearGradient id="paint12_linear_234_10421" x1="73.4314" y1="48" x2="73.4314" y2="142.685" gradientUnits="userSpaceOnUse">
<stop offset="0.495192" stop-color="#B39AF5"/>
<stop offset="1" stop-color="#9262F1"/>
</linearGradient>
<linearGradient id="paint13_linear_234_10421" x1="73.4314" y1="48" x2="73.4314" y2="142.685" gradientUnits="userSpaceOnUse">
<stop offset="0.495192" stop-color="#B39AF5"/>
<stop offset="1" stop-color="#9262F1"/>
</linearGradient>
</defs>
</svg>
