<svg width="1133" height="1091" viewBox="0 0 1133 1091" fill="none" xmlns="http://www.w3.org/2000/svg">
<g filter="url(#filter0_d_352_8085)">
<path d="M429.842 79.4388C449.322 60.1147 475.648 49.2715 503.087 49.2715L842.252 49.2715C861.582 49.2715 877.252 64.9415 877.252 84.2715V887.272C877.252 906.602 861.582 922.272 842.252 922.272H244.252C224.922 922.272 209.252 906.602 209.252 887.272V341.594C209.252 313.867 220.324 287.288 240.008 267.761L429.842 79.4388Z" fill="#F3F3F3"/>
<path d="M419.988 174.271V160.711H415.092V157.471H428.628V160.711H423.588V174.271H419.988ZM430.334 174.271L436.91 157.471H440.126L446.678 174.271H442.982L439.598 165.223C439.502 164.967 439.382 164.639 439.238 164.239C439.11 163.839 438.974 163.415 438.83 162.967C438.686 162.519 438.55 162.095 438.422 161.695C438.294 161.279 438.198 160.935 438.134 160.663L438.782 160.639C438.686 161.007 438.574 161.391 438.446 161.791C438.334 162.175 438.214 162.575 438.086 162.991C437.958 163.391 437.822 163.783 437.678 164.167C437.534 164.551 437.398 164.927 437.27 165.295L433.886 174.271H430.334ZM433.382 170.743L434.558 167.839H442.262L443.462 170.743H433.382ZM450.957 174.271V157.471H458.253C459.373 157.471 460.317 157.639 461.085 157.975C461.869 158.295 462.461 158.767 462.861 159.391C463.261 160.015 463.461 160.759 463.461 161.623C463.461 162.583 463.221 163.383 462.741 164.023C462.261 164.663 461.573 165.103 460.677 165.343L460.653 164.863C461.389 165.039 462.037 165.327 462.597 165.727C463.157 166.127 463.589 166.623 463.893 167.215C464.197 167.807 464.349 168.479 464.349 169.231C464.349 170.063 464.213 170.799 463.941 171.439C463.669 172.063 463.269 172.583 462.741 172.999C462.213 173.415 461.589 173.735 460.869 173.959C460.165 174.167 459.373 174.271 458.493 174.271H450.957ZM454.413 171.151H458.349C458.861 171.151 459.293 171.079 459.645 170.935C460.013 170.775 460.293 170.535 460.485 170.215C460.677 169.895 460.773 169.519 460.773 169.087C460.773 168.671 460.669 168.319 460.461 168.031C460.253 167.743 459.957 167.527 459.573 167.383C459.205 167.223 458.757 167.143 458.229 167.143H454.413V171.151ZM454.413 164.287H457.821C458.253 164.287 458.629 164.207 458.949 164.047C459.269 163.887 459.509 163.671 459.669 163.399C459.845 163.127 459.933 162.807 459.933 162.439C459.933 161.847 459.741 161.391 459.357 161.071C458.973 160.751 458.397 160.591 457.629 160.591H454.413V164.287ZM469.541 174.271V157.471H480.893V160.639H473.045V171.103H481.061V174.271H469.541ZM471.221 167.239V164.167H479.741V167.239H471.221ZM486.695 174.271V157.471H490.295V171.031H497.903V174.271H486.695ZM512.45 174.271V157.471H519.578C520.57 157.471 521.466 157.711 522.266 158.191C523.082 158.655 523.722 159.295 524.186 160.111C524.666 160.927 524.906 161.847 524.906 162.871C524.906 163.911 524.666 164.847 524.186 165.679C523.722 166.511 523.082 167.175 522.266 167.671C521.466 168.151 520.57 168.391 519.578 168.391H516.05V174.271H512.45ZM516.002 165.151H519.17C519.554 165.151 519.898 165.055 520.202 164.863C520.506 164.655 520.746 164.383 520.922 164.047C521.114 163.711 521.21 163.327 521.21 162.895C521.21 162.463 521.114 162.087 520.922 161.767C520.746 161.431 520.506 161.175 520.202 160.999C519.898 160.807 519.554 160.711 519.17 160.711H516.002V165.151ZM530.049 174.271V157.471H541.401V160.639H533.553V171.103H541.569V174.271H530.049ZM531.729 167.239V164.167H540.249V167.239H531.729ZM549.916 169.303L549.148 166.039L557.644 157.471H562.012L549.916 169.303ZM547.204 174.271V157.471H550.804V174.271H547.204ZM558.1 174.271L551.812 165.919L554.284 163.783L562.372 174.271H558.1ZM566.819 174.271V157.471H578.171V160.639H570.323V171.103H578.339V174.271H566.819ZM568.499 167.239V164.167H577.019V167.239H568.499ZM583.973 174.271V157.471H591.413C592.453 157.471 593.397 157.711 594.245 158.191C595.093 158.655 595.757 159.287 596.237 160.087C596.733 160.887 596.981 161.799 596.981 162.823C596.981 163.831 596.733 164.751 596.237 165.583C595.757 166.399 595.093 167.047 594.245 167.527C593.397 168.007 592.453 168.247 591.413 168.247H587.453V174.271H583.973ZM593.501 174.271L589.229 166.687L592.925 166.087L597.677 174.295L593.501 174.271ZM587.453 165.319H591.245C591.677 165.319 592.053 165.223 592.373 165.031C592.709 164.823 592.965 164.543 593.141 164.191C593.317 163.823 593.405 163.415 593.405 162.967C593.405 162.487 593.301 162.071 593.093 161.719C592.885 161.367 592.581 161.095 592.181 160.903C591.781 160.695 591.317 160.591 590.789 160.591H587.453V165.319ZM606.003 174.511C605.411 174.511 604.851 174.439 604.323 174.295C603.811 174.151 603.331 173.951 602.883 173.695C602.451 173.439 602.059 173.127 601.707 172.759C601.355 172.375 601.059 171.951 600.819 171.487L602.907 169.303C603.179 169.671 603.427 169.983 603.651 170.239C603.891 170.479 604.115 170.671 604.323 170.815C604.547 170.959 604.771 171.063 604.995 171.127C605.219 171.175 605.459 171.199 605.715 171.199C606.163 171.199 606.555 171.095 606.891 170.887C607.243 170.679 607.507 170.391 607.683 170.023C607.875 169.655 607.971 169.231 607.971 168.751V160.663H604.899V157.471H614.091V160.663H611.499V169.159C611.499 169.959 611.363 170.687 611.091 171.343C610.819 171.999 610.435 172.567 609.939 173.047C609.443 173.511 608.859 173.871 608.187 174.127C607.531 174.383 606.803 174.511 606.003 174.511ZM615.892 174.271L622.468 157.471H625.684L632.236 174.271H628.54L625.156 165.223C625.06 164.967 624.94 164.639 624.796 164.239C624.668 163.839 624.532 163.415 624.388 162.967C624.244 162.519 624.108 162.095 623.98 161.695C623.852 161.279 623.756 160.935 623.692 160.663L624.34 160.639C624.244 161.007 624.132 161.391 624.004 161.791C623.892 162.175 623.772 162.575 623.644 162.991C623.516 163.391 623.38 163.783 623.236 164.167C623.092 164.551 622.956 164.927 622.828 165.295L619.444 174.271H615.892ZM618.94 170.743L620.116 167.839H627.82L629.02 170.743H618.94ZM634.523 174.271L641.099 157.471H644.315L650.867 174.271H647.171L643.787 165.223C643.691 164.967 643.571 164.639 643.427 164.239C643.299 163.839 643.163 163.415 643.019 162.967C642.875 162.519 642.739 162.095 642.611 161.695C642.483 161.279 642.387 160.935 642.323 160.663L642.971 160.639C642.875 161.007 642.763 161.391 642.635 161.791C642.523 162.175 642.403 162.575 642.275 162.991C642.147 163.391 642.011 163.783 641.867 164.167C641.723 164.551 641.587 164.927 641.459 165.295L638.075 174.271H634.523ZM637.571 170.743L638.747 167.839H646.451L647.651 170.743H637.571ZM655.146 174.271V157.471H658.362L667.65 170.023H666.978C666.914 169.527 666.858 169.047 666.81 168.583C666.762 168.103 666.714 167.623 666.666 167.143C666.634 166.647 666.602 166.143 666.57 165.631C666.554 165.103 666.538 164.551 666.522 163.975C666.506 163.383 666.498 162.743 666.498 162.055V157.471H670.026V174.271H666.762L657.282 161.599L658.194 161.623C658.274 162.455 658.338 163.167 658.386 163.759C658.45 164.335 658.498 164.839 658.53 165.271C658.562 165.703 658.586 166.079 658.602 166.399C658.634 166.719 658.65 167.023 658.65 167.311C658.666 167.599 658.674 167.903 658.674 168.223V174.271H655.146Z" fill="black"/>
<g clip-path="url(#clip0_352_8085)">
<rect x="309.252" y="203.271" width="235" height="34" fill="#B4AFAF"/>
<path d="M407.732 225.271V216.406H404.657V214.771H412.802V216.406H409.742V225.271H407.732ZM412.119 225.271L415.959 214.771H418.254L422.079 225.271H419.934L417.099 217.081L414.249 225.271H412.119ZM413.814 222.886L414.354 221.311H419.694L420.219 222.886H413.814ZM423.159 225.271V214.771H427.464C428.194 214.771 428.809 214.886 429.309 215.116C429.809 215.346 430.184 215.666 430.434 216.076C430.694 216.476 430.824 216.941 430.824 217.471C430.824 218.001 430.709 218.446 430.479 218.806C430.249 219.166 429.944 219.446 429.564 219.646C429.194 219.836 428.784 219.946 428.334 219.976L428.574 219.811C429.054 219.831 429.479 219.961 429.849 220.201C430.229 220.431 430.524 220.741 430.734 221.131C430.954 221.521 431.064 221.946 431.064 222.406C431.064 222.966 430.929 223.461 430.659 223.891C430.389 224.321 429.999 224.661 429.489 224.911C428.979 225.151 428.354 225.271 427.614 225.271H423.159ZM425.184 223.621H427.284C427.834 223.621 428.259 223.496 428.559 223.246C428.859 222.996 429.009 222.636 429.009 222.166C429.009 221.696 428.854 221.331 428.544 221.071C428.234 220.801 427.804 220.666 427.254 220.666H425.184V223.621ZM425.184 219.151H427.134C427.664 219.151 428.064 219.031 428.334 218.791C428.614 218.551 428.754 218.211 428.754 217.771C428.754 217.341 428.614 217.006 428.334 216.766C428.064 216.516 427.659 216.391 427.119 216.391H425.184V219.151ZM432.424 225.271V214.771H434.449V223.696H439.054V225.271H432.424ZM440.488 225.271V214.771H447.388V216.406H442.513V219.151H446.938V220.726H442.513V223.636H447.388V225.271H440.488Z" fill="#282828"/>
</g>
<rect x="310.252" y="204.271" width="233" height="32" stroke="black" stroke-width="2"/>
<rect x="543.252" y="204.271" width="233" height="32" fill="#B4AFAF"/>
<rect x="543.252" y="204.271" width="233" height="32" stroke="black" stroke-width="2"/>
<rect x="310.252" y="268.271" width="233" height="32" fill="#F3F3F3"/>
<rect x="310.252" y="268.271" width="233" height="32" stroke="black" stroke-width="2"/>
<rect x="543.252" y="268.271" width="233" height="32" fill="#F3F3F3"/>
<rect x="543.252" y="268.271" width="233" height="32" stroke="black" stroke-width="2"/>
<rect x="310.252" y="300.271" width="233" height="32" fill="#F3F3F3"/>
<rect x="310.252" y="300.271" width="233" height="32" stroke="black" stroke-width="2"/>
<rect x="543.252" y="300.271" width="233" height="32" fill="#F3F3F3"/>
<rect x="543.252" y="300.271" width="233" height="32" stroke="black" stroke-width="2"/>
<rect x="310.252" y="332.271" width="233" height="32" fill="#F3F3F3"/>
<rect x="310.252" y="332.271" width="233" height="32" stroke="black" stroke-width="2"/>
<rect x="543.252" y="332.271" width="233" height="32" fill="#F3F3F3"/>
<rect x="543.252" y="332.271" width="233" height="32" stroke="black" stroke-width="2"/>
<rect x="310.252" y="364.271" width="233" height="32" fill="#F3F3F3"/>
<rect x="310.252" y="364.271" width="233" height="32" stroke="black" stroke-width="2"/>
<rect x="543.252" y="364.271" width="233" height="32" fill="#F3F3F3"/>
<rect x="543.252" y="364.271" width="233" height="32" stroke="black" stroke-width="2"/>
<rect x="310.252" y="396.271" width="233" height="32" fill="#F3F3F3"/>
<rect x="310.252" y="396.271" width="233" height="32" stroke="black" stroke-width="2"/>
<rect x="543.252" y="396.271" width="233" height="32" fill="#F3F3F3"/>
<rect x="543.252" y="396.271" width="233" height="32" stroke="black" stroke-width="2"/>
<rect x="310.252" y="428.271" width="233" height="32" fill="#F3F3F3"/>
<rect x="310.252" y="428.271" width="233" height="32" stroke="black" stroke-width="2"/>
<rect x="543.252" y="428.271" width="233" height="32" fill="#F3F3F3"/>
<rect x="543.252" y="428.271" width="233" height="32" stroke="black" stroke-width="2"/>
<rect x="310.252" y="460.271" width="233" height="32" fill="#F3F3F3"/>
<rect x="310.252" y="460.271" width="233" height="32" stroke="black" stroke-width="2"/>
<rect x="543.252" y="460.271" width="233" height="32" fill="#F3F3F3"/>
<rect x="543.252" y="460.271" width="233" height="32" stroke="black" stroke-width="2"/>
<rect x="310.252" y="492.271" width="233" height="32" fill="#F3F3F3"/>
<rect x="310.252" y="492.271" width="233" height="32" stroke="black" stroke-width="2"/>
<rect x="543.252" y="492.271" width="233" height="32" fill="#F3F3F3"/>
<rect x="543.252" y="492.271" width="233" height="32" stroke="black" stroke-width="2"/>
<rect x="310.252" y="524.271" width="233" height="32" fill="#F3F3F3"/>
<rect x="310.252" y="524.271" width="233" height="32" stroke="black" stroke-width="2"/>
<rect x="543.252" y="524.271" width="233" height="32" fill="#F3F3F3"/>
<rect x="543.252" y="524.271" width="233" height="32" stroke="black" stroke-width="2"/>
<rect x="310.252" y="556.271" width="233" height="32" fill="#F3F3F3"/>
<rect x="310.252" y="556.271" width="233" height="32" stroke="black" stroke-width="2"/>
<rect x="543.252" y="556.271" width="233" height="32" fill="#F3F3F3"/>
<rect x="543.252" y="556.271" width="233" height="32" stroke="black" stroke-width="2"/>
<rect x="310.252" y="588.271" width="233" height="32" fill="#F3F3F3"/>
<rect x="310.252" y="588.271" width="233" height="32" stroke="black" stroke-width="2"/>
<rect x="543.252" y="588.271" width="233" height="32" fill="#F3F3F3"/>
<rect x="543.252" y="588.271" width="233" height="32" stroke="black" stroke-width="2"/>
<rect x="310.252" y="620.271" width="233" height="32" fill="#F3F3F3"/>
<rect x="310.252" y="620.271" width="233" height="32" stroke="black" stroke-width="2"/>
<rect x="543.252" y="620.271" width="233" height="32" fill="#F3F3F3"/>
<rect x="543.252" y="620.271" width="233" height="32" stroke="black" stroke-width="2"/>
<rect x="310.252" y="652.271" width="233" height="32" fill="#F3F3F3"/>
<rect x="310.252" y="652.271" width="233" height="32" stroke="black" stroke-width="2"/>
<rect x="543.252" y="652.271" width="233" height="32" fill="#F3F3F3"/>
<rect x="543.252" y="652.271" width="233" height="32" stroke="black" stroke-width="2"/>
<rect x="310.252" y="684.271" width="233" height="32" fill="#F3F3F3"/>
<rect x="310.252" y="684.271" width="233" height="32" stroke="black" stroke-width="2"/>
<rect x="543.252" y="684.271" width="233" height="32" fill="#F3F3F3"/>
<rect x="543.252" y="684.271" width="233" height="32" stroke="black" stroke-width="2"/>
<rect x="310.252" y="716.271" width="233" height="32" fill="#F3F3F3"/>
<rect x="310.252" y="716.271" width="233" height="32" stroke="black" stroke-width="2"/>
<rect x="543.252" y="716.271" width="233" height="32" fill="#F3F3F3"/>
<rect x="543.252" y="716.271" width="233" height="32" stroke="black" stroke-width="2"/>
<rect x="310.252" y="748.271" width="233" height="32" fill="#F3F3F3"/>
<rect x="310.252" y="748.271" width="233" height="32" stroke="black" stroke-width="2"/>
<rect x="543.252" y="748.271" width="233" height="32" fill="#F3F3F3"/>
<rect x="543.252" y="748.271" width="233" height="32" stroke="black" stroke-width="2"/>
<rect x="310.252" y="780.271" width="233" height="32" fill="#F3F3F3"/>
<rect x="310.252" y="780.271" width="233" height="32" stroke="black" stroke-width="2"/>
<rect x="543.252" y="780.271" width="233" height="32" fill="#F3F3F3"/>
<rect x="543.252" y="780.271" width="233" height="32" stroke="black" stroke-width="2"/>
<rect x="543.252" y="236.271" width="233" height="32" fill="#F3F3F3"/>
<rect x="543.252" y="236.271" width="233" height="32" stroke="black" stroke-width="2"/>
<rect x="310.252" y="236.271" width="116" height="32" fill="#E5E5E5"/>
<rect x="310.252" y="236.271" width="116" height="32" stroke="black" stroke-width="2"/>
<rect x="426.252" y="236.271" width="117" height="32" fill="#E5E5E5"/>
<rect x="426.252" y="236.271" width="117" height="32" stroke="black" stroke-width="2"/>
<path d="M465.281 257.271V246.771H466.541V257.271H465.281ZM468.392 260.571V249.726H469.532L469.652 250.956C469.812 250.716 470.017 250.491 470.267 250.281C470.517 250.061 470.817 249.886 471.167 249.756C471.517 249.616 471.922 249.546 472.382 249.546C473.112 249.546 473.747 249.721 474.287 250.071C474.837 250.411 475.262 250.881 475.562 251.481C475.872 252.071 476.027 252.751 476.027 253.521C476.027 254.281 475.872 254.956 475.562 255.546C475.262 256.136 474.837 256.601 474.287 256.941C473.737 257.281 473.097 257.451 472.367 257.451C471.757 257.451 471.217 257.326 470.747 257.076C470.277 256.826 469.912 256.476 469.652 256.026V260.571H468.392ZM472.217 256.356C472.707 256.356 473.142 256.241 473.522 256.011C473.912 255.771 474.212 255.436 474.422 255.006C474.642 254.576 474.752 254.076 474.752 253.506C474.752 252.926 474.642 252.426 474.422 252.006C474.212 251.576 473.912 251.241 473.522 251.001C473.142 250.761 472.707 250.641 472.217 250.641C471.717 250.641 471.277 250.761 470.897 251.001C470.517 251.241 470.222 251.576 470.012 252.006C469.802 252.426 469.697 252.926 469.697 253.506C469.697 254.076 469.802 254.576 470.012 255.006C470.222 255.436 470.517 255.771 470.897 256.011C471.277 256.241 471.717 256.356 472.217 256.356ZM480.346 257.451C479.736 257.451 479.196 257.351 478.726 257.151C478.256 256.941 477.881 256.646 477.601 256.266C477.331 255.886 477.161 255.441 477.091 254.931H478.381C478.441 255.191 478.551 255.436 478.711 255.666C478.871 255.886 479.086 256.061 479.356 256.191C479.636 256.321 479.971 256.386 480.361 256.386C480.721 256.386 481.016 256.336 481.246 256.236C481.476 256.126 481.646 255.981 481.756 255.801C481.866 255.621 481.921 255.426 481.921 255.216C481.921 254.916 481.846 254.686 481.696 254.526C481.556 254.356 481.346 254.226 481.066 254.136C480.796 254.046 480.461 253.966 480.061 253.896C479.731 253.836 479.406 253.756 479.086 253.656C478.776 253.546 478.496 253.411 478.246 253.251C477.996 253.091 477.796 252.891 477.646 252.651C477.496 252.401 477.421 252.106 477.421 251.766C477.421 251.336 477.531 250.956 477.751 250.626C477.981 250.286 478.296 250.021 478.696 249.831C479.106 249.641 479.591 249.546 480.151 249.546C480.951 249.546 481.601 249.741 482.101 250.131C482.611 250.521 482.906 251.086 482.986 251.826H481.741C481.701 251.446 481.541 251.151 481.261 250.941C480.981 250.721 480.606 250.611 480.136 250.611C479.666 250.611 479.306 250.706 479.056 250.896C478.816 251.086 478.696 251.336 478.696 251.646C478.696 251.846 478.761 252.026 478.891 252.186C479.031 252.336 479.236 252.466 479.506 252.576C479.776 252.676 480.101 252.766 480.481 252.846C480.981 252.936 481.436 253.056 481.846 253.206C482.256 253.346 482.586 253.566 482.836 253.866C483.096 254.156 483.221 254.571 483.211 255.111C483.221 255.581 483.106 255.991 482.866 256.341C482.636 256.691 482.306 256.966 481.876 257.166C481.446 257.356 480.936 257.451 480.346 257.451ZM487.47 257.451C486.89 257.451 486.38 257.336 485.94 257.106C485.51 256.876 485.175 256.521 484.935 256.041C484.705 255.561 484.59 254.956 484.59 254.226V249.726H485.85V254.091C485.85 254.851 486.015 255.421 486.345 255.801C486.675 256.181 487.145 256.371 487.755 256.371C488.175 256.371 488.555 256.271 488.895 256.071C489.235 255.861 489.5 255.561 489.69 255.171C489.89 254.781 489.99 254.306 489.99 253.746V249.726H491.25V257.271H490.11L490.035 255.951C489.795 256.421 489.45 256.791 489 257.061C488.55 257.321 488.04 257.451 487.47 257.451ZM493.024 257.271V249.726H494.164L494.254 250.806C494.494 250.406 494.814 250.096 495.214 249.876C495.614 249.656 496.059 249.546 496.549 249.546C496.939 249.546 497.289 249.601 497.599 249.711C497.919 249.811 498.199 249.971 498.439 250.191C498.689 250.401 498.889 250.671 499.039 251.001C499.299 250.541 499.654 250.186 500.104 249.936C500.564 249.676 501.049 249.546 501.559 249.546C502.149 249.546 502.659 249.666 503.089 249.906C503.529 250.136 503.864 250.491 504.094 250.971C504.334 251.441 504.454 252.041 504.454 252.771V257.271H503.209V252.906C503.209 252.146 503.054 251.576 502.744 251.196C502.434 250.816 501.994 250.626 501.424 250.626C501.034 250.626 500.684 250.731 500.374 250.941C500.064 251.141 499.819 251.436 499.639 251.826C499.459 252.216 499.369 252.696 499.369 253.266V257.271H498.109V252.906C498.109 252.146 497.954 251.576 497.644 251.196C497.334 250.816 496.899 250.626 496.339 250.626C495.959 250.626 495.609 250.731 495.289 250.941C494.979 251.141 494.734 251.436 494.554 251.826C494.374 252.216 494.284 252.696 494.284 253.266V257.271H493.024Z" fill="#8C8686"/>
<path d="M348.673 257.271V246.771H349.933V256.266H354.823V257.271H348.673ZM359.246 257.451C358.546 257.451 357.916 257.291 357.356 256.971C356.796 256.641 356.351 256.181 356.021 255.591C355.701 254.991 355.541 254.296 355.541 253.506C355.541 252.696 355.706 251.996 356.036 251.406C356.366 250.816 356.811 250.361 357.371 250.041C357.941 249.711 358.576 249.546 359.276 249.546C359.986 249.546 360.621 249.711 361.181 250.041C361.741 250.361 362.181 250.816 362.501 251.406C362.821 251.996 362.981 252.696 362.981 253.506C362.981 254.306 362.816 255.001 362.486 255.591C362.166 256.181 361.721 256.641 361.151 256.971C360.591 257.291 359.956 257.451 359.246 257.451ZM359.246 256.371C359.686 256.371 360.091 256.266 360.461 256.056C360.831 255.836 361.126 255.516 361.346 255.096C361.576 254.666 361.691 254.136 361.691 253.506C361.691 252.856 361.581 252.321 361.361 251.901C361.141 251.481 360.846 251.166 360.476 250.956C360.106 250.736 359.706 250.626 359.276 250.626C358.856 250.626 358.456 250.736 358.076 250.956C357.706 251.166 357.406 251.486 357.176 251.916C356.946 252.336 356.831 252.866 356.831 253.506C356.831 254.136 356.946 254.666 357.176 255.096C357.406 255.516 357.701 255.836 358.061 256.056C358.431 256.266 358.826 256.371 359.246 256.371ZM364.448 257.271V249.726H365.588L365.693 251.166C365.863 250.826 366.078 250.536 366.338 250.296C366.608 250.056 366.928 249.871 367.298 249.741C367.678 249.611 368.103 249.546 368.573 249.546V250.866H368.123C367.803 250.866 367.498 250.911 367.208 251.001C366.918 251.081 366.658 251.216 366.428 251.406C366.208 251.596 366.033 251.856 365.903 252.186C365.773 252.506 365.708 252.906 365.708 253.386V257.271H364.448ZM372.736 257.451C372.036 257.451 371.411 257.286 370.861 256.956C370.311 256.626 369.876 256.166 369.556 255.576C369.246 254.986 369.091 254.296 369.091 253.506C369.091 252.706 369.246 252.011 369.556 251.421C369.866 250.831 370.296 250.371 370.846 250.041C371.406 249.711 372.046 249.546 372.766 249.546C373.506 249.546 374.136 249.711 374.656 250.041C375.176 250.371 375.571 250.806 375.841 251.346C376.121 251.876 376.261 252.456 376.261 253.086C376.261 253.186 376.261 253.296 376.261 253.416C376.261 253.526 376.256 253.651 376.246 253.791H370.036V252.816H375.016C374.986 252.116 374.756 251.576 374.326 251.196C373.906 250.806 373.376 250.611 372.736 250.611C372.316 250.611 371.921 250.711 371.551 250.911C371.181 251.101 370.881 251.381 370.651 251.751C370.431 252.121 370.321 252.591 370.321 253.161V253.581C370.321 254.201 370.436 254.721 370.666 255.141C370.896 255.551 371.191 255.861 371.551 256.071C371.921 256.281 372.316 256.386 372.736 256.386C373.266 256.386 373.701 256.271 374.041 256.041C374.391 255.801 374.646 255.476 374.806 255.066H376.051C375.921 255.526 375.706 255.936 375.406 256.296C375.106 256.646 374.731 256.926 374.281 257.136C373.841 257.346 373.326 257.451 372.736 257.451ZM377.632 257.271V249.726H378.772L378.862 250.806C379.102 250.406 379.422 250.096 379.822 249.876C380.222 249.656 380.667 249.546 381.157 249.546C381.547 249.546 381.897 249.601 382.207 249.711C382.527 249.811 382.807 249.971 383.047 250.191C383.297 250.401 383.497 250.671 383.647 251.001C383.907 250.541 384.262 250.186 384.712 249.936C385.172 249.676 385.657 249.546 386.167 249.546C386.757 249.546 387.267 249.666 387.697 249.906C388.137 250.136 388.472 250.491 388.702 250.971C388.942 251.441 389.062 252.041 389.062 252.771V257.271H387.817V252.906C387.817 252.146 387.662 251.576 387.352 251.196C387.042 250.816 386.602 250.626 386.032 250.626C385.642 250.626 385.292 250.731 384.982 250.941C384.672 251.141 384.427 251.436 384.247 251.826C384.067 252.216 383.977 252.696 383.977 253.266V257.271H382.717V252.906C382.717 252.146 382.562 251.576 382.252 251.196C381.942 250.816 381.507 250.626 380.947 250.626C380.567 250.626 380.217 250.731 379.897 250.941C379.587 251.141 379.342 251.436 379.162 251.826C378.982 252.216 378.892 252.696 378.892 253.266V257.271H377.632Z" fill="#8C8686"/>
<path d="M565.385 257.271V247.471H566.561V256.333H571.125V257.271H565.385ZM575.267 257.439C574.613 257.439 574.025 257.29 573.503 256.991C572.98 256.683 572.569 256.254 572.271 255.703C571.972 255.143 571.823 254.495 571.823 253.757C571.823 253.001 571.972 252.348 572.271 251.797C572.579 251.237 572.994 250.808 573.517 250.509C574.049 250.201 574.641 250.047 575.295 250.047C575.967 250.047 576.559 250.201 577.073 250.509C577.595 250.808 578.006 251.237 578.305 251.797C578.613 252.348 578.767 252.997 578.767 253.743C578.767 254.49 578.613 255.143 578.305 255.703C577.997 256.254 577.581 256.683 577.059 256.991C576.536 257.29 575.939 257.439 575.267 257.439ZM575.281 256.431C575.682 256.431 576.055 256.333 576.401 256.137C576.746 255.932 577.026 255.629 577.241 255.227C577.455 254.826 577.563 254.331 577.563 253.743C577.563 253.146 577.455 252.651 577.241 252.259C577.035 251.858 576.76 251.559 576.415 251.363C576.079 251.158 575.705 251.055 575.295 251.055C574.903 251.055 574.529 251.158 574.175 251.363C573.829 251.559 573.549 251.858 573.335 252.259C573.129 252.651 573.027 253.146 573.027 253.743C573.027 254.331 573.129 254.826 573.335 255.227C573.549 255.629 573.825 255.932 574.161 256.137C574.506 256.333 574.879 256.431 575.281 256.431ZM580.136 257.271V250.215H581.2L581.284 251.559C581.442 251.242 581.643 250.971 581.886 250.747C582.138 250.523 582.436 250.351 582.782 250.229C583.136 250.108 583.538 250.047 583.986 250.047V251.279H583.552C583.253 251.279 582.968 251.321 582.698 251.405C582.427 251.48 582.184 251.606 581.97 251.783C581.764 251.961 581.601 252.203 581.48 252.511C581.368 252.81 581.312 253.183 581.312 253.631V257.271H580.136ZM587.871 257.439C587.209 257.439 586.621 257.285 586.107 256.977C585.603 256.669 585.207 256.24 584.917 255.689C584.628 255.129 584.483 254.481 584.483 253.743C584.483 252.997 584.623 252.348 584.903 251.797C585.193 251.247 585.594 250.817 586.107 250.509C586.63 250.201 587.227 250.047 587.899 250.047C588.59 250.047 589.173 250.201 589.649 250.509C590.135 250.817 590.503 251.223 590.755 251.727C591.017 252.222 591.147 252.768 591.147 253.365C591.147 253.459 591.147 253.557 591.147 253.659C591.147 253.762 591.143 253.879 591.133 254.009H585.365V253.099H589.999C589.971 252.455 589.757 251.951 589.355 251.587C588.963 251.223 588.469 251.041 587.871 251.041C587.47 251.041 587.097 251.135 586.751 251.321C586.415 251.499 586.145 251.765 585.939 252.119C585.734 252.465 585.631 252.899 585.631 253.421V253.813C585.631 254.392 585.734 254.877 585.939 255.269C586.154 255.661 586.429 255.955 586.765 256.151C587.111 256.347 587.479 256.445 587.871 256.445C588.366 256.445 588.772 256.338 589.089 256.123C589.416 255.899 589.649 255.601 589.789 255.227H590.951C590.839 255.647 590.643 256.025 590.363 256.361C590.083 256.697 589.733 256.963 589.313 257.159C588.903 257.346 588.422 257.439 587.871 257.439ZM592.454 257.271V250.215H593.518L593.588 251.223C593.812 250.859 594.111 250.575 594.484 250.369C594.867 250.155 595.282 250.047 595.73 250.047C596.094 250.047 596.421 250.099 596.71 250.201C597.009 250.295 597.27 250.444 597.494 250.649C597.718 250.845 597.9 251.097 598.04 251.405C598.283 250.976 598.614 250.645 599.034 250.411C599.464 250.169 599.921 250.047 600.406 250.047C600.948 250.047 601.419 250.159 601.82 250.383C602.231 250.598 602.544 250.929 602.758 251.377C602.982 251.816 603.094 252.376 603.094 253.057V257.271H601.932V253.183C601.932 252.474 601.788 251.942 601.498 251.587C601.209 251.233 600.803 251.055 600.28 251.055C599.916 251.055 599.59 251.153 599.3 251.349C599.011 251.536 598.782 251.811 598.614 252.175C598.446 252.539 598.362 252.987 598.362 253.519V257.271H597.186V253.183C597.186 252.474 597.042 251.942 596.752 251.587C596.463 251.233 596.052 251.055 595.52 251.055C595.166 251.055 594.844 251.153 594.554 251.349C594.274 251.536 594.05 251.811 593.882 252.175C593.714 252.539 593.63 252.987 593.63 253.519V257.271H592.454ZM608.152 257.271V247.471H609.328V257.271H608.152ZM611.083 260.351V250.215H612.147L612.245 251.363C612.395 251.139 612.586 250.929 612.819 250.733C613.053 250.528 613.333 250.365 613.659 250.243C613.986 250.113 614.359 250.047 614.779 250.047C615.47 250.047 616.067 250.211 616.571 250.537C617.085 250.864 617.481 251.307 617.761 251.867C618.051 252.418 618.195 253.048 618.195 253.757C618.195 254.467 618.051 255.101 617.761 255.661C617.481 256.212 617.085 256.646 616.571 256.963C616.058 257.281 615.456 257.439 614.765 257.439C614.196 257.439 613.692 257.323 613.253 257.089C612.824 256.856 612.493 256.529 612.259 256.109V260.351H611.083ZM614.639 256.417C615.097 256.417 615.503 256.305 615.857 256.081C616.212 255.857 616.487 255.549 616.683 255.157C616.889 254.756 616.991 254.285 616.991 253.743C616.991 253.211 616.889 252.745 616.683 252.343C616.487 251.942 616.212 251.629 615.857 251.405C615.503 251.181 615.097 251.069 614.639 251.069C614.173 251.069 613.762 251.181 613.407 251.405C613.053 251.629 612.777 251.942 612.581 252.343C612.385 252.745 612.287 253.211 612.287 253.743C612.287 254.285 612.385 254.756 612.581 255.157C612.777 255.549 613.053 255.857 613.407 256.081C613.762 256.305 614.173 256.417 614.639 256.417ZM622.227 257.439C621.639 257.439 621.126 257.341 620.687 257.145C620.258 256.949 619.912 256.679 619.651 256.333C619.399 255.979 619.245 255.563 619.189 255.087H620.393C620.44 255.33 620.538 255.554 620.687 255.759C620.836 255.965 621.037 256.133 621.289 256.263C621.55 256.385 621.868 256.445 622.241 256.445C622.568 256.445 622.838 256.399 623.053 256.305C623.268 256.203 623.426 256.067 623.529 255.899C623.641 255.731 623.697 255.549 623.697 255.353C623.697 255.064 623.627 254.845 623.487 254.695C623.356 254.546 623.16 254.429 622.899 254.345C622.638 254.252 622.32 254.173 621.947 254.107C621.639 254.051 621.336 253.977 621.037 253.883C620.738 253.79 620.472 253.669 620.239 253.519C620.006 253.361 619.819 253.169 619.679 252.945C619.548 252.721 619.483 252.446 619.483 252.119C619.483 251.718 619.586 251.363 619.791 251.055C619.996 250.738 620.29 250.491 620.673 250.313C621.065 250.136 621.518 250.047 622.031 250.047C622.787 250.047 623.398 250.229 623.865 250.593C624.332 250.957 624.607 251.485 624.691 252.175H623.529C623.482 251.821 623.328 251.545 623.067 251.349C622.815 251.144 622.465 251.041 622.017 251.041C621.578 251.041 621.242 251.13 621.009 251.307C620.785 251.485 620.673 251.718 620.673 252.007C620.673 252.194 620.734 252.362 620.855 252.511C620.986 252.651 621.172 252.773 621.415 252.875C621.667 252.978 621.975 253.062 622.339 253.127C622.806 253.211 623.23 253.323 623.613 253.463C623.996 253.603 624.304 253.813 624.537 254.093C624.78 254.364 624.901 254.751 624.901 255.255C624.901 255.694 624.789 256.077 624.565 256.403C624.35 256.73 624.042 256.987 623.641 257.173C623.24 257.351 622.768 257.439 622.227 257.439ZM628.876 257.439C628.335 257.439 627.859 257.332 627.448 257.117C627.047 256.903 626.734 256.571 626.51 256.123C626.296 255.675 626.188 255.115 626.188 254.443V250.215H627.364V254.317C627.364 255.017 627.518 255.545 627.826 255.899C628.134 256.254 628.568 256.431 629.128 256.431C629.52 256.431 629.875 256.338 630.192 256.151C630.51 255.955 630.757 255.68 630.934 255.325C631.121 254.961 631.214 254.518 631.214 253.995V250.215H632.39V257.271H631.326L631.256 256.039C631.042 256.478 630.724 256.823 630.304 257.075C629.884 257.318 629.408 257.439 628.876 257.439ZM634.06 257.271V250.215H635.124L635.194 251.223C635.418 250.859 635.716 250.575 636.09 250.369C636.472 250.155 636.888 250.047 637.336 250.047C637.7 250.047 638.026 250.099 638.316 250.201C638.614 250.295 638.876 250.444 639.1 250.649C639.324 250.845 639.506 251.097 639.646 251.405C639.888 250.976 640.22 250.645 640.64 250.411C641.069 250.169 641.526 250.047 642.012 250.047C642.553 250.047 643.024 250.159 643.426 250.383C643.836 250.598 644.149 250.929 644.364 251.377C644.588 251.816 644.7 252.376 644.7 253.057V257.271H643.538V253.183C643.538 252.474 643.393 251.942 643.104 251.587C642.814 251.233 642.408 251.055 641.886 251.055C641.522 251.055 641.195 251.153 640.906 251.349C640.616 251.536 640.388 251.811 640.22 252.175C640.052 252.539 639.968 252.987 639.968 253.519V257.271H638.792V253.183C638.792 252.474 638.647 251.942 638.358 251.587C638.068 251.233 637.658 251.055 637.126 251.055C636.771 251.055 636.449 251.153 636.16 251.349C635.88 251.536 635.656 251.811 635.488 252.175C635.32 252.539 635.236 252.987 635.236 253.519V257.271H634.06ZM649.799 257.271V250.215H650.975V257.271H649.799ZM650.387 248.717C650.154 248.717 649.958 248.643 649.799 248.493C649.65 248.335 649.575 248.139 649.575 247.905C649.575 247.672 649.65 247.485 649.799 247.345C649.958 247.196 650.154 247.121 650.387 247.121C650.611 247.121 650.802 247.196 650.961 247.345C651.12 247.485 651.199 247.672 651.199 247.905C651.199 248.139 651.12 248.335 650.961 248.493C650.802 248.643 650.611 248.717 650.387 248.717ZM655.43 257.439C654.842 257.439 654.329 257.341 653.89 257.145C653.461 256.949 653.116 256.679 652.854 256.333C652.602 255.979 652.448 255.563 652.392 255.087H653.596C653.643 255.33 653.741 255.554 653.89 255.759C654.04 255.965 654.24 256.133 654.492 256.263C654.754 256.385 655.071 256.445 655.444 256.445C655.771 256.445 656.042 256.399 656.256 256.305C656.471 256.203 656.63 256.067 656.732 255.899C656.844 255.731 656.9 255.549 656.9 255.353C656.9 255.064 656.83 254.845 656.69 254.695C656.56 254.546 656.364 254.429 656.102 254.345C655.841 254.252 655.524 254.173 655.15 254.107C654.842 254.051 654.539 253.977 654.24 253.883C653.942 253.79 653.676 253.669 653.442 253.519C653.209 253.361 653.022 253.169 652.882 252.945C652.752 252.721 652.686 252.446 652.686 252.119C652.686 251.718 652.789 251.363 652.994 251.055C653.2 250.738 653.494 250.491 653.876 250.313C654.268 250.136 654.721 250.047 655.234 250.047C655.99 250.047 656.602 250.229 657.068 250.593C657.535 250.957 657.81 251.485 657.894 252.175H656.732C656.686 251.821 656.532 251.545 656.27 251.349C656.018 251.144 655.668 251.041 655.22 251.041C654.782 251.041 654.446 251.13 654.212 251.307C653.988 251.485 653.876 251.718 653.876 252.007C653.876 252.194 653.937 252.362 654.058 252.511C654.189 252.651 654.376 252.773 654.618 252.875C654.87 252.978 655.178 253.062 655.542 253.127C656.009 253.211 656.434 253.323 656.816 253.463C657.199 253.603 657.507 253.813 657.74 254.093C657.983 254.364 658.104 254.751 658.104 255.255C658.104 255.694 657.992 256.077 657.768 256.403C657.554 256.73 657.246 256.987 656.844 257.173C656.443 257.351 655.972 257.439 655.43 257.439ZM665.616 257.439C665.028 257.439 664.515 257.341 664.076 257.145C663.647 256.949 663.302 256.679 663.04 256.333C662.788 255.979 662.634 255.563 662.578 255.087H663.782C663.829 255.33 663.927 255.554 664.076 255.759C664.226 255.965 664.426 256.133 664.678 256.263C664.94 256.385 665.257 256.445 665.63 256.445C665.957 256.445 666.228 256.399 666.442 256.305C666.657 256.203 666.816 256.067 666.918 255.899C667.03 255.731 667.086 255.549 667.086 255.353C667.086 255.064 667.016 254.845 666.876 254.695C666.746 254.546 666.55 254.429 666.288 254.345C666.027 254.252 665.71 254.173 665.336 254.107C665.028 254.051 664.725 253.977 664.426 253.883C664.128 253.79 663.862 253.669 663.628 253.519C663.395 253.361 663.208 253.169 663.068 252.945C662.938 252.721 662.872 252.446 662.872 252.119C662.872 251.718 662.975 251.363 663.18 251.055C663.386 250.738 663.68 250.491 664.062 250.313C664.454 250.136 664.907 250.047 665.42 250.047C666.176 250.047 666.788 250.229 667.254 250.593C667.721 250.957 667.996 251.485 668.08 252.175H666.918C666.872 251.821 666.718 251.545 666.456 251.349C666.204 251.144 665.854 251.041 665.406 251.041C664.968 251.041 664.632 251.13 664.398 251.307C664.174 251.485 664.062 251.718 664.062 252.007C664.062 252.194 664.123 252.362 664.244 252.511C664.375 252.651 664.562 252.773 664.804 252.875C665.056 252.978 665.364 253.062 665.728 253.127C666.195 253.211 666.62 253.323 667.002 253.463C667.385 253.603 667.693 253.813 667.926 254.093C668.169 254.364 668.29 254.751 668.29 255.255C668.29 255.694 668.178 256.077 667.954 256.403C667.74 256.73 667.432 256.987 667.03 257.173C666.629 257.351 666.158 257.439 665.616 257.439ZM669.816 257.271V250.215H670.992V257.271H669.816ZM670.404 248.717C670.171 248.717 669.975 248.643 669.816 248.493C669.667 248.335 669.592 248.139 669.592 247.905C669.592 247.672 669.667 247.485 669.816 247.345C669.975 247.196 670.171 247.121 670.404 247.121C670.628 247.121 670.819 247.196 670.978 247.345C671.137 247.485 671.216 247.672 671.216 247.905C671.216 248.139 671.137 248.335 670.978 248.493C670.819 248.643 670.628 248.717 670.404 248.717ZM672.787 257.271V250.215H673.851L673.921 251.223C674.145 250.859 674.444 250.575 674.817 250.369C675.2 250.155 675.615 250.047 676.063 250.047C676.427 250.047 676.754 250.099 677.043 250.201C677.342 250.295 677.603 250.444 677.827 250.649C678.051 250.845 678.233 251.097 678.373 251.405C678.616 250.976 678.947 250.645 679.367 250.411C679.796 250.169 680.254 250.047 680.739 250.047C681.28 250.047 681.752 250.159 682.153 250.383C682.564 250.598 682.876 250.929 683.091 251.377C683.315 251.816 683.427 252.376 683.427 253.057V257.271H682.265V253.183C682.265 252.474 682.12 251.942 681.831 251.587C681.542 251.233 681.136 251.055 680.613 251.055C680.249 251.055 679.922 251.153 679.633 251.349C679.344 251.536 679.115 251.811 678.947 252.175C678.779 252.539 678.695 252.987 678.695 253.519V257.271H677.519V253.183C677.519 252.474 677.374 251.942 677.085 251.587C676.796 251.233 676.385 251.055 675.853 251.055C675.498 251.055 675.176 251.153 674.887 251.349C674.607 251.536 674.383 251.811 674.215 252.175C674.047 252.539 673.963 252.987 673.963 253.519V257.271H672.787ZM684.976 260.351V250.215H686.04L686.138 251.363C686.287 251.139 686.479 250.929 686.712 250.733C686.945 250.528 687.225 250.365 687.552 250.243C687.879 250.113 688.252 250.047 688.672 250.047C689.363 250.047 689.96 250.211 690.464 250.537C690.977 250.864 691.374 251.307 691.654 251.867C691.943 252.418 692.088 253.048 692.088 253.757C692.088 254.467 691.943 255.101 691.654 255.661C691.374 256.212 690.977 256.646 690.464 256.963C689.951 257.281 689.349 257.439 688.658 257.439C688.089 257.439 687.585 257.323 687.146 257.089C686.717 256.856 686.385 256.529 686.152 256.109V260.351H684.976ZM688.532 256.417C688.989 256.417 689.395 256.305 689.75 256.081C690.105 255.857 690.38 255.549 690.576 255.157C690.781 254.756 690.884 254.285 690.884 253.743C690.884 253.211 690.781 252.745 690.576 252.343C690.38 251.942 690.105 251.629 689.75 251.405C689.395 251.181 688.989 251.069 688.532 251.069C688.065 251.069 687.655 251.181 687.3 251.405C686.945 251.629 686.67 251.942 686.474 252.343C686.278 252.745 686.18 253.211 686.18 253.743C686.18 254.285 686.278 254.756 686.474 255.157C686.67 255.549 686.945 255.857 687.3 256.081C687.655 256.305 688.065 256.417 688.532 256.417ZM693.46 257.271V247.191H694.636V257.271H693.46ZM697.067 260.351L698.789 256.487H698.383L695.611 250.215H696.885L699.181 255.605L701.589 250.215H702.807L698.299 260.351H697.067ZM710.343 257.439C709.661 257.439 709.064 257.281 708.551 256.963C708.037 256.637 707.641 256.193 707.361 255.633C707.081 255.073 706.941 254.439 706.941 253.729C706.941 253.02 707.081 252.39 707.361 251.839C707.641 251.279 708.037 250.841 708.551 250.523C709.073 250.206 709.675 250.047 710.357 250.047C710.935 250.047 711.439 250.164 711.869 250.397C712.307 250.631 712.643 250.957 712.877 251.377V247.191H714.053V257.271H712.989L712.891 256.109C712.741 256.343 712.55 256.562 712.317 256.767C712.083 256.963 711.803 257.127 711.477 257.257C711.15 257.379 710.772 257.439 710.343 257.439ZM710.483 256.417C710.949 256.417 711.36 256.305 711.715 256.081C712.069 255.857 712.345 255.549 712.541 255.157C712.737 254.756 712.835 254.285 712.835 253.743C712.835 253.211 712.737 252.745 712.541 252.343C712.345 251.942 712.069 251.629 711.715 251.405C711.36 251.181 710.949 251.069 710.483 251.069C710.025 251.069 709.619 251.181 709.265 251.405C708.91 251.629 708.635 251.942 708.439 252.343C708.243 252.745 708.145 253.211 708.145 253.743C708.145 254.285 708.243 254.756 708.439 255.157C708.635 255.549 708.91 255.857 709.265 256.081C709.619 256.305 710.025 256.417 710.483 256.417ZM718.294 257.439C717.753 257.439 717.277 257.332 716.866 257.117C716.465 256.903 716.152 256.571 715.928 256.123C715.713 255.675 715.606 255.115 715.606 254.443V250.215H716.782V254.317C716.782 255.017 716.936 255.545 717.244 255.899C717.552 256.254 717.986 256.431 718.546 256.431C718.938 256.431 719.293 256.338 719.61 256.151C719.927 255.955 720.175 255.68 720.352 255.325C720.539 254.961 720.632 254.518 720.632 253.995V250.215H721.808V257.271H720.744L720.674 256.039C720.459 256.478 720.142 256.823 719.722 257.075C719.302 257.318 718.826 257.439 718.294 257.439ZM723.478 257.271V250.215H724.542L724.612 251.223C724.836 250.859 725.134 250.575 725.508 250.369C725.89 250.155 726.306 250.047 726.754 250.047C727.118 250.047 727.444 250.099 727.734 250.201C728.032 250.295 728.294 250.444 728.518 250.649C728.742 250.845 728.924 251.097 729.064 251.405C729.306 250.976 729.638 250.645 730.058 250.411C730.487 250.169 730.944 250.047 731.43 250.047C731.971 250.047 732.442 250.159 732.844 250.383C733.254 250.598 733.567 250.929 733.782 251.377C734.006 251.816 734.118 252.376 734.118 253.057V257.271H732.956V253.183C732.956 252.474 732.811 251.942 732.522 251.587C732.232 251.233 731.826 251.055 731.304 251.055C730.94 251.055 730.613 251.153 730.324 251.349C730.034 251.536 729.806 251.811 729.638 252.175C729.47 252.539 729.386 252.987 729.386 253.519V257.271H728.21V253.183C728.21 252.474 728.065 251.942 727.776 251.587C727.486 251.233 727.076 251.055 726.544 251.055C726.189 251.055 725.867 251.153 725.578 251.349C725.298 251.536 725.074 251.811 724.906 252.175C724.738 252.539 724.654 252.987 724.654 253.519V257.271H723.478ZM735.666 257.271V250.215H736.73L736.8 251.223C737.024 250.859 737.323 250.575 737.696 250.369C738.079 250.155 738.494 250.047 738.942 250.047C739.306 250.047 739.633 250.099 739.922 250.201C740.221 250.295 740.482 250.444 740.706 250.649C740.93 250.845 741.112 251.097 741.252 251.405C741.495 250.976 741.826 250.645 742.246 250.411C742.676 250.169 743.133 250.047 743.618 250.047C744.16 250.047 744.631 250.159 745.032 250.383C745.443 250.598 745.756 250.929 745.97 251.377C746.194 251.816 746.306 252.376 746.306 253.057V257.271H745.144V253.183C745.144 252.474 745 251.942 744.71 251.587C744.421 251.233 744.015 251.055 743.492 251.055C743.128 251.055 742.802 251.153 742.512 251.349C742.223 251.536 741.994 251.811 741.826 252.175C741.658 252.539 741.574 252.987 741.574 253.519V257.271H740.398V253.183C740.398 252.474 740.254 251.942 739.964 251.587C739.675 251.233 739.264 251.055 738.732 251.055C738.378 251.055 738.056 251.153 737.766 251.349C737.486 251.536 737.262 251.811 737.094 252.175C736.926 252.539 736.842 252.987 736.842 253.519V257.271H735.666ZM748.42 260.351L750.142 256.487H749.736L746.964 250.215H748.238L750.534 255.605L752.942 250.215H754.16L749.652 260.351H748.42Z" fill="#8C8686"/>
<g filter="url(#filter1_d_352_8085)">
<path d="M237.252 271.244L435.547 74.529C435.547 74.529 442.605 68.7668 447.752 65.529C452.673 62.4328 455.252 61.029 461.252 58.2715V263.029C461.252 282.359 445.582 298.029 426.252 298.029H219.752C222.252 292.529 223.979 289.595 227.252 284.529C230.776 279.075 232.752 276.529 237.252 271.244Z" fill="#F4F4F4"/>
</g>
</g>
<g filter="url(#filter2_d_352_8085)">
<path d="M420.216 785.998H100.114C77.4073 785.998 59 804.422 59 827.15V922.676C59 945.404 77.4073 963.828 100.114 963.828H420.216C442.923 963.828 461.329 945.404 461.329 922.676V827.15C461.329 804.422 442.923 785.998 420.216 785.998Z" fill="#A78BFA"/>
<path d="M173.151 895.59V914.218H153.874V895.59H173.151Z" fill="white"/>
<path d="M229.547 914.219L213.343 890.235L199.391 914.219H178.066L202.667 874.553L177.298 837.168H199.391L215.186 860.383L228.805 837.168H250.027L225.758 875.962L251.666 914.219H229.547Z" fill="white"/>
<path d="M311.058 903.765C308.849 907.303 305.679 910.138 301.918 911.939C297.342 914.084 292.327 915.128 287.275 914.988C279.654 915.307 272.143 913.081 265.925 908.659C263.174 906.592 260.924 903.932 259.342 900.876C257.76 897.819 256.886 894.445 256.786 891.004H276.6C276.742 893.6 277.846 896.048 279.698 897.871C281.541 899.591 283.988 900.512 286.507 900.433C287.533 900.494 288.562 900.35 289.533 900.012C290.504 899.673 291.398 899.146 292.165 898.46C292.848 897.798 293.385 896.999 293.742 896.117C294.099 895.234 294.268 894.287 294.238 893.336C294.264 892.432 294.107 891.533 293.777 890.693C293.447 889.852 292.951 889.086 292.318 888.442C290.963 887.069 289.355 885.972 287.583 885.213C285.722 884.393 283.111 883.393 279.749 882.215C275.669 880.869 271.684 879.251 267.82 877.372C264.644 875.734 261.918 873.341 259.883 870.402C257.521 866.845 256.355 862.626 256.555 858.359C256.463 854.131 257.679 849.978 260.037 846.469C262.459 843.041 265.807 840.374 269.688 838.782C274.163 836.961 278.966 836.088 283.794 836.22C291.124 835.815 298.367 837.981 304.274 842.344C306.788 844.392 308.848 846.942 310.32 849.832C311.793 852.722 312.645 855.888 312.824 859.127H292.677C292.453 856.86 291.48 854.733 289.912 853.081C289.112 852.313 288.163 851.717 287.124 851.329C286.085 850.941 284.978 850.77 283.871 850.825C281.951 850.738 280.066 851.358 278.571 852.568C277.882 853.223 277.345 854.021 277 854.907C276.655 855.793 276.51 856.744 276.575 857.693C276.535 859.415 277.179 861.083 278.366 862.33C279.64 863.662 281.174 864.718 282.872 865.431C284.69 866.226 287.301 867.251 290.706 868.481C294.86 869.835 298.907 871.496 302.815 873.451C306.006 875.175 308.757 877.613 310.853 880.575C313.242 884.189 314.425 888.468 314.232 892.798C314.198 896.675 313.1 900.469 311.058 903.765V903.765Z" fill="white"/>
<path d="M343.134 899.947H368.069V914.219H324.549V837.168H343.186L343.134 899.947Z" fill="white"/>
</g>
<g filter="url(#filter3_d_352_8085)">
<path d="M1032.22 0H712.115C689.408 0 671.001 18.4244 671.001 41.152V136.678C671.001 159.405 689.408 177.83 712.115 177.83H1032.22C1054.92 177.83 1073.33 159.405 1073.33 136.678V41.152C1073.33 18.4244 1054.92 0 1032.22 0Z" fill="#A78BFA"/>
<path d="M767.175 110.186V128.763H748.001V110.186H767.175Z" fill="white"/>
<path d="M836.065 58.9912C842.544 64.2394 846.945 71.6244 848.481 79.8238H828.871C827.563 76.4212 825.251 73.4983 822.241 71.4447C819.075 69.3664 815.351 68.303 811.566 68.3956C809.07 68.32 806.591 68.8187 804.318 69.8538C802.046 70.889 800.041 72.4324 798.459 74.3655C794.941 78.9179 793.17 84.5822 793.467 90.3298C793.168 96.054 794.94 101.694 798.459 106.216C800.047 108.139 802.054 109.672 804.326 110.698C806.598 111.724 809.075 112.215 811.566 112.135C815.351 112.228 819.075 111.164 822.241 109.086C825.249 107.074 827.579 104.198 828.923 100.835H848.532C846.964 109.008 842.568 116.366 836.116 121.616C829.194 126.942 820.622 129.663 811.899 129.304C805.028 129.454 798.244 127.745 792.263 124.358C786.66 121.115 782.122 116.306 779.207 110.521C776.052 104.239 774.471 97.2831 774.599 90.2529C774.468 83.2141 776.049 76.2486 779.207 69.9583C782.122 64.1732 786.66 59.3649 792.263 56.1217C798.244 52.734 805.028 51.0256 811.899 51.1764C820.619 50.8762 829.169 53.6407 836.065 58.9912V58.9912Z" fill="white"/>
<path d="M910.893 118.333C908.687 121.857 905.527 124.682 901.78 126.481C897.219 128.618 892.221 129.653 887.188 129.504C879.607 129.812 872.138 127.605 865.94 123.227C863.202 121.167 860.962 118.518 859.385 115.476C857.807 112.433 856.933 109.075 856.826 105.649H876.564C876.7 108.231 877.807 110.665 879.661 112.465C881.495 114.183 883.934 115.104 886.445 115.027C888.504 115.132 890.523 114.434 892.077 113.08C892.752 112.412 893.282 111.612 893.634 110.73C893.986 109.849 894.154 108.904 894.125 107.955C894.149 107.058 893.994 106.165 893.669 105.329C893.343 104.493 892.855 103.731 892.231 103.086C890.886 101.72 889.286 100.631 887.521 99.8835C885.626 99.0379 883.041 98.0382 879.713 96.8851C875.65 95.5473 871.681 93.9382 867.834 92.0681C864.672 90.4316 861.957 88.0482 859.924 85.1241C857.585 81.5764 856.429 77.3778 856.621 73.1317C856.517 68.9221 857.725 64.7847 860.077 61.2938C862.496 57.8835 865.822 55.2203 869.677 53.6066C874.138 51.7999 878.921 50.9278 883.732 51.0442C891.004 50.6587 898.186 52.8041 904.058 57.1167C906.565 59.1506 908.616 61.6888 910.08 64.5668C911.544 67.4448 912.388 70.5984 912.557 73.8236H892.513C892.266 71.5699 891.296 69.4574 889.748 67.8023C888.947 67.0435 888.001 66.4545 886.968 66.0713C885.934 65.6882 884.833 65.5186 883.732 65.5727C881.818 65.4748 879.937 66.0961 878.458 67.315C877.766 67.9672 877.228 68.7657 876.882 69.6522C876.537 70.5386 876.393 71.4907 876.461 72.4398C876.44 73.2891 876.587 74.1346 876.894 74.9265C877.202 75.7183 877.664 76.4408 878.253 77.0522C879.522 78.3895 881.057 79.4456 882.759 80.1526C884.551 80.9469 887.162 81.9724 890.439 83.2023C894.577 84.5346 898.607 86.179 902.497 88.1219C905.686 89.8385 908.43 92.278 910.509 95.2454C912.883 98.8367 914.057 103.089 913.863 107.391C913.882 111.24 912.855 115.022 910.893 118.333V118.333Z" fill="white"/>
<path d="M938.568 52.0449L957.332 109.776L976.097 52.0449H995.937L969.262 128.763H945.3L918.728 52.0449H938.568Z" fill="white"/>
</g>
<defs>
<filter id="filter0_d_352_8085" x="150.252" y="49.2715" width="786" height="1000" filterUnits="userSpaceOnUse" color-interpolation-filters="sRGB">
<feFlood flood-opacity="0" result="BackgroundImageFix"/>
<feColorMatrix in="SourceAlpha" type="matrix" values="0 0 0 0 0 0 0 0 0 0 0 0 0 0 0 0 0 0 127 0" result="hardAlpha"/>
<feOffset dy="68"/>
<feGaussianBlur stdDeviation="29.5"/>
<feComposite in2="hardAlpha" operator="out"/>
<feColorMatrix type="matrix" values="0 0 0 0 0 0 0 0 0 0 0 0 0 0 0 0 0 0 0.25 0"/>
<feBlend mode="normal" in2="BackgroundImageFix" result="effect1_dropShadow_352_8085"/>
<feBlend mode="normal" in="SourceGraphic" in2="effect1_dropShadow_352_8085" result="shape"/>
</filter>
<filter id="filter1_d_352_8085" x="181.752" y="26.2715" width="345.5" height="343.758" filterUnits="userSpaceOnUse" color-interpolation-filters="sRGB">
<feFlood flood-opacity="0" result="BackgroundImageFix"/>
<feColorMatrix in="SourceAlpha" type="matrix" values="0 0 0 0 0 0 0 0 0 0 0 0 0 0 0 0 0 0 127 0" result="hardAlpha"/>
<feOffset dx="14" dy="20"/>
<feGaussianBlur stdDeviation="26"/>
<feComposite in2="hardAlpha" operator="out"/>
<feColorMatrix type="matrix" values="0 0 0 0 0 0 0 0 0 0 0 0 0 0 0 0 0 0 0.35 0"/>
<feBlend mode="normal" in2="BackgroundImageFix" result="effect1_dropShadow_352_8085"/>
<feBlend mode="normal" in="SourceGraphic" in2="effect1_dropShadow_352_8085" result="shape"/>
</filter>
<filter id="filter2_d_352_8085" x="0" y="785.998" width="520.329" height="304.83" filterUnits="userSpaceOnUse" color-interpolation-filters="sRGB">
<feFlood flood-opacity="0" result="BackgroundImageFix"/>
<feColorMatrix in="SourceAlpha" type="matrix" values="0 0 0 0 0 0 0 0 0 0 0 0 0 0 0 0 0 0 127 0" result="hardAlpha"/>
<feOffset dy="68"/>
<feGaussianBlur stdDeviation="29.5"/>
<feComposite in2="hardAlpha" operator="out"/>
<feColorMatrix type="matrix" values="0 0 0 0 0 0 0 0 0 0 0 0 0 0 0 0 0 0 0.25 0"/>
<feBlend mode="normal" in2="BackgroundImageFix" result="effect1_dropShadow_352_8085"/>
<feBlend mode="normal" in="SourceGraphic" in2="effect1_dropShadow_352_8085" result="shape"/>
</filter>
<filter id="filter3_d_352_8085" x="612.001" y="0" width="520.33" height="304.83" filterUnits="userSpaceOnUse" color-interpolation-filters="sRGB">
<feFlood flood-opacity="0" result="BackgroundImageFix"/>
<feColorMatrix in="SourceAlpha" type="matrix" values="0 0 0 0 0 0 0 0 0 0 0 0 0 0 0 0 0 0 127 0" result="hardAlpha"/>
<feOffset dy="68"/>
<feGaussianBlur stdDeviation="29.5"/>
<feComposite in2="hardAlpha" operator="out"/>
<feColorMatrix type="matrix" values="0 0 0 0 0 0 0 0 0 0 0 0 0 0 0 0 0 0 0.25 0"/>
<feBlend mode="normal" in2="BackgroundImageFix" result="effect1_dropShadow_352_8085"/>
<feBlend mode="normal" in="SourceGraphic" in2="effect1_dropShadow_352_8085" result="shape"/>
</filter>
<clipPath id="clip0_352_8085">
<rect x="309.252" y="203.271" width="235" height="34" fill="white"/>
</clipPath>
</defs>
</svg>
