<svg width="1015" height="964" viewBox="0 0 1015 964" fill="none" xmlns="http://www.w3.org/2000/svg">
<path d="M370.842 79.4388C390.322 60.1147 416.648 49.2715 444.087 49.2715L783.252 49.2715C802.582 49.2715 818.252 64.9415 818.252 84.2715V887.272C818.252 906.602 802.582 922.272 783.252 922.272H185.252C165.922 922.272 150.252 906.602 150.252 887.272V341.594C150.252 313.867 161.324 287.288 181.008 267.761L370.842 79.4388Z" fill="#F3F3F3"/>
<path d="M360.988 174.271V160.711H356.092V157.471H369.628V160.711H364.588V174.271H360.988ZM371.334 174.271L377.91 157.471H381.126L387.678 174.271H383.982L380.598 165.223C380.502 164.967 380.382 164.639 380.238 164.239C380.11 163.839 379.974 163.415 379.83 162.967C379.686 162.519 379.55 162.095 379.422 161.695C379.294 161.279 379.198 160.935 379.134 160.663L379.782 160.639C379.686 161.007 379.574 161.391 379.446 161.791C379.334 162.175 379.214 162.575 379.086 162.991C378.958 163.391 378.822 163.783 378.678 164.167C378.534 164.551 378.398 164.927 378.27 165.295L374.886 174.271H371.334ZM374.382 170.743L375.558 167.839H383.262L384.462 170.743H374.382ZM391.957 174.271V157.471H399.253C400.373 157.471 401.317 157.639 402.085 157.975C402.869 158.295 403.461 158.767 403.861 159.391C404.261 160.015 404.461 160.759 404.461 161.623C404.461 162.583 404.221 163.383 403.741 164.023C403.261 164.663 402.573 165.103 401.677 165.343L401.653 164.863C402.389 165.039 403.037 165.327 403.597 165.727C404.157 166.127 404.589 166.623 404.893 167.215C405.197 167.807 405.349 168.479 405.349 169.231C405.349 170.063 405.213 170.799 404.941 171.439C404.669 172.063 404.269 172.583 403.741 172.999C403.213 173.415 402.589 173.735 401.869 173.959C401.165 174.167 400.373 174.271 399.493 174.271H391.957ZM395.413 171.151H399.349C399.861 171.151 400.293 171.079 400.645 170.935C401.013 170.775 401.293 170.535 401.485 170.215C401.677 169.895 401.773 169.519 401.773 169.087C401.773 168.671 401.669 168.319 401.461 168.031C401.253 167.743 400.957 167.527 400.573 167.383C400.205 167.223 399.757 167.143 399.229 167.143H395.413V171.151ZM395.413 164.287H398.821C399.253 164.287 399.629 164.207 399.949 164.047C400.269 163.887 400.509 163.671 400.669 163.399C400.845 163.127 400.933 162.807 400.933 162.439C400.933 161.847 400.741 161.391 400.357 161.071C399.973 160.751 399.397 160.591 398.629 160.591H395.413V164.287ZM410.541 174.271V157.471H421.893V160.639H414.045V171.103H422.061V174.271H410.541ZM412.221 167.239V164.167H420.741V167.239H412.221ZM427.695 174.271V157.471H431.295V171.031H438.903V174.271H427.695ZM453.45 174.271V157.471H460.578C461.57 157.471 462.466 157.711 463.266 158.191C464.082 158.655 464.722 159.295 465.186 160.111C465.666 160.927 465.906 161.847 465.906 162.871C465.906 163.911 465.666 164.847 465.186 165.679C464.722 166.511 464.082 167.175 463.266 167.671C462.466 168.151 461.57 168.391 460.578 168.391H457.05V174.271H453.45ZM457.002 165.151H460.17C460.554 165.151 460.898 165.055 461.202 164.863C461.506 164.655 461.746 164.383 461.922 164.047C462.114 163.711 462.21 163.327 462.21 162.895C462.21 162.463 462.114 162.087 461.922 161.767C461.746 161.431 461.506 161.175 461.202 160.999C460.898 160.807 460.554 160.711 460.17 160.711H457.002V165.151ZM471.049 174.271V157.471H482.401V160.639H474.553V171.103H482.569V174.271H471.049ZM472.729 167.239V164.167H481.249V167.239H472.729ZM490.916 169.303L490.148 166.039L498.644 157.471H503.012L490.916 169.303ZM488.204 174.271V157.471H491.804V174.271H488.204ZM499.1 174.271L492.812 165.919L495.284 163.783L503.372 174.271H499.1ZM507.819 174.271V157.471H519.171V160.639H511.323V171.103H519.339V174.271H507.819ZM509.499 167.239V164.167H518.019V167.239H509.499ZM524.973 174.271V157.471H532.413C533.453 157.471 534.397 157.711 535.245 158.191C536.093 158.655 536.757 159.287 537.237 160.087C537.733 160.887 537.981 161.799 537.981 162.823C537.981 163.831 537.733 164.751 537.237 165.583C536.757 166.399 536.093 167.047 535.245 167.527C534.397 168.007 533.453 168.247 532.413 168.247H528.453V174.271H524.973ZM534.501 174.271L530.229 166.687L533.925 166.087L538.677 174.295L534.501 174.271ZM528.453 165.319H532.245C532.677 165.319 533.053 165.223 533.373 165.031C533.709 164.823 533.965 164.543 534.141 164.191C534.317 163.823 534.405 163.415 534.405 162.967C534.405 162.487 534.301 162.071 534.093 161.719C533.885 161.367 533.581 161.095 533.181 160.903C532.781 160.695 532.317 160.591 531.789 160.591H528.453V165.319ZM547.003 174.511C546.411 174.511 545.851 174.439 545.323 174.295C544.811 174.151 544.331 173.951 543.883 173.695C543.451 173.439 543.059 173.127 542.707 172.759C542.355 172.375 542.059 171.951 541.819 171.487L543.907 169.303C544.179 169.671 544.427 169.983 544.651 170.239C544.891 170.479 545.115 170.671 545.323 170.815C545.547 170.959 545.771 171.063 545.995 171.127C546.219 171.175 546.459 171.199 546.715 171.199C547.163 171.199 547.555 171.095 547.891 170.887C548.243 170.679 548.507 170.391 548.683 170.023C548.875 169.655 548.971 169.231 548.971 168.751V160.663H545.899V157.471H555.091V160.663H552.499V169.159C552.499 169.959 552.363 170.687 552.091 171.343C551.819 171.999 551.435 172.567 550.939 173.047C550.443 173.511 549.859 173.871 549.187 174.127C548.531 174.383 547.803 174.511 547.003 174.511ZM556.892 174.271L563.468 157.471H566.684L573.236 174.271H569.54L566.156 165.223C566.06 164.967 565.94 164.639 565.796 164.239C565.668 163.839 565.532 163.415 565.388 162.967C565.244 162.519 565.108 162.095 564.98 161.695C564.852 161.279 564.756 160.935 564.692 160.663L565.34 160.639C565.244 161.007 565.132 161.391 565.004 161.791C564.892 162.175 564.772 162.575 564.644 162.991C564.516 163.391 564.38 163.783 564.236 164.167C564.092 164.551 563.956 164.927 563.828 165.295L560.444 174.271H556.892ZM559.94 170.743L561.116 167.839H568.82L570.02 170.743H559.94ZM575.523 174.271L582.099 157.471H585.315L591.867 174.271H588.171L584.787 165.223C584.691 164.967 584.571 164.639 584.427 164.239C584.299 163.839 584.163 163.415 584.019 162.967C583.875 162.519 583.739 162.095 583.611 161.695C583.483 161.279 583.387 160.935 583.323 160.663L583.971 160.639C583.875 161.007 583.763 161.391 583.635 161.791C583.523 162.175 583.403 162.575 583.275 162.991C583.147 163.391 583.011 163.783 582.867 164.167C582.723 164.551 582.587 164.927 582.459 165.295L579.075 174.271H575.523ZM578.571 170.743L579.747 167.839H587.451L588.651 170.743H578.571ZM596.146 174.271V157.471H599.362L608.65 170.023H607.978C607.914 169.527 607.858 169.047 607.81 168.583C607.762 168.103 607.714 167.623 607.666 167.143C607.634 166.647 607.602 166.143 607.57 165.631C607.554 165.103 607.538 164.551 607.522 163.975C607.506 163.383 607.498 162.743 607.498 162.055V157.471H611.026V174.271H607.762L598.282 161.599L599.194 161.623C599.274 162.455 599.338 163.167 599.386 163.759C599.45 164.335 599.498 164.839 599.53 165.271C599.562 165.703 599.586 166.079 599.602 166.399C599.634 166.719 599.65 167.023 599.65 167.311C599.666 167.599 599.674 167.903 599.674 168.223V174.271H596.146Z" fill="black"/>
<g clip-path="url(#clip0_348_6443)">
<rect x="250.251" y="203.271" width="235" height="34" fill="#B4AFAF"/>
<path d="M348.731 225.271V216.406H345.656V214.771H353.801V216.406H350.741V225.271H348.731ZM353.118 225.271L356.958 214.771H359.253L363.078 225.271H360.933L358.098 217.081L355.248 225.271H353.118ZM354.813 222.886L355.353 221.311H360.693L361.218 222.886H354.813ZM364.158 225.271V214.771H368.463C369.193 214.771 369.808 214.886 370.308 215.116C370.808 215.346 371.183 215.666 371.433 216.076C371.693 216.476 371.823 216.941 371.823 217.471C371.823 218.001 371.708 218.446 371.478 218.806C371.248 219.166 370.943 219.446 370.563 219.646C370.193 219.836 369.783 219.946 369.333 219.976L369.573 219.811C370.053 219.831 370.478 219.961 370.848 220.201C371.228 220.431 371.523 220.741 371.733 221.131C371.953 221.521 372.063 221.946 372.063 222.406C372.063 222.966 371.928 223.461 371.658 223.891C371.388 224.321 370.998 224.661 370.488 224.911C369.978 225.151 369.353 225.271 368.613 225.271H364.158ZM366.183 223.621H368.283C368.833 223.621 369.258 223.496 369.558 223.246C369.858 222.996 370.008 222.636 370.008 222.166C370.008 221.696 369.853 221.331 369.543 221.071C369.233 220.801 368.803 220.666 368.253 220.666H366.183V223.621ZM366.183 219.151H368.133C368.663 219.151 369.063 219.031 369.333 218.791C369.613 218.551 369.753 218.211 369.753 217.771C369.753 217.341 369.613 217.006 369.333 216.766C369.063 216.516 368.658 216.391 368.118 216.391H366.183V219.151ZM373.424 225.271V214.771H375.449V223.696H380.054V225.271H373.424ZM381.488 225.271V214.771H388.388V216.406H383.513V219.151H387.938V220.726H383.513V223.636H388.388V225.271H381.488Z" fill="#282828"/>
</g>
<rect x="251.251" y="204.271" width="233" height="32" stroke="black" stroke-width="2"/>
<rect x="484.251" y="204.271" width="233" height="32" fill="#B4AFAF"/>
<rect x="484.251" y="204.271" width="233" height="32" stroke="black" stroke-width="2"/>
<rect x="251.251" y="268.271" width="233" height="32" fill="#F3F3F3"/>
<rect x="251.251" y="268.271" width="233" height="32" stroke="black" stroke-width="2"/>
<rect x="484.251" y="268.271" width="233" height="32" fill="#F3F3F3"/>
<rect x="484.251" y="268.271" width="233" height="32" stroke="black" stroke-width="2"/>
<rect x="251.251" y="300.271" width="233" height="32" fill="#F3F3F3"/>
<rect x="251.251" y="300.271" width="233" height="32" stroke="black" stroke-width="2"/>
<rect x="484.251" y="300.271" width="233" height="32" fill="#F3F3F3"/>
<rect x="484.251" y="300.271" width="233" height="32" stroke="black" stroke-width="2"/>
<rect x="251.251" y="332.271" width="233" height="32" fill="#F3F3F3"/>
<rect x="251.251" y="332.271" width="233" height="32" stroke="black" stroke-width="2"/>
<rect x="484.251" y="332.271" width="233" height="32" fill="#F3F3F3"/>
<rect x="484.251" y="332.271" width="233" height="32" stroke="black" stroke-width="2"/>
<rect x="251.251" y="364.271" width="233" height="32" fill="#F3F3F3"/>
<rect x="251.251" y="364.271" width="233" height="32" stroke="black" stroke-width="2"/>
<rect x="484.251" y="364.271" width="233" height="32" fill="#F3F3F3"/>
<rect x="484.251" y="364.271" width="233" height="32" stroke="black" stroke-width="2"/>
<rect x="251.251" y="396.271" width="233" height="32" fill="#F3F3F3"/>
<rect x="251.251" y="396.271" width="233" height="32" stroke="black" stroke-width="2"/>
<rect x="484.251" y="396.271" width="233" height="32" fill="#F3F3F3"/>
<rect x="484.251" y="396.271" width="233" height="32" stroke="black" stroke-width="2"/>
<rect x="251.251" y="428.271" width="233" height="32" fill="#F3F3F3"/>
<rect x="251.251" y="428.271" width="233" height="32" stroke="black" stroke-width="2"/>
<rect x="484.251" y="428.271" width="233" height="32" fill="#F3F3F3"/>
<rect x="484.251" y="428.271" width="233" height="32" stroke="black" stroke-width="2"/>
<rect x="251.251" y="460.271" width="233" height="32" fill="#F3F3F3"/>
<rect x="251.251" y="460.271" width="233" height="32" stroke="black" stroke-width="2"/>
<rect x="484.251" y="460.271" width="233" height="32" fill="#F3F3F3"/>
<rect x="484.251" y="460.271" width="233" height="32" stroke="black" stroke-width="2"/>
<rect x="251.251" y="492.271" width="233" height="32" fill="#F3F3F3"/>
<rect x="251.251" y="492.271" width="233" height="32" stroke="black" stroke-width="2"/>
<rect x="484.251" y="492.271" width="233" height="32" fill="#F3F3F3"/>
<rect x="484.251" y="492.271" width="233" height="32" stroke="black" stroke-width="2"/>
<rect x="251.251" y="524.271" width="233" height="32" fill="#F3F3F3"/>
<rect x="251.251" y="524.271" width="233" height="32" stroke="black" stroke-width="2"/>
<rect x="484.251" y="524.271" width="233" height="32" fill="#F3F3F3"/>
<rect x="484.251" y="524.271" width="233" height="32" stroke="black" stroke-width="2"/>
<rect x="251.251" y="556.271" width="233" height="32" fill="#F3F3F3"/>
<rect x="251.251" y="556.271" width="233" height="32" stroke="black" stroke-width="2"/>
<rect x="484.251" y="556.271" width="233" height="32" fill="#F3F3F3"/>
<rect x="484.251" y="556.271" width="233" height="32" stroke="black" stroke-width="2"/>
<rect x="251.251" y="588.271" width="233" height="32" fill="#F3F3F3"/>
<rect x="251.251" y="588.271" width="233" height="32" stroke="black" stroke-width="2"/>
<rect x="484.251" y="588.271" width="233" height="32" fill="#F3F3F3"/>
<rect x="484.251" y="588.271" width="233" height="32" stroke="black" stroke-width="2"/>
<rect x="251.251" y="620.271" width="233" height="32" fill="#F3F3F3"/>
<rect x="251.251" y="620.271" width="233" height="32" stroke="black" stroke-width="2"/>
<rect x="484.251" y="620.271" width="233" height="32" fill="#F3F3F3"/>
<rect x="484.251" y="620.271" width="233" height="32" stroke="black" stroke-width="2"/>
<rect x="251.251" y="652.271" width="233" height="32" fill="#F3F3F3"/>
<rect x="251.251" y="652.271" width="233" height="32" stroke="black" stroke-width="2"/>
<rect x="484.251" y="652.271" width="233" height="32" fill="#F3F3F3"/>
<rect x="484.251" y="652.271" width="233" height="32" stroke="black" stroke-width="2"/>
<rect x="251.251" y="684.271" width="233" height="32" fill="#F3F3F3"/>
<rect x="251.251" y="684.271" width="233" height="32" stroke="black" stroke-width="2"/>
<rect x="484.251" y="684.271" width="233" height="32" fill="#F3F3F3"/>
<rect x="484.251" y="684.271" width="233" height="32" stroke="black" stroke-width="2"/>
<rect x="251.251" y="716.271" width="233" height="32" fill="#F3F3F3"/>
<rect x="251.251" y="716.271" width="233" height="32" stroke="black" stroke-width="2"/>
<rect x="484.251" y="716.271" width="233" height="32" fill="#F3F3F3"/>
<rect x="484.251" y="716.271" width="233" height="32" stroke="black" stroke-width="2"/>
<rect x="251.251" y="748.271" width="233" height="32" fill="#F3F3F3"/>
<rect x="251.251" y="748.271" width="233" height="32" stroke="black" stroke-width="2"/>
<rect x="484.251" y="748.271" width="233" height="32" fill="#F3F3F3"/>
<rect x="484.251" y="748.271" width="233" height="32" stroke="black" stroke-width="2"/>
<rect x="251.251" y="780.271" width="233" height="32" fill="#F3F3F3"/>
<rect x="251.251" y="780.271" width="233" height="32" stroke="black" stroke-width="2"/>
<rect x="484.251" y="780.271" width="233" height="32" fill="#F3F3F3"/>
<rect x="484.251" y="780.271" width="233" height="32" stroke="black" stroke-width="2"/>
<rect x="484.251" y="236.271" width="233" height="32" fill="#F3F3F3"/>
<rect x="484.251" y="236.271" width="233" height="32" stroke="black" stroke-width="2"/>
<rect x="251.251" y="236.271" width="116" height="32" fill="#E5E5E5"/>
<rect x="251.251" y="236.271" width="116" height="32" stroke="black" stroke-width="2"/>
<rect x="367.251" y="236.271" width="117" height="32" fill="#E5E5E5"/>
<rect x="367.251" y="236.271" width="117" height="32" stroke="black" stroke-width="2"/>
<path d="M406.28 257.271V246.771H407.54V257.271H406.28ZM409.391 260.571V249.726H410.531L410.651 250.956C410.811 250.716 411.016 250.491 411.266 250.281C411.516 250.061 411.816 249.886 412.166 249.756C412.516 249.616 412.921 249.546 413.381 249.546C414.111 249.546 414.746 249.721 415.286 250.071C415.836 250.411 416.261 250.881 416.561 251.481C416.871 252.071 417.026 252.751 417.026 253.521C417.026 254.281 416.871 254.956 416.561 255.546C416.261 256.136 415.836 256.601 415.286 256.941C414.736 257.281 414.096 257.451 413.366 257.451C412.756 257.451 412.216 257.326 411.746 257.076C411.276 256.826 410.911 256.476 410.651 256.026V260.571H409.391ZM413.216 256.356C413.706 256.356 414.141 256.241 414.521 256.011C414.911 255.771 415.211 255.436 415.421 255.006C415.641 254.576 415.751 254.076 415.751 253.506C415.751 252.926 415.641 252.426 415.421 252.006C415.211 251.576 414.911 251.241 414.521 251.001C414.141 250.761 413.706 250.641 413.216 250.641C412.716 250.641 412.276 250.761 411.896 251.001C411.516 251.241 411.221 251.576 411.011 252.006C410.801 252.426 410.696 252.926 410.696 253.506C410.696 254.076 410.801 254.576 411.011 255.006C411.221 255.436 411.516 255.771 411.896 256.011C412.276 256.241 412.716 256.356 413.216 256.356ZM421.345 257.451C420.735 257.451 420.195 257.351 419.725 257.151C419.255 256.941 418.88 256.646 418.6 256.266C418.33 255.886 418.16 255.441 418.09 254.931H419.38C419.44 255.191 419.55 255.436 419.71 255.666C419.87 255.886 420.085 256.061 420.355 256.191C420.635 256.321 420.97 256.386 421.36 256.386C421.72 256.386 422.015 256.336 422.245 256.236C422.475 256.126 422.645 255.981 422.755 255.801C422.865 255.621 422.92 255.426 422.92 255.216C422.92 254.916 422.845 254.686 422.695 254.526C422.555 254.356 422.345 254.226 422.065 254.136C421.795 254.046 421.46 253.966 421.06 253.896C420.73 253.836 420.405 253.756 420.085 253.656C419.775 253.546 419.495 253.411 419.245 253.251C418.995 253.091 418.795 252.891 418.645 252.651C418.495 252.401 418.42 252.106 418.42 251.766C418.42 251.336 418.53 250.956 418.75 250.626C418.98 250.286 419.295 250.021 419.695 249.831C420.105 249.641 420.59 249.546 421.15 249.546C421.95 249.546 422.6 249.741 423.1 250.131C423.61 250.521 423.905 251.086 423.985 251.826H422.74C422.7 251.446 422.54 251.151 422.26 250.941C421.98 250.721 421.605 250.611 421.135 250.611C420.665 250.611 420.305 250.706 420.055 250.896C419.815 251.086 419.695 251.336 419.695 251.646C419.695 251.846 419.76 252.026 419.89 252.186C420.03 252.336 420.235 252.466 420.505 252.576C420.775 252.676 421.1 252.766 421.48 252.846C421.98 252.936 422.435 253.056 422.845 253.206C423.255 253.346 423.585 253.566 423.835 253.866C424.095 254.156 424.22 254.571 424.21 255.111C424.22 255.581 424.105 255.991 423.865 256.341C423.635 256.691 423.305 256.966 422.875 257.166C422.445 257.356 421.935 257.451 421.345 257.451ZM428.47 257.451C427.89 257.451 427.38 257.336 426.94 257.106C426.51 256.876 426.175 256.521 425.935 256.041C425.705 255.561 425.59 254.956 425.59 254.226V249.726H426.85V254.091C426.85 254.851 427.015 255.421 427.345 255.801C427.675 256.181 428.145 256.371 428.755 256.371C429.175 256.371 429.555 256.271 429.895 256.071C430.235 255.861 430.5 255.561 430.69 255.171C430.89 254.781 430.99 254.306 430.99 253.746V249.726H432.25V257.271H431.11L431.035 255.951C430.795 256.421 430.45 256.791 430 257.061C429.55 257.321 429.04 257.451 428.47 257.451ZM434.023 257.271V249.726H435.163L435.253 250.806C435.493 250.406 435.813 250.096 436.213 249.876C436.613 249.656 437.058 249.546 437.548 249.546C437.938 249.546 438.288 249.601 438.598 249.711C438.918 249.811 439.198 249.971 439.438 250.191C439.688 250.401 439.888 250.671 440.038 251.001C440.298 250.541 440.653 250.186 441.103 249.936C441.563 249.676 442.048 249.546 442.558 249.546C443.148 249.546 443.658 249.666 444.088 249.906C444.528 250.136 444.863 250.491 445.093 250.971C445.333 251.441 445.453 252.041 445.453 252.771V257.271H444.208V252.906C444.208 252.146 444.053 251.576 443.743 251.196C443.433 250.816 442.993 250.626 442.423 250.626C442.033 250.626 441.683 250.731 441.373 250.941C441.063 251.141 440.818 251.436 440.638 251.826C440.458 252.216 440.368 252.696 440.368 253.266V257.271H439.108V252.906C439.108 252.146 438.953 251.576 438.643 251.196C438.333 250.816 437.898 250.626 437.338 250.626C436.958 250.626 436.608 250.731 436.288 250.941C435.978 251.141 435.733 251.436 435.553 251.826C435.373 252.216 435.283 252.696 435.283 253.266V257.271H434.023Z" fill="#8C8686"/>
<path d="M289.672 257.271V246.771H290.932V256.266H295.822V257.271H289.672ZM300.246 257.451C299.546 257.451 298.916 257.291 298.356 256.971C297.796 256.641 297.351 256.181 297.021 255.591C296.701 254.991 296.541 254.296 296.541 253.506C296.541 252.696 296.706 251.996 297.036 251.406C297.366 250.816 297.811 250.361 298.371 250.041C298.941 249.711 299.576 249.546 300.276 249.546C300.986 249.546 301.621 249.711 302.181 250.041C302.741 250.361 303.181 250.816 303.501 251.406C303.821 251.996 303.981 252.696 303.981 253.506C303.981 254.306 303.816 255.001 303.486 255.591C303.166 256.181 302.721 256.641 302.151 256.971C301.591 257.291 300.956 257.451 300.246 257.451ZM300.246 256.371C300.686 256.371 301.091 256.266 301.461 256.056C301.831 255.836 302.126 255.516 302.346 255.096C302.576 254.666 302.691 254.136 302.691 253.506C302.691 252.856 302.581 252.321 302.361 251.901C302.141 251.481 301.846 251.166 301.476 250.956C301.106 250.736 300.706 250.626 300.276 250.626C299.856 250.626 299.456 250.736 299.076 250.956C298.706 251.166 298.406 251.486 298.176 251.916C297.946 252.336 297.831 252.866 297.831 253.506C297.831 254.136 297.946 254.666 298.176 255.096C298.406 255.516 298.701 255.836 299.061 256.056C299.431 256.266 299.826 256.371 300.246 256.371ZM305.447 257.271V249.726H306.587L306.692 251.166C306.862 250.826 307.077 250.536 307.337 250.296C307.607 250.056 307.927 249.871 308.297 249.741C308.677 249.611 309.102 249.546 309.572 249.546V250.866H309.122C308.802 250.866 308.497 250.911 308.207 251.001C307.917 251.081 307.657 251.216 307.427 251.406C307.207 251.596 307.032 251.856 306.902 252.186C306.772 252.506 306.707 252.906 306.707 253.386V257.271H305.447ZM313.736 257.451C313.036 257.451 312.411 257.286 311.861 256.956C311.311 256.626 310.876 256.166 310.556 255.576C310.246 254.986 310.091 254.296 310.091 253.506C310.091 252.706 310.246 252.011 310.556 251.421C310.866 250.831 311.296 250.371 311.846 250.041C312.406 249.711 313.046 249.546 313.766 249.546C314.506 249.546 315.136 249.711 315.656 250.041C316.176 250.371 316.571 250.806 316.841 251.346C317.121 251.876 317.261 252.456 317.261 253.086C317.261 253.186 317.261 253.296 317.261 253.416C317.261 253.526 317.256 253.651 317.246 253.791H311.036V252.816H316.016C315.986 252.116 315.756 251.576 315.326 251.196C314.906 250.806 314.376 250.611 313.736 250.611C313.316 250.611 312.921 250.711 312.551 250.911C312.181 251.101 311.881 251.381 311.651 251.751C311.431 252.121 311.321 252.591 311.321 253.161V253.581C311.321 254.201 311.436 254.721 311.666 255.141C311.896 255.551 312.191 255.861 312.551 256.071C312.921 256.281 313.316 256.386 313.736 256.386C314.266 256.386 314.701 256.271 315.041 256.041C315.391 255.801 315.646 255.476 315.806 255.066H317.051C316.921 255.526 316.706 255.936 316.406 256.296C316.106 256.646 315.731 256.926 315.281 257.136C314.841 257.346 314.326 257.451 313.736 257.451ZM318.631 257.271V249.726H319.771L319.861 250.806C320.101 250.406 320.421 250.096 320.821 249.876C321.221 249.656 321.666 249.546 322.156 249.546C322.546 249.546 322.896 249.601 323.206 249.711C323.526 249.811 323.806 249.971 324.046 250.191C324.296 250.401 324.496 250.671 324.646 251.001C324.906 250.541 325.261 250.186 325.711 249.936C326.171 249.676 326.656 249.546 327.166 249.546C327.756 249.546 328.266 249.666 328.696 249.906C329.136 250.136 329.471 250.491 329.701 250.971C329.941 251.441 330.061 252.041 330.061 252.771V257.271H328.816V252.906C328.816 252.146 328.661 251.576 328.351 251.196C328.041 250.816 327.601 250.626 327.031 250.626C326.641 250.626 326.291 250.731 325.981 250.941C325.671 251.141 325.426 251.436 325.246 251.826C325.066 252.216 324.976 252.696 324.976 253.266V257.271H323.716V252.906C323.716 252.146 323.561 251.576 323.251 251.196C322.941 250.816 322.506 250.626 321.946 250.626C321.566 250.626 321.216 250.731 320.896 250.941C320.586 251.141 320.341 251.436 320.161 251.826C319.981 252.216 319.891 252.696 319.891 253.266V257.271H318.631Z" fill="#8C8686"/>
<path d="M506.384 257.271V247.471H507.56V256.333H512.124V257.271H506.384ZM516.266 257.439C515.613 257.439 515.025 257.29 514.502 256.991C513.98 256.683 513.569 256.254 513.27 255.703C512.972 255.143 512.822 254.495 512.822 253.757C512.822 253.001 512.972 252.348 513.27 251.797C513.578 251.237 513.994 250.808 514.516 250.509C515.048 250.201 515.641 250.047 516.294 250.047C516.966 250.047 517.559 250.201 518.072 250.509C518.595 250.808 519.006 251.237 519.304 251.797C519.612 252.348 519.766 252.997 519.766 253.743C519.766 254.49 519.612 255.143 519.304 255.703C518.996 256.254 518.581 256.683 518.058 256.991C517.536 257.29 516.938 257.439 516.266 257.439ZM516.28 256.431C516.682 256.431 517.055 256.333 517.4 256.137C517.746 255.932 518.026 255.629 518.24 255.227C518.455 254.826 518.562 254.331 518.562 253.743C518.562 253.146 518.455 252.651 518.24 252.259C518.035 251.858 517.76 251.559 517.414 251.363C517.078 251.158 516.705 251.055 516.294 251.055C515.902 251.055 515.529 251.158 515.174 251.363C514.829 251.559 514.549 251.858 514.334 252.259C514.129 252.651 514.026 253.146 514.026 253.743C514.026 254.331 514.129 254.826 514.334 255.227C514.549 255.629 514.824 255.932 515.16 256.137C515.506 256.333 515.879 256.431 516.28 256.431ZM521.135 257.271V250.215H522.199L522.283 251.559C522.442 251.242 522.642 250.971 522.885 250.747C523.137 250.523 523.436 250.351 523.781 250.229C524.136 250.108 524.537 250.047 524.985 250.047V251.279H524.551C524.252 251.279 523.968 251.321 523.697 251.405C523.426 251.48 523.184 251.606 522.969 251.783C522.764 251.961 522.6 252.203 522.479 252.511C522.367 252.81 522.311 253.183 522.311 253.631V257.271H521.135ZM528.871 257.439C528.208 257.439 527.62 257.285 527.107 256.977C526.603 256.669 526.206 256.24 525.917 255.689C525.628 255.129 525.483 254.481 525.483 253.743C525.483 252.997 525.623 252.348 525.903 251.797C526.192 251.247 526.594 250.817 527.107 250.509C527.63 250.201 528.227 250.047 528.899 250.047C529.59 250.047 530.173 250.201 530.649 250.509C531.134 250.817 531.503 251.223 531.755 251.727C532.016 252.222 532.147 252.768 532.147 253.365C532.147 253.459 532.147 253.557 532.147 253.659C532.147 253.762 532.142 253.879 532.133 254.009H526.365V253.099H530.999C530.971 252.455 530.756 251.951 530.355 251.587C529.963 251.223 529.468 251.041 528.871 251.041C528.47 251.041 528.096 251.135 527.751 251.321C527.415 251.499 527.144 251.765 526.939 252.119C526.734 252.465 526.631 252.899 526.631 253.421V253.813C526.631 254.392 526.734 254.877 526.939 255.269C527.154 255.661 527.429 255.955 527.765 256.151C528.11 256.347 528.479 256.445 528.871 256.445C529.366 256.445 529.772 256.338 530.089 256.123C530.416 255.899 530.649 255.601 530.789 255.227H531.951C531.839 255.647 531.643 256.025 531.363 256.361C531.083 256.697 530.733 256.963 530.313 257.159C529.902 257.346 529.422 257.439 528.871 257.439ZM533.454 257.271V250.215H534.518L534.588 251.223C534.812 250.859 535.111 250.575 535.484 250.369C535.867 250.155 536.282 250.047 536.73 250.047C537.094 250.047 537.421 250.099 537.71 250.201C538.009 250.295 538.27 250.444 538.494 250.649C538.718 250.845 538.9 251.097 539.04 251.405C539.283 250.976 539.614 250.645 540.034 250.411C540.463 250.169 540.921 250.047 541.406 250.047C541.947 250.047 542.419 250.159 542.82 250.383C543.231 250.598 543.543 250.929 543.758 251.377C543.982 251.816 544.094 252.376 544.094 253.057V257.271H542.932V253.183C542.932 252.474 542.787 251.942 542.498 251.587C542.209 251.233 541.803 251.055 541.28 251.055C540.916 251.055 540.589 251.153 540.3 251.349C540.011 251.536 539.782 251.811 539.614 252.175C539.446 252.539 539.362 252.987 539.362 253.519V257.271H538.186V253.183C538.186 252.474 538.041 251.942 537.752 251.587C537.463 251.233 537.052 251.055 536.52 251.055C536.165 251.055 535.843 251.153 535.554 251.349C535.274 251.536 535.05 251.811 534.882 252.175C534.714 252.539 534.63 252.987 534.63 253.519V257.271H533.454ZM549.151 257.271V247.471H550.327V257.271H549.151ZM552.083 260.351V250.215H553.147L553.245 251.363C553.394 251.139 553.585 250.929 553.819 250.733C554.052 250.528 554.332 250.365 554.659 250.243C554.985 250.113 555.359 250.047 555.779 250.047C556.469 250.047 557.067 250.211 557.571 250.537C558.084 250.864 558.481 251.307 558.761 251.867C559.05 252.418 559.195 253.048 559.195 253.757C559.195 254.467 559.05 255.101 558.761 255.661C558.481 256.212 558.084 256.646 557.571 256.963C557.057 257.281 556.455 257.439 555.765 257.439C555.195 257.439 554.691 257.323 554.253 257.089C553.823 256.856 553.492 256.529 553.259 256.109V260.351H552.083ZM555.639 256.417C556.096 256.417 556.502 256.305 556.857 256.081C557.211 255.857 557.487 255.549 557.683 255.157C557.888 254.756 557.991 254.285 557.991 253.743C557.991 253.211 557.888 252.745 557.683 252.343C557.487 251.942 557.211 251.629 556.857 251.405C556.502 251.181 556.096 251.069 555.639 251.069C555.172 251.069 554.761 251.181 554.407 251.405C554.052 251.629 553.777 251.942 553.581 252.343C553.385 252.745 553.287 253.211 553.287 253.743C553.287 254.285 553.385 254.756 553.581 255.157C553.777 255.549 554.052 255.857 554.407 256.081C554.761 256.305 555.172 256.417 555.639 256.417ZM563.226 257.439C562.638 257.439 562.125 257.341 561.686 257.145C561.257 256.949 560.912 256.679 560.65 256.333C560.398 255.979 560.244 255.563 560.188 255.087H561.392C561.439 255.33 561.537 255.554 561.686 255.759C561.836 255.965 562.036 256.133 562.288 256.263C562.55 256.385 562.867 256.445 563.24 256.445C563.567 256.445 563.838 256.399 564.052 256.305C564.267 256.203 564.426 256.067 564.528 255.899C564.64 255.731 564.696 255.549 564.696 255.353C564.696 255.064 564.626 254.845 564.486 254.695C564.356 254.546 564.16 254.429 563.898 254.345C563.637 254.252 563.32 254.173 562.946 254.107C562.638 254.051 562.335 253.977 562.036 253.883C561.738 253.79 561.472 253.669 561.238 253.519C561.005 253.361 560.818 253.169 560.678 252.945C560.548 252.721 560.482 252.446 560.482 252.119C560.482 251.718 560.585 251.363 560.79 251.055C560.996 250.738 561.29 250.491 561.672 250.313C562.064 250.136 562.517 250.047 563.03 250.047C563.786 250.047 564.398 250.229 564.864 250.593C565.331 250.957 565.606 251.485 565.69 252.175H564.528C564.482 251.821 564.328 251.545 564.066 251.349C563.814 251.144 563.464 251.041 563.016 251.041C562.578 251.041 562.242 251.13 562.008 251.307C561.784 251.485 561.672 251.718 561.672 252.007C561.672 252.194 561.733 252.362 561.854 252.511C561.985 252.651 562.172 252.773 562.414 252.875C562.666 252.978 562.974 253.062 563.338 253.127C563.805 253.211 564.23 253.323 564.612 253.463C564.995 253.603 565.303 253.813 565.536 254.093C565.779 254.364 565.9 254.751 565.9 255.255C565.9 255.694 565.788 256.077 565.564 256.403C565.35 256.73 565.042 256.987 564.64 257.173C564.239 257.351 563.768 257.439 563.226 257.439ZM569.876 257.439C569.334 257.439 568.858 257.332 568.448 257.117C568.046 256.903 567.734 256.571 567.51 256.123C567.295 255.675 567.188 255.115 567.188 254.443V250.215H568.364V254.317C568.364 255.017 568.518 255.545 568.826 255.899C569.134 256.254 569.568 256.431 570.128 256.431C570.52 256.431 570.874 256.338 571.192 256.151C571.509 255.955 571.756 255.68 571.934 255.325C572.12 254.961 572.214 254.518 572.214 253.995V250.215H573.39V257.271H572.326L572.256 256.039C572.041 256.478 571.724 256.823 571.304 257.075C570.884 257.318 570.408 257.439 569.876 257.439ZM575.059 257.271V250.215H576.123L576.193 251.223C576.417 250.859 576.716 250.575 577.089 250.369C577.472 250.155 577.887 250.047 578.335 250.047C578.699 250.047 579.026 250.099 579.315 250.201C579.614 250.295 579.875 250.444 580.099 250.649C580.323 250.845 580.505 251.097 580.645 251.405C580.888 250.976 581.219 250.645 581.639 250.411C582.068 250.169 582.526 250.047 583.011 250.047C583.552 250.047 584.024 250.159 584.425 250.383C584.836 250.598 585.148 250.929 585.363 251.377C585.587 251.816 585.699 252.376 585.699 253.057V257.271H584.537V253.183C584.537 252.474 584.392 251.942 584.103 251.587C583.814 251.233 583.408 251.055 582.885 251.055C582.521 251.055 582.194 251.153 581.905 251.349C581.616 251.536 581.387 251.811 581.219 252.175C581.051 252.539 580.967 252.987 580.967 253.519V257.271H579.791V253.183C579.791 252.474 579.646 251.942 579.357 251.587C579.068 251.233 578.657 251.055 578.125 251.055C577.77 251.055 577.448 251.153 577.159 251.349C576.879 251.536 576.655 251.811 576.487 252.175C576.319 252.539 576.235 252.987 576.235 253.519V257.271H575.059ZM590.799 257.271V250.215H591.975V257.271H590.799ZM591.387 248.717C591.153 248.717 590.957 248.643 590.799 248.493C590.649 248.335 590.575 248.139 590.575 247.905C590.575 247.672 590.649 247.485 590.799 247.345C590.957 247.196 591.153 247.121 591.387 247.121C591.611 247.121 591.802 247.196 591.961 247.345C592.119 247.485 592.199 247.672 592.199 247.905C592.199 248.139 592.119 248.335 591.961 248.493C591.802 248.643 591.611 248.717 591.387 248.717ZM596.43 257.439C595.842 257.439 595.329 257.341 594.89 257.145C594.461 256.949 594.115 256.679 593.854 256.333C593.602 255.979 593.448 255.563 593.392 255.087H594.596C594.643 255.33 594.741 255.554 594.89 255.759C595.039 255.965 595.24 256.133 595.492 256.263C595.753 256.385 596.071 256.445 596.444 256.445C596.771 256.445 597.041 256.399 597.256 256.305C597.471 256.203 597.629 256.067 597.732 255.899C597.844 255.731 597.9 255.549 597.9 255.353C597.9 255.064 597.83 254.845 597.69 254.695C597.559 254.546 597.363 254.429 597.102 254.345C596.841 254.252 596.523 254.173 596.15 254.107C595.842 254.051 595.539 253.977 595.24 253.883C594.941 253.79 594.675 253.669 594.442 253.519C594.209 253.361 594.022 253.169 593.882 252.945C593.751 252.721 593.686 252.446 593.686 252.119C593.686 251.718 593.789 251.363 593.994 251.055C594.199 250.738 594.493 250.491 594.876 250.313C595.268 250.136 595.721 250.047 596.234 250.047C596.99 250.047 597.601 250.229 598.068 250.593C598.535 250.957 598.81 251.485 598.894 252.175H597.732C597.685 251.821 597.531 251.545 597.27 251.349C597.018 251.144 596.668 251.041 596.22 251.041C595.781 251.041 595.445 251.13 595.212 251.307C594.988 251.485 594.876 251.718 594.876 252.007C594.876 252.194 594.937 252.362 595.058 252.511C595.189 252.651 595.375 252.773 595.618 252.875C595.87 252.978 596.178 253.062 596.542 253.127C597.009 253.211 597.433 253.323 597.816 253.463C598.199 253.603 598.507 253.813 598.74 254.093C598.983 254.364 599.104 254.751 599.104 255.255C599.104 255.694 598.992 256.077 598.768 256.403C598.553 256.73 598.245 256.987 597.844 257.173C597.443 257.351 596.971 257.439 596.43 257.439ZM606.616 257.439C606.028 257.439 605.515 257.341 605.076 257.145C604.647 256.949 604.301 256.679 604.04 256.333C603.788 255.979 603.634 255.563 603.578 255.087H604.782C604.829 255.33 604.927 255.554 605.076 255.759C605.225 255.965 605.426 256.133 605.678 256.263C605.939 256.385 606.257 256.445 606.63 256.445C606.957 256.445 607.227 256.399 607.442 256.305C607.657 256.203 607.815 256.067 607.918 255.899C608.03 255.731 608.086 255.549 608.086 255.353C608.086 255.064 608.016 254.845 607.876 254.695C607.745 254.546 607.549 254.429 607.288 254.345C607.027 254.252 606.709 254.173 606.336 254.107C606.028 254.051 605.725 253.977 605.426 253.883C605.127 253.79 604.861 253.669 604.628 253.519C604.395 253.361 604.208 253.169 604.068 252.945C603.937 252.721 603.872 252.446 603.872 252.119C603.872 251.718 603.975 251.363 604.18 251.055C604.385 250.738 604.679 250.491 605.062 250.313C605.454 250.136 605.907 250.047 606.42 250.047C607.176 250.047 607.787 250.229 608.254 250.593C608.721 250.957 608.996 251.485 609.08 252.175H607.918C607.871 251.821 607.717 251.545 607.456 251.349C607.204 251.144 606.854 251.041 606.406 251.041C605.967 251.041 605.631 251.13 605.398 251.307C605.174 251.485 605.062 251.718 605.062 252.007C605.062 252.194 605.123 252.362 605.244 252.511C605.375 252.651 605.561 252.773 605.804 252.875C606.056 252.978 606.364 253.062 606.728 253.127C607.195 253.211 607.619 253.323 608.002 253.463C608.385 253.603 608.693 253.813 608.926 254.093C609.169 254.364 609.29 254.751 609.29 255.255C609.29 255.694 609.178 256.077 608.954 256.403C608.739 256.73 608.431 256.987 608.03 257.173C607.629 257.351 607.157 257.439 606.616 257.439ZM610.815 257.271V250.215H611.991V257.271H610.815ZM611.403 248.717C611.17 248.717 610.974 248.643 610.815 248.493C610.666 248.335 610.591 248.139 610.591 247.905C610.591 247.672 610.666 247.485 610.815 247.345C610.974 247.196 611.17 247.121 611.403 247.121C611.627 247.121 611.819 247.196 611.977 247.345C612.136 247.485 612.215 247.672 612.215 247.905C612.215 248.139 612.136 248.335 611.977 248.493C611.819 248.643 611.627 248.717 611.403 248.717ZM613.787 257.271V250.215H614.851L614.921 251.223C615.145 250.859 615.443 250.575 615.817 250.369C616.199 250.155 616.615 250.047 617.063 250.047C617.427 250.047 617.753 250.099 618.043 250.201C618.341 250.295 618.603 250.444 618.827 250.649C619.051 250.845 619.233 251.097 619.373 251.405C619.615 250.976 619.947 250.645 620.367 250.411C620.796 250.169 621.253 250.047 621.739 250.047C622.28 250.047 622.751 250.159 623.153 250.383C623.563 250.598 623.876 250.929 624.091 251.377C624.315 251.816 624.427 252.376 624.427 253.057V257.271H623.265V253.183C623.265 252.474 623.12 251.942 622.831 251.587C622.541 251.233 622.135 251.055 621.613 251.055C621.249 251.055 620.922 251.153 620.633 251.349C620.343 251.536 620.115 251.811 619.947 252.175C619.779 252.539 619.695 252.987 619.695 253.519V257.271H618.519V253.183C618.519 252.474 618.374 251.942 618.085 251.587C617.795 251.233 617.385 251.055 616.853 251.055C616.498 251.055 616.176 251.153 615.887 251.349C615.607 251.536 615.383 251.811 615.215 252.175C615.047 252.539 614.963 252.987 614.963 253.519V257.271H613.787ZM625.975 260.351V250.215H627.039L627.137 251.363C627.287 251.139 627.478 250.929 627.711 250.733C627.945 250.528 628.225 250.365 628.551 250.243C628.878 250.113 629.251 250.047 629.671 250.047C630.362 250.047 630.959 250.211 631.463 250.537C631.977 250.864 632.373 251.307 632.653 251.867C632.943 252.418 633.087 253.048 633.087 253.757C633.087 254.467 632.943 255.101 632.653 255.661C632.373 256.212 631.977 256.646 631.463 256.963C630.95 257.281 630.348 257.439 629.657 257.439C629.088 257.439 628.584 257.323 628.145 257.089C627.716 256.856 627.385 256.529 627.151 256.109V260.351H625.975ZM629.531 256.417C629.989 256.417 630.395 256.305 630.749 256.081C631.104 255.857 631.379 255.549 631.575 255.157C631.781 254.756 631.883 254.285 631.883 253.743C631.883 253.211 631.781 252.745 631.575 252.343C631.379 251.942 631.104 251.629 630.749 251.405C630.395 251.181 629.989 251.069 629.531 251.069C629.065 251.069 628.654 251.181 628.299 251.405C627.945 251.629 627.669 251.942 627.473 252.343C627.277 252.745 627.179 253.211 627.179 253.743C627.179 254.285 627.277 254.756 627.473 255.157C627.669 255.549 627.945 255.857 628.299 256.081C628.654 256.305 629.065 256.417 629.531 256.417ZM634.459 257.271V247.191H635.635V257.271H634.459ZM638.066 260.351L639.788 256.487H639.382L636.61 250.215H637.884L640.18 255.605L642.588 250.215H643.806L639.298 260.351H638.066ZM651.342 257.439C650.661 257.439 650.064 257.281 649.55 256.963C649.037 256.637 648.64 256.193 648.36 255.633C648.08 255.073 647.94 254.439 647.94 253.729C647.94 253.02 648.08 252.39 648.36 251.839C648.64 251.279 649.037 250.841 649.55 250.523C650.073 250.206 650.675 250.047 651.356 250.047C651.935 250.047 652.439 250.164 652.868 250.397C653.307 250.631 653.643 250.957 653.876 251.377V247.191H655.052V257.271H653.988L653.89 256.109C653.741 256.343 653.55 256.562 653.316 256.767C653.083 256.963 652.803 257.127 652.476 257.257C652.15 257.379 651.772 257.439 651.342 257.439ZM651.482 256.417C651.949 256.417 652.36 256.305 652.714 256.081C653.069 255.857 653.344 255.549 653.54 255.157C653.736 254.756 653.834 254.285 653.834 253.743C653.834 253.211 653.736 252.745 653.54 252.343C653.344 251.942 653.069 251.629 652.714 251.405C652.36 251.181 651.949 251.069 651.482 251.069C651.025 251.069 650.619 251.181 650.264 251.405C649.91 251.629 649.634 251.942 649.438 252.343C649.242 252.745 649.144 253.211 649.144 253.743C649.144 254.285 649.242 254.756 649.438 255.157C649.634 255.549 649.91 255.857 650.264 256.081C650.619 256.305 651.025 256.417 651.482 256.417ZM659.294 257.439C658.752 257.439 658.276 257.332 657.866 257.117C657.464 256.903 657.152 256.571 656.928 256.123C656.713 255.675 656.606 255.115 656.606 254.443V250.215H657.782V254.317C657.782 255.017 657.936 255.545 658.244 255.899C658.552 256.254 658.986 256.431 659.546 256.431C659.938 256.431 660.292 256.338 660.61 256.151C660.927 255.955 661.174 255.68 661.352 255.325C661.538 254.961 661.632 254.518 661.632 253.995V250.215H662.808V257.271H661.744L661.674 256.039C661.459 256.478 661.142 256.823 660.722 257.075C660.302 257.318 659.826 257.439 659.294 257.439ZM664.477 257.271V250.215H665.541L665.611 251.223C665.835 250.859 666.134 250.575 666.507 250.369C666.89 250.155 667.305 250.047 667.753 250.047C668.117 250.047 668.444 250.099 668.733 250.201C669.032 250.295 669.293 250.444 669.517 250.649C669.741 250.845 669.923 251.097 670.063 251.405C670.306 250.976 670.637 250.645 671.057 250.411C671.486 250.169 671.944 250.047 672.429 250.047C672.97 250.047 673.442 250.159 673.843 250.383C674.254 250.598 674.566 250.929 674.781 251.377C675.005 251.816 675.117 252.376 675.117 253.057V257.271H673.955V253.183C673.955 252.474 673.81 251.942 673.521 251.587C673.232 251.233 672.826 251.055 672.303 251.055C671.939 251.055 671.612 251.153 671.323 251.349C671.034 251.536 670.805 251.811 670.637 252.175C670.469 252.539 670.385 252.987 670.385 253.519V257.271H669.209V253.183C669.209 252.474 669.064 251.942 668.775 251.587C668.486 251.233 668.075 251.055 667.543 251.055C667.188 251.055 666.866 251.153 666.577 251.349C666.297 251.536 666.073 251.811 665.905 252.175C665.737 252.539 665.653 252.987 665.653 253.519V257.271H664.477ZM676.666 257.271V250.215H677.73L677.8 251.223C678.024 250.859 678.322 250.575 678.696 250.369C679.078 250.155 679.494 250.047 679.942 250.047C680.306 250.047 680.632 250.099 680.922 250.201C681.22 250.295 681.482 250.444 681.706 250.649C681.93 250.845 682.112 251.097 682.252 251.405C682.494 250.976 682.826 250.645 683.246 250.411C683.675 250.169 684.132 250.047 684.618 250.047C685.159 250.047 685.63 250.159 686.032 250.383C686.442 250.598 686.755 250.929 686.97 251.377C687.194 251.816 687.306 252.376 687.306 253.057V257.271H686.144V253.183C686.144 252.474 685.999 251.942 685.71 251.587C685.42 251.233 685.014 251.055 684.492 251.055C684.128 251.055 683.801 251.153 683.512 251.349C683.222 251.536 682.994 251.811 682.826 252.175C682.658 252.539 682.574 252.987 682.574 253.519V257.271H681.398V253.183C681.398 252.474 681.253 251.942 680.964 251.587C680.674 251.233 680.264 251.055 679.732 251.055C679.377 251.055 679.055 251.153 678.766 251.349C678.486 251.536 678.262 251.811 678.094 252.175C677.926 252.539 677.842 252.987 677.842 253.519V257.271H676.666ZM689.419 260.351L691.141 256.487H690.735L687.963 250.215H689.237L691.533 255.605L693.941 250.215H695.159L690.651 260.351H689.419Z" fill="#8C8686"/>
<g filter="url(#filter0_d_348_6443)">
<path d="M178.252 271.244L376.547 74.529C376.547 74.529 383.605 68.7668 388.752 65.529C393.673 62.4328 396.252 61.029 402.252 58.2715V263.029C402.252 282.359 386.582 298.029 367.252 298.029H160.752C163.252 292.529 164.979 289.595 168.252 284.529C171.776 279.075 173.752 276.529 178.252 271.244Z" fill="#F4F4F4"/>
</g>
<path d="M361.216 786H41.1138C18.4073 786 0 804.424 0 827.152V922.678C0 945.405 18.4073 963.83 41.1138 963.83H361.216C383.923 963.83 402.329 945.405 402.329 922.678V827.152C402.329 804.424 383.923 786 361.216 786Z" fill="#A78BFA"/>
<path d="M114.151 895.592V914.22H94.874V895.592H114.151Z" fill="white"/>
<path d="M170.547 914.221L154.342 890.237L140.39 914.221H119.065L143.667 874.555L118.297 837.17H140.39L156.185 860.385L169.805 837.17H191.027L166.758 875.964L192.665 914.221H170.547Z" fill="white"/>
<path d="M252.058 903.767C249.849 907.305 246.679 910.14 242.918 911.941C238.342 914.086 233.327 915.13 228.275 914.99C220.654 915.309 213.143 913.083 206.925 908.661C204.174 906.594 201.924 903.934 200.342 900.878C198.76 897.821 197.886 894.447 197.786 891.006H217.6C217.742 893.601 218.846 896.05 220.698 897.873C222.541 899.593 224.988 900.514 227.507 900.435C228.533 900.496 229.562 900.352 230.533 900.014C231.504 899.675 232.398 899.148 233.165 898.462C233.848 897.8 234.385 897.001 234.742 896.119C235.099 895.236 235.268 894.289 235.238 893.338C235.264 892.434 235.107 891.535 234.777 890.694C234.447 889.854 233.951 889.088 233.318 888.444C231.963 887.071 230.355 885.974 228.583 885.215C226.722 884.395 224.111 883.395 220.749 882.217C216.669 880.87 212.684 879.253 208.82 877.374C205.644 875.736 202.918 873.343 200.883 870.404C198.521 866.847 197.355 862.628 197.555 858.361C197.463 854.133 198.679 849.98 201.037 846.471C203.459 843.043 206.807 840.376 210.688 838.784C215.163 836.963 219.966 836.09 224.794 836.222C232.124 835.817 239.367 837.983 245.274 842.346C247.788 844.394 249.848 846.944 251.32 849.834C252.793 852.724 253.645 855.89 253.824 859.129H233.677C233.453 856.862 232.48 854.735 230.912 853.083C230.112 852.315 229.163 851.719 228.124 851.331C227.085 850.943 225.978 850.772 224.871 850.827C222.951 850.74 221.066 851.36 219.571 852.57C218.882 853.225 218.345 854.023 218 854.909C217.655 855.794 217.51 856.746 217.575 857.695C217.535 859.417 218.179 861.085 219.366 862.332C220.64 863.664 222.174 864.72 223.872 865.433C225.69 866.228 228.301 867.253 231.706 868.483C235.86 869.837 239.907 871.498 243.815 873.453C247.006 875.177 249.757 877.615 251.853 880.577C254.242 884.191 255.425 888.47 255.232 892.8C255.198 896.677 254.1 900.471 252.058 903.767V903.767Z" fill="white"/>
<path d="M284.134 899.948H309.069V914.221H265.549V837.17H284.186L284.134 899.948Z" fill="white"/>
<path d="M973.218 0H653.115C630.409 0 612.001 18.4244 612.001 41.152V136.678C612.001 159.405 630.409 177.83 653.115 177.83H973.218C995.924 177.83 1014.33 159.405 1014.33 136.678V41.152C1014.33 18.4244 995.924 0 973.218 0Z" fill="#A78BFA"/>
<path d="M708.176 110.186V128.763H689.001V110.186H708.176Z" fill="white"/>
<path d="M777.065 58.9912C783.544 64.2394 787.945 71.6244 789.481 79.8238H769.872C768.564 76.4212 766.251 73.4983 763.241 71.4447C760.075 69.3664 756.351 68.303 752.566 68.3956C750.071 68.32 747.591 68.8187 745.319 69.8538C743.046 70.889 741.041 72.4324 739.459 74.3655C735.941 78.9179 734.17 84.5822 734.467 90.3298C734.168 96.054 735.94 101.694 739.459 106.216C741.048 108.139 743.055 109.672 745.327 110.698C747.599 111.724 750.075 112.215 752.566 112.135C756.351 112.228 760.075 111.164 763.241 109.086C766.25 107.074 768.579 104.198 769.923 100.835H789.533C787.964 109.008 783.568 116.366 777.117 121.616C770.195 126.942 761.622 129.663 752.899 129.304C746.029 129.454 739.245 127.745 733.264 124.358C727.66 121.115 723.123 116.306 720.208 110.521C717.053 104.239 715.471 97.2831 715.6 90.2529C715.468 83.2141 717.049 76.2486 720.208 69.9583C723.123 64.1732 727.66 59.3649 733.264 56.1217C739.245 52.734 746.029 51.0256 752.899 51.1764C761.619 50.8762 770.169 53.6407 777.065 58.9912V58.9912Z" fill="white"/>
<path d="M851.894 118.333C849.688 121.857 846.527 124.682 842.781 126.481C838.22 128.618 833.222 129.653 828.189 129.504C820.608 129.812 813.139 127.605 806.941 123.227C804.203 121.167 801.963 118.518 800.386 115.476C798.808 112.433 797.934 109.075 797.827 105.649H817.565C817.701 108.231 818.808 110.665 820.662 112.465C822.496 114.183 824.935 115.104 827.446 115.027C829.505 115.132 831.524 114.434 833.078 113.08C833.753 112.412 834.283 111.612 834.635 110.73C834.987 109.849 835.155 108.904 835.126 107.955C835.15 107.058 834.995 106.165 834.67 105.329C834.344 104.493 833.856 103.731 833.232 103.086C831.887 101.72 830.287 100.631 828.522 99.8835C826.627 99.0379 824.042 98.0382 820.714 96.8851C816.651 95.5473 812.682 93.9382 808.835 92.0681C805.673 90.4316 802.958 88.0482 800.925 85.1241C798.586 81.5764 797.43 77.3778 797.622 73.1317C797.518 68.9221 798.726 64.7847 801.078 61.2938C803.497 57.8835 806.823 55.2203 810.678 53.6066C815.139 51.7999 819.922 50.9278 824.733 51.0442C832.005 50.6587 839.187 52.8041 845.059 57.1167C847.566 59.1506 849.617 61.6888 851.081 64.5668C852.545 67.4448 853.389 70.5984 853.558 73.8236H833.514C833.267 71.5699 832.297 69.4574 830.749 67.8023C829.948 67.0435 829.002 66.4545 827.969 66.0713C826.935 65.6882 825.834 65.5186 824.733 65.5727C822.819 65.4748 820.938 66.0961 819.459 67.315C818.767 67.9672 818.229 68.7657 817.883 69.6522C817.538 70.5386 817.394 71.4907 817.462 72.4398C817.44 73.2891 817.588 74.1346 817.895 74.9265C818.203 75.7183 818.665 76.4408 819.254 77.0522C820.523 78.3895 822.058 79.4456 823.76 80.1526C825.552 80.9469 828.163 81.9724 831.44 83.2023C835.578 84.5346 839.608 86.179 843.498 88.1219C846.687 89.8385 849.431 92.278 851.51 95.2454C853.884 98.8367 855.058 103.089 854.864 107.391C854.883 111.24 853.856 115.022 851.894 118.333V118.333Z" fill="white"/>
<path d="M879.568 52.0449L898.333 109.776L917.098 52.0449H936.938L910.262 128.763H886.301L859.728 52.0449H879.568Z" fill="white"/>
<defs>
<filter id="filter0_d_348_6443" x="88.752" y="26.2715" width="345.5" height="343.758" filterUnits="userSpaceOnUse" color-interpolation-filters="sRGB">
<feFlood flood-opacity="0" result="BackgroundImageFix"/>
<feColorMatrix in="SourceAlpha" type="matrix" values="0 0 0 0 0 0 0 0 0 0 0 0 0 0 0 0 0 0 127 0" result="hardAlpha"/>
<feOffset dx="-20" dy="20"/>
<feGaussianBlur stdDeviation="26"/>
<feComposite in2="hardAlpha" operator="out"/>
<feColorMatrix type="matrix" values="0 0 0 0 0 0 0 0 0 0 0 0 0 0 0 0 0 0 0.35 0"/>
<feBlend mode="normal" in2="BackgroundImageFix" result="effect1_dropShadow_348_6443"/>
<feBlend mode="normal" in="SourceGraphic" in2="effect1_dropShadow_348_6443" result="shape"/>
</filter>
<clipPath id="clip0_348_6443">
<rect x="250.251" y="203.271" width="235" height="34" fill="white"/>
</clipPath>
</defs>
</svg>
