<svg width="786" height="1023" viewBox="0 0 786 1023" fill="none" xmlns="http://www.w3.org/2000/svg">
<g filter="url(#filter0_d_352_8016)">
<path d="M482.41 53.1673C462.93 33.8432 436.604 23 409.165 23L70 23C50.67 23 35 38.67 35 58L35 861C35 880.33 50.67 896 70 896H668C687.33 896 703 880.33 703 861V315.322C703 287.595 691.928 261.017 672.244 241.489L482.41 53.1673Z" fill="#F3F3F3"/>
<path d="M245.736 148V134.44H240.84V131.2H254.376V134.44H249.336V148H245.736ZM256.082 148L262.658 131.2H265.874L272.426 148H268.73L265.346 138.952C265.25 138.696 265.13 138.368 264.986 137.968C264.858 137.568 264.722 137.144 264.578 136.696C264.434 136.248 264.298 135.824 264.17 135.424C264.042 135.008 263.946 134.664 263.882 134.392L264.53 134.368C264.434 134.736 264.322 135.12 264.194 135.52C264.082 135.904 263.962 136.304 263.834 136.72C263.706 137.12 263.57 137.512 263.426 137.896C263.282 138.28 263.146 138.656 263.018 139.024L259.634 148H256.082ZM259.13 144.472L260.306 141.568H268.01L269.21 144.472H259.13ZM276.705 148V131.2H284.001C285.121 131.2 286.065 131.368 286.833 131.704C287.617 132.024 288.209 132.496 288.609 133.12C289.009 133.744 289.209 134.488 289.209 135.352C289.209 136.312 288.969 137.112 288.489 137.752C288.009 138.392 287.321 138.832 286.425 139.072L286.401 138.592C287.137 138.768 287.785 139.056 288.345 139.456C288.905 139.856 289.337 140.352 289.641 140.944C289.945 141.536 290.097 142.208 290.097 142.96C290.097 143.792 289.961 144.528 289.689 145.168C289.417 145.792 289.017 146.312 288.489 146.728C287.961 147.144 287.337 147.464 286.617 147.688C285.913 147.896 285.121 148 284.241 148H276.705ZM280.161 144.88H284.097C284.609 144.88 285.041 144.808 285.393 144.664C285.761 144.504 286.041 144.264 286.233 143.944C286.425 143.624 286.521 143.248 286.521 142.816C286.521 142.4 286.417 142.048 286.209 141.76C286.001 141.472 285.705 141.256 285.321 141.112C284.953 140.952 284.505 140.872 283.977 140.872H280.161V144.88ZM280.161 138.016H283.569C284.001 138.016 284.377 137.936 284.697 137.776C285.017 137.616 285.257 137.4 285.417 137.128C285.593 136.856 285.681 136.536 285.681 136.168C285.681 135.576 285.489 135.12 285.105 134.8C284.721 134.48 284.145 134.32 283.377 134.32H280.161V138.016ZM295.289 148V131.2H306.641V134.368H298.793V144.832H306.809V148H295.289ZM296.969 140.968V137.896H305.489V140.968H296.969ZM312.444 148V131.2H316.044V144.76H323.652V148H312.444ZM338.198 148V131.2H345.326C346.318 131.2 347.214 131.44 348.014 131.92C348.83 132.384 349.47 133.024 349.934 133.84C350.414 134.656 350.654 135.576 350.654 136.6C350.654 137.64 350.414 138.576 349.934 139.408C349.47 140.24 348.83 140.904 348.014 141.4C347.214 141.88 346.318 142.12 345.326 142.12H341.798V148H338.198ZM341.75 138.88H344.918C345.302 138.88 345.646 138.784 345.95 138.592C346.254 138.384 346.494 138.112 346.67 137.776C346.862 137.44 346.958 137.056 346.958 136.624C346.958 136.192 346.862 135.816 346.67 135.496C346.494 135.16 346.254 134.904 345.95 134.728C345.646 134.536 345.302 134.44 344.918 134.44H341.75V138.88ZM355.797 148V131.2H367.149V134.368H359.301V144.832H367.317V148H355.797ZM357.477 140.968V137.896H365.997V140.968H357.477ZM375.664 143.032L374.896 139.768L383.392 131.2H387.76L375.664 143.032ZM372.952 148V131.2H376.552V148H372.952ZM383.848 148L377.56 139.648L380.032 137.512L388.12 148H383.848ZM392.567 148V131.2H403.919V134.368H396.071V144.832H404.087V148H392.567ZM394.247 140.968V137.896H402.767V140.968H394.247ZM409.721 148V131.2H417.161C418.201 131.2 419.145 131.44 419.993 131.92C420.841 132.384 421.505 133.016 421.985 133.816C422.481 134.616 422.729 135.528 422.729 136.552C422.729 137.56 422.481 138.48 421.985 139.312C421.505 140.128 420.841 140.776 419.993 141.256C419.145 141.736 418.201 141.976 417.161 141.976H413.201V148H409.721ZM419.249 148L414.977 140.416L418.673 139.816L423.425 148.024L419.249 148ZM413.201 139.048H416.993C417.425 139.048 417.801 138.952 418.121 138.76C418.457 138.552 418.713 138.272 418.889 137.92C419.065 137.552 419.153 137.144 419.153 136.696C419.153 136.216 419.049 135.8 418.841 135.448C418.633 135.096 418.329 134.824 417.929 134.632C417.529 134.424 417.065 134.32 416.537 134.32H413.201V139.048ZM431.751 148.24C431.159 148.24 430.599 148.168 430.071 148.024C429.559 147.88 429.079 147.68 428.631 147.424C428.199 147.168 427.807 146.856 427.455 146.488C427.103 146.104 426.807 145.68 426.567 145.216L428.655 143.032C428.927 143.4 429.175 143.712 429.399 143.968C429.639 144.208 429.863 144.4 430.071 144.544C430.295 144.688 430.519 144.792 430.743 144.856C430.967 144.904 431.207 144.928 431.463 144.928C431.911 144.928 432.303 144.824 432.639 144.616C432.991 144.408 433.255 144.12 433.431 143.752C433.623 143.384 433.719 142.96 433.719 142.48V134.392H430.647V131.2H439.839V134.392H437.247V142.888C437.247 143.688 437.111 144.416 436.839 145.072C436.567 145.728 436.183 146.296 435.687 146.776C435.191 147.24 434.607 147.6 433.935 147.856C433.279 148.112 432.551 148.24 431.751 148.24ZM441.64 148L448.216 131.2H451.432L457.984 148H454.288L450.904 138.952C450.808 138.696 450.688 138.368 450.544 137.968C450.416 137.568 450.28 137.144 450.136 136.696C449.992 136.248 449.856 135.824 449.728 135.424C449.6 135.008 449.504 134.664 449.44 134.392L450.088 134.368C449.992 134.736 449.88 135.12 449.752 135.52C449.64 135.904 449.52 136.304 449.392 136.72C449.264 137.12 449.128 137.512 448.984 137.896C448.84 138.28 448.704 138.656 448.576 139.024L445.192 148H441.64ZM444.688 144.472L445.864 141.568H453.568L454.768 144.472H444.688ZM460.271 148L466.847 131.2H470.063L476.615 148H472.919L469.535 138.952C469.439 138.696 469.319 138.368 469.175 137.968C469.047 137.568 468.911 137.144 468.767 136.696C468.623 136.248 468.487 135.824 468.359 135.424C468.231 135.008 468.135 134.664 468.071 134.392L468.719 134.368C468.623 134.736 468.511 135.12 468.383 135.52C468.271 135.904 468.151 136.304 468.023 136.72C467.895 137.12 467.759 137.512 467.615 137.896C467.471 138.28 467.335 138.656 467.207 139.024L463.823 148H460.271ZM463.319 144.472L464.495 141.568H472.199L473.399 144.472H463.319ZM480.894 148V131.2H484.11L493.398 143.752H492.726C492.662 143.256 492.606 142.776 492.558 142.312C492.51 141.832 492.462 141.352 492.414 140.872C492.382 140.376 492.35 139.872 492.318 139.36C492.302 138.832 492.286 138.28 492.27 137.704C492.254 137.112 492.246 136.472 492.246 135.784V131.2H495.774V148H492.51L483.03 135.328L483.942 135.352C484.022 136.184 484.086 136.896 484.134 137.488C484.198 138.064 484.246 138.568 484.278 139C484.31 139.432 484.334 139.808 484.35 140.128C484.382 140.448 484.398 140.752 484.398 141.04C484.414 141.328 484.422 141.632 484.422 141.952V148H480.894Z" fill="black"/>
<g clip-path="url(#clip0_352_8016)">
<rect x="135" y="177" width="235" height="34" fill="#B4AFAF"/>
<path d="M233.48 199V190.135H230.405V188.5H238.55V190.135H235.49V199H233.48ZM237.867 199L241.707 188.5H244.002L247.827 199H245.682L242.847 190.81L239.997 199H237.867ZM239.562 196.615L240.102 195.04H245.442L245.967 196.615H239.562ZM248.907 199V188.5H253.212C253.942 188.5 254.557 188.615 255.057 188.845C255.557 189.075 255.932 189.395 256.182 189.805C256.442 190.205 256.572 190.67 256.572 191.2C256.572 191.73 256.457 192.175 256.227 192.535C255.997 192.895 255.692 193.175 255.312 193.375C254.942 193.565 254.532 193.675 254.082 193.705L254.322 193.54C254.802 193.56 255.227 193.69 255.597 193.93C255.977 194.16 256.272 194.47 256.482 194.86C256.702 195.25 256.812 195.675 256.812 196.135C256.812 196.695 256.677 197.19 256.407 197.62C256.137 198.05 255.747 198.39 255.237 198.64C254.727 198.88 254.102 199 253.362 199H248.907ZM250.932 197.35H253.032C253.582 197.35 254.007 197.225 254.307 196.975C254.607 196.725 254.757 196.365 254.757 195.895C254.757 195.425 254.602 195.06 254.292 194.8C253.982 194.53 253.552 194.395 253.002 194.395H250.932V197.35ZM250.932 192.88H252.882C253.412 192.88 253.812 192.76 254.082 192.52C254.362 192.28 254.502 191.94 254.502 191.5C254.502 191.07 254.362 190.735 254.082 190.495C253.812 190.245 253.407 190.12 252.867 190.12H250.932V192.88ZM258.172 199V188.5H260.197V197.425H264.802V199H258.172ZM266.236 199V188.5H273.136V190.135H268.261V192.88H272.686V194.455H268.261V197.365H273.136V199H266.236Z" fill="#282828"/>
</g>
<rect x="136" y="178" width="233" height="32" stroke="black" stroke-width="2"/>
<rect x="369" y="178" width="233" height="32" fill="#B4AFAF"/>
<rect x="369" y="178" width="233" height="32" stroke="black" stroke-width="2"/>
<rect x="136" y="242" width="233" height="32" fill="#F3F3F3"/>
<rect x="136" y="242" width="233" height="32" stroke="black" stroke-width="2"/>
<rect x="369" y="242" width="233" height="32" fill="#F3F3F3"/>
<rect x="369" y="242" width="233" height="32" stroke="black" stroke-width="2"/>
<rect x="136" y="274" width="233" height="32" fill="#F3F3F3"/>
<rect x="136" y="274" width="233" height="32" stroke="black" stroke-width="2"/>
<rect x="369" y="274" width="233" height="32" fill="#F3F3F3"/>
<rect x="369" y="274" width="233" height="32" stroke="black" stroke-width="2"/>
<rect x="136" y="306" width="233" height="32" fill="#F3F3F3"/>
<rect x="136" y="306" width="233" height="32" stroke="black" stroke-width="2"/>
<rect x="369" y="306" width="233" height="32" fill="#F3F3F3"/>
<rect x="369" y="306" width="233" height="32" stroke="black" stroke-width="2"/>
<rect x="136" y="338" width="233" height="32" fill="#F3F3F3"/>
<rect x="136" y="338" width="233" height="32" stroke="black" stroke-width="2"/>
<rect x="369" y="338" width="233" height="32" fill="#F3F3F3"/>
<rect x="369" y="338" width="233" height="32" stroke="black" stroke-width="2"/>
<rect x="136" y="370" width="233" height="32" fill="#F3F3F3"/>
<rect x="136" y="370" width="233" height="32" stroke="black" stroke-width="2"/>
<rect x="369" y="370" width="233" height="32" fill="#F3F3F3"/>
<rect x="369" y="370" width="233" height="32" stroke="black" stroke-width="2"/>
<rect x="136" y="402" width="233" height="32" fill="#F3F3F3"/>
<rect x="136" y="402" width="233" height="32" stroke="black" stroke-width="2"/>
<rect x="369" y="402" width="233" height="32" fill="#F3F3F3"/>
<rect x="369" y="402" width="233" height="32" stroke="black" stroke-width="2"/>
<rect x="136" y="434" width="233" height="32" fill="#F3F3F3"/>
<rect x="136" y="434" width="233" height="32" stroke="black" stroke-width="2"/>
<rect x="369" y="434" width="233" height="32" fill="#F3F3F3"/>
<rect x="369" y="434" width="233" height="32" stroke="black" stroke-width="2"/>
<rect x="136" y="466" width="233" height="32" fill="#F3F3F3"/>
<rect x="136" y="466" width="233" height="32" stroke="black" stroke-width="2"/>
<rect x="369" y="466" width="233" height="32" fill="#F3F3F3"/>
<rect x="369" y="466" width="233" height="32" stroke="black" stroke-width="2"/>
<rect x="136" y="498" width="233" height="32" fill="#F3F3F3"/>
<rect x="136" y="498" width="233" height="32" stroke="black" stroke-width="2"/>
<rect x="369" y="498" width="233" height="32" fill="#F3F3F3"/>
<rect x="369" y="498" width="233" height="32" stroke="black" stroke-width="2"/>
<rect x="136" y="530" width="233" height="32" fill="#F3F3F3"/>
<rect x="136" y="530" width="233" height="32" stroke="black" stroke-width="2"/>
<rect x="369" y="530" width="233" height="32" fill="#F3F3F3"/>
<rect x="369" y="530" width="233" height="32" stroke="black" stroke-width="2"/>
<rect x="136" y="562" width="233" height="32" fill="#F3F3F3"/>
<rect x="136" y="562" width="233" height="32" stroke="black" stroke-width="2"/>
<rect x="369" y="562" width="233" height="32" fill="#F3F3F3"/>
<rect x="369" y="562" width="233" height="32" stroke="black" stroke-width="2"/>
<rect x="136" y="594" width="233" height="32" fill="#F3F3F3"/>
<rect x="136" y="594" width="233" height="32" stroke="black" stroke-width="2"/>
<rect x="369" y="594" width="233" height="32" fill="#F3F3F3"/>
<rect x="369" y="594" width="233" height="32" stroke="black" stroke-width="2"/>
<rect x="136" y="626" width="233" height="32" fill="#F3F3F3"/>
<rect x="136" y="626" width="233" height="32" stroke="black" stroke-width="2"/>
<rect x="369" y="626" width="233" height="32" fill="#F3F3F3"/>
<rect x="369" y="626" width="233" height="32" stroke="black" stroke-width="2"/>
<rect x="136" y="658" width="233" height="32" fill="#F3F3F3"/>
<rect x="136" y="658" width="233" height="32" stroke="black" stroke-width="2"/>
<rect x="369" y="658" width="233" height="32" fill="#F3F3F3"/>
<rect x="369" y="658" width="233" height="32" stroke="black" stroke-width="2"/>
<rect x="136" y="690" width="233" height="32" fill="#F3F3F3"/>
<rect x="136" y="690" width="233" height="32" stroke="black" stroke-width="2"/>
<rect x="369" y="690" width="233" height="32" fill="#F3F3F3"/>
<rect x="369" y="690" width="233" height="32" stroke="black" stroke-width="2"/>
<rect x="136" y="722" width="233" height="32" fill="#F3F3F3"/>
<rect x="136" y="722" width="233" height="32" stroke="black" stroke-width="2"/>
<rect x="369" y="722" width="233" height="32" fill="#F3F3F3"/>
<rect x="369" y="722" width="233" height="32" stroke="black" stroke-width="2"/>
<rect x="136" y="754" width="233" height="32" fill="#F3F3F3"/>
<rect x="136" y="754" width="233" height="32" stroke="black" stroke-width="2"/>
<rect x="369" y="754" width="233" height="32" fill="#F3F3F3"/>
<rect x="369" y="754" width="233" height="32" stroke="black" stroke-width="2"/>
<rect x="369" y="210" width="233" height="32" fill="#F3F3F3"/>
<rect x="369" y="210" width="233" height="32" stroke="black" stroke-width="2"/>
<rect x="136" y="210" width="116" height="32" fill="#E5E5E5"/>
<rect x="136" y="210" width="116" height="32" stroke="black" stroke-width="2"/>
<rect x="252" y="210" width="117" height="32" fill="#E5E5E5"/>
<rect x="252" y="210" width="117" height="32" stroke="black" stroke-width="2"/>
<path d="M291.029 231V220.5H292.289V231H291.029ZM294.14 234.3V223.455H295.28L295.4 224.685C295.56 224.445 295.765 224.22 296.015 224.01C296.265 223.79 296.565 223.615 296.915 223.485C297.265 223.345 297.67 223.275 298.13 223.275C298.86 223.275 299.495 223.45 300.035 223.8C300.585 224.14 301.01 224.61 301.31 225.21C301.62 225.8 301.775 226.48 301.775 227.25C301.775 228.01 301.62 228.685 301.31 229.275C301.01 229.865 300.585 230.33 300.035 230.67C299.485 231.01 298.845 231.18 298.115 231.18C297.505 231.18 296.965 231.055 296.495 230.805C296.025 230.555 295.66 230.205 295.4 229.755V234.3H294.14ZM297.965 230.085C298.455 230.085 298.89 229.97 299.27 229.74C299.66 229.5 299.96 229.165 300.17 228.735C300.39 228.305 300.5 227.805 300.5 227.235C300.5 226.655 300.39 226.155 300.17 225.735C299.96 225.305 299.66 224.97 299.27 224.73C298.89 224.49 298.455 224.37 297.965 224.37C297.465 224.37 297.025 224.49 296.645 224.73C296.265 224.97 295.97 225.305 295.76 225.735C295.55 226.155 295.445 226.655 295.445 227.235C295.445 227.805 295.55 228.305 295.76 228.735C295.97 229.165 296.265 229.5 296.645 229.74C297.025 229.97 297.465 230.085 297.965 230.085ZM306.094 231.18C305.484 231.18 304.944 231.08 304.474 230.88C304.004 230.67 303.629 230.375 303.349 229.995C303.079 229.615 302.909 229.17 302.839 228.66H304.129C304.189 228.92 304.299 229.165 304.459 229.395C304.619 229.615 304.834 229.79 305.104 229.92C305.384 230.05 305.719 230.115 306.109 230.115C306.469 230.115 306.764 230.065 306.994 229.965C307.224 229.855 307.394 229.71 307.504 229.53C307.614 229.35 307.669 229.155 307.669 228.945C307.669 228.645 307.594 228.415 307.444 228.255C307.304 228.085 307.094 227.955 306.814 227.865C306.544 227.775 306.209 227.695 305.809 227.625C305.479 227.565 305.154 227.485 304.834 227.385C304.524 227.275 304.244 227.14 303.994 226.98C303.744 226.82 303.544 226.62 303.394 226.38C303.244 226.13 303.169 225.835 303.169 225.495C303.169 225.065 303.279 224.685 303.499 224.355C303.729 224.015 304.044 223.75 304.444 223.56C304.854 223.37 305.339 223.275 305.899 223.275C306.699 223.275 307.349 223.47 307.849 223.86C308.359 224.25 308.654 224.815 308.734 225.555H307.489C307.449 225.175 307.289 224.88 307.009 224.67C306.729 224.45 306.354 224.34 305.884 224.34C305.414 224.34 305.054 224.435 304.804 224.625C304.564 224.815 304.444 225.065 304.444 225.375C304.444 225.575 304.509 225.755 304.639 225.915C304.779 226.065 304.984 226.195 305.254 226.305C305.524 226.405 305.849 226.495 306.229 226.575C306.729 226.665 307.184 226.785 307.594 226.935C308.004 227.075 308.334 227.295 308.584 227.595C308.844 227.885 308.969 228.3 308.959 228.84C308.969 229.31 308.854 229.72 308.614 230.07C308.384 230.42 308.054 230.695 307.624 230.895C307.194 231.085 306.684 231.18 306.094 231.18ZM313.218 231.18C312.638 231.18 312.128 231.065 311.688 230.835C311.258 230.605 310.923 230.25 310.683 229.77C310.453 229.29 310.338 228.685 310.338 227.955V223.455H311.598V227.82C311.598 228.58 311.763 229.15 312.093 229.53C312.423 229.91 312.893 230.1 313.503 230.1C313.923 230.1 314.303 230 314.643 229.8C314.983 229.59 315.248 229.29 315.438 228.9C315.638 228.51 315.738 228.035 315.738 227.475V223.455H316.998V231H315.858L315.783 229.68C315.543 230.15 315.198 230.52 314.748 230.79C314.298 231.05 313.788 231.18 313.218 231.18ZM318.772 231V223.455H319.912L320.002 224.535C320.242 224.135 320.562 223.825 320.962 223.605C321.362 223.385 321.807 223.275 322.297 223.275C322.687 223.275 323.037 223.33 323.347 223.44C323.667 223.54 323.947 223.7 324.187 223.92C324.437 224.13 324.637 224.4 324.787 224.73C325.047 224.27 325.402 223.915 325.852 223.665C326.312 223.405 326.797 223.275 327.307 223.275C327.897 223.275 328.407 223.395 328.837 223.635C329.277 223.865 329.612 224.22 329.842 224.7C330.082 225.17 330.202 225.77 330.202 226.5V231H328.957V226.635C328.957 225.875 328.802 225.305 328.492 224.925C328.182 224.545 327.742 224.355 327.172 224.355C326.782 224.355 326.432 224.46 326.122 224.67C325.812 224.87 325.567 225.165 325.387 225.555C325.207 225.945 325.117 226.425 325.117 226.995V231H323.857V226.635C323.857 225.875 323.702 225.305 323.392 224.925C323.082 224.545 322.647 224.355 322.087 224.355C321.707 224.355 321.357 224.46 321.037 224.67C320.727 224.87 320.482 225.165 320.302 225.555C320.122 225.945 320.032 226.425 320.032 226.995V231H318.772Z" fill="#8C8686"/>
<path d="M174.421 231V220.5H175.681V229.995H180.571V231H174.421ZM184.994 231.18C184.294 231.18 183.664 231.02 183.104 230.7C182.544 230.37 182.099 229.91 181.769 229.32C181.449 228.72 181.289 228.025 181.289 227.235C181.289 226.425 181.454 225.725 181.784 225.135C182.114 224.545 182.559 224.09 183.119 223.77C183.689 223.44 184.324 223.275 185.024 223.275C185.734 223.275 186.369 223.44 186.929 223.77C187.489 224.09 187.929 224.545 188.249 225.135C188.569 225.725 188.729 226.425 188.729 227.235C188.729 228.035 188.564 228.73 188.234 229.32C187.914 229.91 187.469 230.37 186.899 230.7C186.339 231.02 185.704 231.18 184.994 231.18ZM184.994 230.1C185.434 230.1 185.839 229.995 186.209 229.785C186.579 229.565 186.874 229.245 187.094 228.825C187.324 228.395 187.439 227.865 187.439 227.235C187.439 226.585 187.329 226.05 187.109 225.63C186.889 225.21 186.594 224.895 186.224 224.685C185.854 224.465 185.454 224.355 185.024 224.355C184.604 224.355 184.204 224.465 183.824 224.685C183.454 224.895 183.154 225.215 182.924 225.645C182.694 226.065 182.579 226.595 182.579 227.235C182.579 227.865 182.694 228.395 182.924 228.825C183.154 229.245 183.449 229.565 183.809 229.785C184.179 229.995 184.574 230.1 184.994 230.1ZM190.196 231V223.455H191.336L191.441 224.895C191.611 224.555 191.826 224.265 192.086 224.025C192.356 223.785 192.676 223.6 193.046 223.47C193.426 223.34 193.851 223.275 194.321 223.275V224.595H193.871C193.551 224.595 193.246 224.64 192.956 224.73C192.666 224.81 192.406 224.945 192.176 225.135C191.956 225.325 191.781 225.585 191.651 225.915C191.521 226.235 191.456 226.635 191.456 227.115V231H190.196ZM198.484 231.18C197.784 231.18 197.159 231.015 196.609 230.685C196.059 230.355 195.624 229.895 195.304 229.305C194.994 228.715 194.839 228.025 194.839 227.235C194.839 226.435 194.994 225.74 195.304 225.15C195.614 224.56 196.044 224.1 196.594 223.77C197.154 223.44 197.794 223.275 198.514 223.275C199.254 223.275 199.884 223.44 200.404 223.77C200.924 224.1 201.319 224.535 201.589 225.075C201.869 225.605 202.009 226.185 202.009 226.815C202.009 226.915 202.009 227.025 202.009 227.145C202.009 227.255 202.004 227.38 201.994 227.52H195.784V226.545H200.764C200.734 225.845 200.504 225.305 200.074 224.925C199.654 224.535 199.124 224.34 198.484 224.34C198.064 224.34 197.669 224.44 197.299 224.64C196.929 224.83 196.629 225.11 196.399 225.48C196.179 225.85 196.069 226.32 196.069 226.89V227.31C196.069 227.93 196.184 228.45 196.414 228.87C196.644 229.28 196.939 229.59 197.299 229.8C197.669 230.01 198.064 230.115 198.484 230.115C199.014 230.115 199.449 230 199.789 229.77C200.139 229.53 200.394 229.205 200.554 228.795H201.799C201.669 229.255 201.454 229.665 201.154 230.025C200.854 230.375 200.479 230.655 200.029 230.865C199.589 231.075 199.074 231.18 198.484 231.18ZM203.38 231V223.455H204.52L204.61 224.535C204.85 224.135 205.17 223.825 205.57 223.605C205.97 223.385 206.415 223.275 206.905 223.275C207.295 223.275 207.645 223.33 207.955 223.44C208.275 223.54 208.555 223.7 208.795 223.92C209.045 224.13 209.245 224.4 209.395 224.73C209.655 224.27 210.01 223.915 210.46 223.665C210.92 223.405 211.405 223.275 211.915 223.275C212.505 223.275 213.015 223.395 213.445 223.635C213.885 223.865 214.22 224.22 214.45 224.7C214.69 225.17 214.81 225.77 214.81 226.5V231H213.565V226.635C213.565 225.875 213.41 225.305 213.1 224.925C212.79 224.545 212.35 224.355 211.78 224.355C211.39 224.355 211.04 224.46 210.73 224.67C210.42 224.87 210.175 225.165 209.995 225.555C209.815 225.945 209.725 226.425 209.725 226.995V231H208.465V226.635C208.465 225.875 208.31 225.305 208 224.925C207.69 224.545 207.255 224.355 206.695 224.355C206.315 224.355 205.965 224.46 205.645 224.67C205.335 224.87 205.09 225.165 204.91 225.555C204.73 225.945 204.64 226.425 204.64 226.995V231H203.38Z" fill="#8C8686"/>
<path d="M391.133 231V221.2H392.309V230.062H396.873V231H391.133ZM401.015 231.168C400.361 231.168 399.773 231.019 399.251 230.72C398.728 230.412 398.317 229.983 398.019 229.432C397.72 228.872 397.571 228.223 397.571 227.486C397.571 226.73 397.72 226.077 398.019 225.526C398.327 224.966 398.742 224.537 399.265 224.238C399.797 223.93 400.389 223.776 401.043 223.776C401.715 223.776 402.307 223.93 402.821 224.238C403.343 224.537 403.754 224.966 404.053 225.526C404.361 226.077 404.515 226.725 404.515 227.472C404.515 228.219 404.361 228.872 404.053 229.432C403.745 229.983 403.329 230.412 402.807 230.72C402.284 231.019 401.687 231.168 401.015 231.168ZM401.029 230.16C401.43 230.16 401.803 230.062 402.149 229.866C402.494 229.661 402.774 229.357 402.989 228.956C403.203 228.555 403.311 228.06 403.311 227.472C403.311 226.875 403.203 226.38 402.989 225.988C402.783 225.587 402.508 225.288 402.163 225.092C401.827 224.887 401.453 224.784 401.043 224.784C400.651 224.784 400.277 224.887 399.923 225.092C399.577 225.288 399.297 225.587 399.083 225.988C398.877 226.38 398.775 226.875 398.775 227.472C398.775 228.06 398.877 228.555 399.083 228.956C399.297 229.357 399.573 229.661 399.909 229.866C400.254 230.062 400.627 230.16 401.029 230.16ZM405.884 231V223.944H406.948L407.032 225.288C407.19 224.971 407.391 224.7 407.634 224.476C407.886 224.252 408.184 224.079 408.53 223.958C408.884 223.837 409.286 223.776 409.734 223.776V225.008H409.3C409.001 225.008 408.716 225.05 408.446 225.134C408.175 225.209 407.932 225.335 407.718 225.512C407.512 225.689 407.349 225.932 407.228 226.24C407.116 226.539 407.06 226.912 407.06 227.36V231H405.884ZM413.619 231.168C412.957 231.168 412.369 231.014 411.855 230.706C411.351 230.398 410.955 229.969 410.665 229.418C410.376 228.858 410.231 228.209 410.231 227.472C410.231 226.725 410.371 226.077 410.651 225.526C410.941 224.975 411.342 224.546 411.855 224.238C412.378 223.93 412.975 223.776 413.647 223.776C414.338 223.776 414.921 223.93 415.397 224.238C415.883 224.546 416.251 224.952 416.503 225.456C416.765 225.951 416.895 226.497 416.895 227.094C416.895 227.187 416.895 227.285 416.895 227.388C416.895 227.491 416.891 227.607 416.881 227.738H411.113V226.828H415.747C415.719 226.184 415.505 225.68 415.103 225.316C414.711 224.952 414.217 224.77 413.619 224.77C413.218 224.77 412.845 224.863 412.499 225.05C412.163 225.227 411.893 225.493 411.687 225.848C411.482 226.193 411.379 226.627 411.379 227.15V227.542C411.379 228.121 411.482 228.606 411.687 228.998C411.902 229.39 412.177 229.684 412.513 229.88C412.859 230.076 413.227 230.174 413.619 230.174C414.114 230.174 414.52 230.067 414.837 229.852C415.164 229.628 415.397 229.329 415.537 228.956H416.699C416.587 229.376 416.391 229.754 416.111 230.09C415.831 230.426 415.481 230.692 415.061 230.888C414.651 231.075 414.17 231.168 413.619 231.168ZM418.202 231V223.944H419.266L419.336 224.952C419.56 224.588 419.859 224.303 420.232 224.098C420.615 223.883 421.03 223.776 421.478 223.776C421.842 223.776 422.169 223.827 422.458 223.93C422.757 224.023 423.018 224.173 423.242 224.378C423.466 224.574 423.648 224.826 423.788 225.134C424.031 224.705 424.362 224.373 424.782 224.14C425.212 223.897 425.669 223.776 426.154 223.776C426.696 223.776 427.167 223.888 427.568 224.112C427.979 224.327 428.292 224.658 428.506 225.106C428.73 225.545 428.842 226.105 428.842 226.786V231H427.68V226.912C427.68 226.203 427.536 225.671 427.246 225.316C426.957 224.961 426.551 224.784 426.028 224.784C425.664 224.784 425.338 224.882 425.048 225.078C424.759 225.265 424.53 225.54 424.362 225.904C424.194 226.268 424.11 226.716 424.11 227.248V231H422.934V226.912C422.934 226.203 422.79 225.671 422.5 225.316C422.211 224.961 421.8 224.784 421.268 224.784C420.914 224.784 420.592 224.882 420.302 225.078C420.022 225.265 419.798 225.54 419.63 225.904C419.462 226.268 419.378 226.716 419.378 227.248V231H418.202ZM433.9 231V221.2H435.076V231H433.9ZM436.831 234.08V223.944H437.895L437.993 225.092C438.143 224.868 438.334 224.658 438.567 224.462C438.801 224.257 439.081 224.093 439.407 223.972C439.734 223.841 440.107 223.776 440.527 223.776C441.218 223.776 441.815 223.939 442.319 224.266C442.833 224.593 443.229 225.036 443.509 225.596C443.799 226.147 443.943 226.777 443.943 227.486C443.943 228.195 443.799 228.83 443.509 229.39C443.229 229.941 442.833 230.375 442.319 230.692C441.806 231.009 441.204 231.168 440.513 231.168C439.944 231.168 439.44 231.051 439.001 230.818C438.572 230.585 438.241 230.258 438.007 229.838V234.08H436.831ZM440.387 230.146C440.845 230.146 441.251 230.034 441.605 229.81C441.96 229.586 442.235 229.278 442.431 228.886C442.637 228.485 442.739 228.013 442.739 227.472C442.739 226.94 442.637 226.473 442.431 226.072C442.235 225.671 441.96 225.358 441.605 225.134C441.251 224.91 440.845 224.798 440.387 224.798C439.921 224.798 439.51 224.91 439.155 225.134C438.801 225.358 438.525 225.671 438.329 226.072C438.133 226.473 438.035 226.94 438.035 227.472C438.035 228.013 438.133 228.485 438.329 228.886C438.525 229.278 438.801 229.586 439.155 229.81C439.51 230.034 439.921 230.146 440.387 230.146ZM447.975 231.168C447.387 231.168 446.874 231.07 446.435 230.874C446.006 230.678 445.66 230.407 445.399 230.062C445.147 229.707 444.993 229.292 444.937 228.816H446.141C446.188 229.059 446.286 229.283 446.435 229.488C446.584 229.693 446.785 229.861 447.037 229.992C447.298 230.113 447.616 230.174 447.989 230.174C448.316 230.174 448.586 230.127 448.801 230.034C449.016 229.931 449.174 229.796 449.277 229.628C449.389 229.46 449.445 229.278 449.445 229.082C449.445 228.793 449.375 228.573 449.235 228.424C449.104 228.275 448.908 228.158 448.647 228.074C448.386 227.981 448.068 227.901 447.695 227.836C447.387 227.78 447.084 227.705 446.785 227.612C446.486 227.519 446.22 227.397 445.987 227.248C445.754 227.089 445.567 226.898 445.427 226.674C445.296 226.45 445.231 226.175 445.231 225.848C445.231 225.447 445.334 225.092 445.539 224.784C445.744 224.467 446.038 224.219 446.421 224.042C446.813 223.865 447.266 223.776 447.779 223.776C448.535 223.776 449.146 223.958 449.613 224.322C450.08 224.686 450.355 225.213 450.439 225.904H449.277C449.23 225.549 449.076 225.274 448.815 225.078C448.563 224.873 448.213 224.77 447.765 224.77C447.326 224.77 446.99 224.859 446.757 225.036C446.533 225.213 446.421 225.447 446.421 225.736C446.421 225.923 446.482 226.091 446.603 226.24C446.734 226.38 446.92 226.501 447.163 226.604C447.415 226.707 447.723 226.791 448.087 226.856C448.554 226.94 448.978 227.052 449.361 227.192C449.744 227.332 450.052 227.542 450.285 227.822C450.528 228.093 450.649 228.48 450.649 228.984C450.649 229.423 450.537 229.805 450.313 230.132C450.098 230.459 449.79 230.715 449.389 230.902C448.988 231.079 448.516 231.168 447.975 231.168ZM454.624 231.168C454.083 231.168 453.607 231.061 453.196 230.846C452.795 230.631 452.482 230.3 452.258 229.852C452.044 229.404 451.936 228.844 451.936 228.172V223.944H453.112V228.046C453.112 228.746 453.266 229.273 453.574 229.628C453.882 229.983 454.316 230.16 454.876 230.16C455.268 230.16 455.623 230.067 455.94 229.88C456.258 229.684 456.505 229.409 456.682 229.054C456.869 228.69 456.962 228.247 456.962 227.724V223.944H458.138V231H457.074L457.004 229.768C456.79 230.207 456.472 230.552 456.052 230.804C455.632 231.047 455.156 231.168 454.624 231.168ZM459.808 231V223.944H460.872L460.942 224.952C461.166 224.588 461.464 224.303 461.838 224.098C462.22 223.883 462.636 223.776 463.084 223.776C463.448 223.776 463.774 223.827 464.064 223.93C464.362 224.023 464.624 224.173 464.848 224.378C465.072 224.574 465.254 224.826 465.394 225.134C465.636 224.705 465.968 224.373 466.388 224.14C466.817 223.897 467.274 223.776 467.76 223.776C468.301 223.776 468.772 223.888 469.174 224.112C469.584 224.327 469.897 224.658 470.112 225.106C470.336 225.545 470.448 226.105 470.448 226.786V231H469.286V226.912C469.286 226.203 469.141 225.671 468.852 225.316C468.562 224.961 468.156 224.784 467.634 224.784C467.27 224.784 466.943 224.882 466.654 225.078C466.364 225.265 466.136 225.54 465.968 225.904C465.8 226.268 465.716 226.716 465.716 227.248V231H464.54V226.912C464.54 226.203 464.395 225.671 464.106 225.316C463.816 224.961 463.406 224.784 462.874 224.784C462.519 224.784 462.197 224.882 461.908 225.078C461.628 225.265 461.404 225.54 461.236 225.904C461.068 226.268 460.984 226.716 460.984 227.248V231H459.808ZM475.547 231V223.944H476.723V231H475.547ZM476.135 222.446C475.902 222.446 475.706 222.371 475.547 222.222C475.398 222.063 475.323 221.867 475.323 221.634C475.323 221.401 475.398 221.214 475.547 221.074C475.706 220.925 475.902 220.85 476.135 220.85C476.359 220.85 476.55 220.925 476.709 221.074C476.868 221.214 476.947 221.401 476.947 221.634C476.947 221.867 476.868 222.063 476.709 222.222C476.55 222.371 476.359 222.446 476.135 222.446ZM481.178 231.168C480.59 231.168 480.077 231.07 479.638 230.874C479.209 230.678 478.864 230.407 478.602 230.062C478.35 229.707 478.196 229.292 478.14 228.816H479.344C479.391 229.059 479.489 229.283 479.638 229.488C479.788 229.693 479.988 229.861 480.24 229.992C480.502 230.113 480.819 230.174 481.192 230.174C481.519 230.174 481.79 230.127 482.004 230.034C482.219 229.931 482.378 229.796 482.48 229.628C482.592 229.46 482.648 229.278 482.648 229.082C482.648 228.793 482.578 228.573 482.438 228.424C482.308 228.275 482.112 228.158 481.85 228.074C481.589 227.981 481.272 227.901 480.898 227.836C480.59 227.78 480.287 227.705 479.988 227.612C479.69 227.519 479.424 227.397 479.19 227.248C478.957 227.089 478.77 226.898 478.63 226.674C478.5 226.45 478.434 226.175 478.434 225.848C478.434 225.447 478.537 225.092 478.742 224.784C478.948 224.467 479.242 224.219 479.624 224.042C480.016 223.865 480.469 223.776 480.982 223.776C481.738 223.776 482.35 223.958 482.816 224.322C483.283 224.686 483.558 225.213 483.642 225.904H482.48C482.434 225.549 482.28 225.274 482.018 225.078C481.766 224.873 481.416 224.77 480.968 224.77C480.53 224.77 480.194 224.859 479.96 225.036C479.736 225.213 479.624 225.447 479.624 225.736C479.624 225.923 479.685 226.091 479.806 226.24C479.937 226.38 480.124 226.501 480.366 226.604C480.618 226.707 480.926 226.791 481.29 226.856C481.757 226.94 482.182 227.052 482.564 227.192C482.947 227.332 483.255 227.542 483.488 227.822C483.731 228.093 483.852 228.48 483.852 228.984C483.852 229.423 483.74 229.805 483.516 230.132C483.302 230.459 482.994 230.715 482.592 230.902C482.191 231.079 481.72 231.168 481.178 231.168ZM491.365 231.168C490.777 231.168 490.263 231.07 489.825 230.874C489.395 230.678 489.05 230.407 488.789 230.062C488.537 229.707 488.383 229.292 488.327 228.816H489.531C489.577 229.059 489.675 229.283 489.825 229.488C489.974 229.693 490.175 229.861 490.427 229.992C490.688 230.113 491.005 230.174 491.379 230.174C491.705 230.174 491.976 230.127 492.191 230.034C492.405 229.931 492.564 229.796 492.667 229.628C492.779 229.46 492.835 229.278 492.835 229.082C492.835 228.793 492.765 228.573 492.625 228.424C492.494 228.275 492.298 228.158 492.037 228.074C491.775 227.981 491.458 227.901 491.085 227.836C490.777 227.78 490.473 227.705 490.175 227.612C489.876 227.519 489.61 227.397 489.377 227.248C489.143 227.089 488.957 226.898 488.817 226.674C488.686 226.45 488.621 226.175 488.621 225.848C488.621 225.447 488.723 225.092 488.929 224.784C489.134 224.467 489.428 224.219 489.811 224.042C490.203 223.865 490.655 223.776 491.169 223.776C491.925 223.776 492.536 223.958 493.003 224.322C493.469 224.686 493.745 225.213 493.829 225.904H492.667C492.62 225.549 492.466 225.274 492.205 225.078C491.953 224.873 491.603 224.77 491.155 224.77C490.716 224.77 490.38 224.859 490.147 225.036C489.923 225.213 489.811 225.447 489.811 225.736C489.811 225.923 489.871 226.091 489.993 226.24C490.123 226.38 490.31 226.501 490.553 226.604C490.805 226.707 491.113 226.791 491.477 226.856C491.943 226.94 492.368 227.052 492.751 227.192C493.133 227.332 493.441 227.542 493.675 227.822C493.917 228.093 494.039 228.48 494.039 228.984C494.039 229.423 493.927 229.805 493.703 230.132C493.488 230.459 493.18 230.715 492.779 230.902C492.377 231.079 491.906 231.168 491.365 231.168ZM495.564 231V223.944H496.74V231H495.564ZM496.152 222.446C495.919 222.446 495.723 222.371 495.564 222.222C495.415 222.063 495.34 221.867 495.34 221.634C495.34 221.401 495.415 221.214 495.564 221.074C495.723 220.925 495.919 220.85 496.152 220.85C496.376 220.85 496.567 220.925 496.726 221.074C496.885 221.214 496.964 221.401 496.964 221.634C496.964 221.867 496.885 222.063 496.726 222.222C496.567 222.371 496.376 222.446 496.152 222.446ZM498.535 231V223.944H499.599L499.669 224.952C499.893 224.588 500.192 224.303 500.565 224.098C500.948 223.883 501.363 223.776 501.811 223.776C502.175 223.776 502.502 223.827 502.791 223.93C503.09 224.023 503.351 224.173 503.575 224.378C503.799 224.574 503.981 224.826 504.121 225.134C504.364 224.705 504.695 224.373 505.115 224.14C505.544 223.897 506.002 223.776 506.487 223.776C507.028 223.776 507.5 223.888 507.901 224.112C508.312 224.327 508.624 224.658 508.839 225.106C509.063 225.545 509.175 226.105 509.175 226.786V231H508.013V226.912C508.013 226.203 507.868 225.671 507.579 225.316C507.29 224.961 506.884 224.784 506.361 224.784C505.997 224.784 505.67 224.882 505.381 225.078C505.092 225.265 504.863 225.54 504.695 225.904C504.527 226.268 504.443 226.716 504.443 227.248V231H503.267V226.912C503.267 226.203 503.122 225.671 502.833 225.316C502.544 224.961 502.133 224.784 501.601 224.784C501.246 224.784 500.924 224.882 500.635 225.078C500.355 225.265 500.131 225.54 499.963 225.904C499.795 226.268 499.711 226.716 499.711 227.248V231H498.535ZM510.724 234.08V223.944H511.788L511.886 225.092C512.035 224.868 512.227 224.658 512.46 224.462C512.693 224.257 512.973 224.093 513.3 223.972C513.627 223.841 514 223.776 514.42 223.776C515.111 223.776 515.708 223.939 516.212 224.266C516.725 224.593 517.122 225.036 517.402 225.596C517.691 226.147 517.836 226.777 517.836 227.486C517.836 228.195 517.691 228.83 517.402 229.39C517.122 229.941 516.725 230.375 516.212 230.692C515.699 231.009 515.097 231.168 514.406 231.168C513.837 231.168 513.333 231.051 512.894 230.818C512.465 230.585 512.133 230.258 511.9 229.838V234.08H510.724ZM514.28 230.146C514.737 230.146 515.143 230.034 515.498 229.81C515.853 229.586 516.128 229.278 516.324 228.886C516.529 228.485 516.632 228.013 516.632 227.472C516.632 226.94 516.529 226.473 516.324 226.072C516.128 225.671 515.853 225.358 515.498 225.134C515.143 224.91 514.737 224.798 514.28 224.798C513.813 224.798 513.403 224.91 513.048 225.134C512.693 225.358 512.418 225.671 512.222 226.072C512.026 226.473 511.928 226.94 511.928 227.472C511.928 228.013 512.026 228.485 512.222 228.886C512.418 229.278 512.693 229.586 513.048 229.81C513.403 230.034 513.813 230.146 514.28 230.146ZM519.208 231V220.92H520.384V231H519.208ZM522.815 234.08L524.537 230.216H524.131L521.359 223.944H522.633L524.929 229.334L527.337 223.944H528.555L524.047 234.08H522.815ZM536.091 231.168C535.409 231.168 534.812 231.009 534.299 230.692C533.785 230.365 533.389 229.922 533.109 229.362C532.829 228.802 532.689 228.167 532.689 227.458C532.689 226.749 532.829 226.119 533.109 225.568C533.389 225.008 533.785 224.569 534.299 224.252C534.821 223.935 535.423 223.776 536.105 223.776C536.683 223.776 537.187 223.893 537.617 224.126C538.055 224.359 538.391 224.686 538.625 225.106V220.92H539.801V231H538.737L538.639 229.838C538.489 230.071 538.298 230.291 538.065 230.496C537.831 230.692 537.551 230.855 537.225 230.986C536.898 231.107 536.52 231.168 536.091 231.168ZM536.231 230.146C536.697 230.146 537.108 230.034 537.463 229.81C537.817 229.586 538.093 229.278 538.289 228.886C538.485 228.485 538.583 228.013 538.583 227.472C538.583 226.94 538.485 226.473 538.289 226.072C538.093 225.671 537.817 225.358 537.463 225.134C537.108 224.91 536.697 224.798 536.231 224.798C535.773 224.798 535.367 224.91 535.013 225.134C534.658 225.358 534.383 225.671 534.187 226.072C533.991 226.473 533.893 226.94 533.893 227.472C533.893 228.013 533.991 228.485 534.187 228.886C534.383 229.278 534.658 229.586 535.013 229.81C535.367 230.034 535.773 230.146 536.231 230.146ZM544.042 231.168C543.501 231.168 543.025 231.061 542.614 230.846C542.213 230.631 541.9 230.3 541.676 229.852C541.461 229.404 541.354 228.844 541.354 228.172V223.944H542.53V228.046C542.53 228.746 542.684 229.273 542.992 229.628C543.3 229.983 543.734 230.16 544.294 230.16C544.686 230.16 545.041 230.067 545.358 229.88C545.675 229.684 545.923 229.409 546.1 229.054C546.287 228.69 546.38 228.247 546.38 227.724V223.944H547.556V231H546.492L546.422 229.768C546.207 230.207 545.89 230.552 545.47 230.804C545.05 231.047 544.574 231.168 544.042 231.168ZM549.226 231V223.944H550.29L550.36 224.952C550.584 224.588 550.882 224.303 551.256 224.098C551.638 223.883 552.054 223.776 552.502 223.776C552.866 223.776 553.192 223.827 553.482 223.93C553.78 224.023 554.042 224.173 554.266 224.378C554.49 224.574 554.672 224.826 554.812 225.134C555.054 224.705 555.386 224.373 555.806 224.14C556.235 223.897 556.692 223.776 557.178 223.776C557.719 223.776 558.19 223.888 558.592 224.112C559.002 224.327 559.315 224.658 559.53 225.106C559.754 225.545 559.866 226.105 559.866 226.786V231H558.704V226.912C558.704 226.203 558.559 225.671 558.27 225.316C557.98 224.961 557.574 224.784 557.052 224.784C556.688 224.784 556.361 224.882 556.072 225.078C555.782 225.265 555.554 225.54 555.386 225.904C555.218 226.268 555.134 226.716 555.134 227.248V231H553.958V226.912C553.958 226.203 553.813 225.671 553.524 225.316C553.234 224.961 552.824 224.784 552.292 224.784C551.937 224.784 551.615 224.882 551.326 225.078C551.046 225.265 550.822 225.54 550.654 225.904C550.486 226.268 550.402 226.716 550.402 227.248V231H549.226ZM561.414 231V223.944H562.478L562.548 224.952C562.772 224.588 563.071 224.303 563.444 224.098C563.827 223.883 564.242 223.776 564.69 223.776C565.054 223.776 565.381 223.827 565.67 223.93C565.969 224.023 566.23 224.173 566.454 224.378C566.678 224.574 566.86 224.826 567 225.134C567.243 224.705 567.574 224.373 567.994 224.14C568.424 223.897 568.881 223.776 569.366 223.776C569.908 223.776 570.379 223.888 570.78 224.112C571.191 224.327 571.504 224.658 571.718 225.106C571.942 225.545 572.054 226.105 572.054 226.786V231H570.892V226.912C570.892 226.203 570.748 225.671 570.458 225.316C570.169 224.961 569.763 224.784 569.24 224.784C568.876 224.784 568.55 224.882 568.26 225.078C567.971 225.265 567.742 225.54 567.574 225.904C567.406 226.268 567.322 226.716 567.322 227.248V231H566.146V226.912C566.146 226.203 566.002 225.671 565.712 225.316C565.423 224.961 565.012 224.784 564.48 224.784C564.126 224.784 563.804 224.882 563.514 225.078C563.234 225.265 563.01 225.54 562.842 225.904C562.674 226.268 562.59 226.716 562.59 227.248V231H561.414ZM574.168 234.08L575.89 230.216H575.484L572.712 223.944H573.986L576.282 229.334L578.69 223.944H579.908L575.4 234.08H574.168Z" fill="#8C8686"/>
<path d="M182.57 768.079L129.615 726.707L145.337 706.584C148.686 702.297 152.195 699.313 155.864 697.632C159.533 695.95 163.161 695.413 166.746 696.022C170.321 696.541 173.697 698.041 176.874 700.523C179.799 702.809 181.99 705.617 183.448 708.949C184.895 712.191 185.297 715.835 184.654 719.881C184.01 723.926 181.975 728.143 178.547 732.531L171.1 742.062L190.844 757.488L182.57 768.079ZM162.551 735.384L169.467 726.533C171.949 723.355 172.991 720.515 172.592 718.01C172.233 715.455 170.843 713.232 168.422 711.341C165.9 709.371 163.382 708.54 160.866 708.849C158.39 709.108 155.911 710.825 153.429 714.003L146.514 722.854L162.551 735.384ZM210.991 731.701L173.108 671.039L182.506 659.01L250.531 681.092L241.784 692.288L189.806 674.46L219.62 720.657L210.991 731.701ZM205.734 713.95L199.675 704.708L220.952 677.475L231.326 681.194L205.734 713.95ZM254.662 675.805L201.708 634.433L217.429 614.31C220.779 610.023 224.288 607.039 227.957 605.358C231.626 603.676 235.253 603.139 238.839 603.748C242.413 604.266 245.789 605.767 248.966 608.249C251.891 610.535 254.083 613.343 255.541 616.675C256.987 619.917 257.389 623.561 256.746 627.606C256.103 631.652 254.067 635.869 250.639 640.256L243.192 649.788L262.937 665.214L254.662 675.805ZM234.644 643.11L241.559 634.259C244.041 631.081 245.083 628.241 244.684 625.736C244.325 623.181 242.935 620.958 240.514 619.067C237.993 617.097 235.474 616.266 232.959 616.575C230.483 616.834 228.004 618.551 225.521 621.729L218.606 630.58L234.644 643.11ZM290.016 630.555L237.061 589.182L264.426 554.157L272.975 560.835L253.884 585.27L267.274 595.731L284.591 573.566L292.837 580.008L275.52 602.174L289.742 613.285L308.832 588.85L317.381 595.529L290.016 630.555ZM323.407 587.816L270.453 546.443L286.115 526.396C289.464 522.11 292.954 519.151 296.583 517.52C300.252 515.838 303.854 515.282 307.39 515.851C310.914 516.33 314.189 517.752 317.215 520.116C320.039 522.322 322.155 525.072 323.562 528.364C325.009 531.606 325.385 535.23 324.692 539.237C323.948 543.203 321.862 547.381 318.434 551.768L311.105 561.149L331.681 577.225L323.407 587.816ZM344.802 560.431L313.126 553.104L322.11 541.605L354.259 548.327L344.802 560.431ZM303.389 555.12L310.304 546.269C312.628 543.294 313.611 540.529 313.252 537.974C312.932 535.369 311.562 533.12 309.141 531.229C306.771 529.377 304.328 528.606 301.812 528.914C299.297 529.223 296.838 530.916 294.434 533.992L287.578 542.768L303.389 555.12ZM381.873 512.983L337.467 478.289L325.41 493.722L316.861 487.043L349.191 445.663L357.739 452.342L345.682 467.774L390.088 502.468L381.873 512.983ZM399.506 490.414L361.623 429.751L371.02 417.722L439.046 439.804L430.299 451L378.32 433.172L408.135 479.369L399.506 490.414ZM394.249 472.662L388.19 463.42L409.467 436.187L419.84 439.906L394.249 472.662ZM443.177 434.517L390.223 393.145L407.422 371.131C410.298 367.449 413.301 364.801 416.431 363.185C419.561 361.57 422.673 360.915 425.765 361.219C428.807 361.484 431.689 362.68 434.412 364.808C437.035 366.857 438.801 369.17 439.71 371.749C440.62 374.327 440.83 376.969 440.341 379.673C439.842 382.288 438.781 384.789 437.159 387.177L437.273 385.316C439.265 382.974 441.595 381.343 444.263 380.423C446.971 379.452 449.722 379.205 452.516 379.683C455.3 380.071 457.851 381.171 460.171 382.983C462.995 385.19 464.985 387.841 466.14 390.936C467.245 393.992 467.378 397.304 466.539 400.872C465.74 404.39 463.883 408.015 460.967 411.747L443.177 434.517ZM442.827 417.189L451.043 406.673C453.131 404 454.141 401.46 454.074 399.052C453.956 396.604 452.762 394.494 450.492 392.721C448.223 390.947 445.841 390.305 443.348 390.794C440.855 391.282 438.564 392.863 436.476 395.536L428.378 405.9L442.827 417.189ZM420.511 399.753L428.076 390.07C430.086 387.498 431.042 385.078 430.946 382.81C430.8 380.503 429.642 378.502 427.474 376.807C425.355 375.153 423.184 374.553 420.961 375.008C418.686 375.424 416.525 376.944 414.476 379.566L406.97 389.174L420.511 399.753ZM479.858 387.568L426.904 346.195L435.178 335.604L479.887 370.534L497.972 347.386L506.218 353.828L479.858 387.568ZM511.864 346.602L458.91 305.229L486.275 270.204L494.823 276.883L475.732 301.317L489.122 311.779L506.44 289.613L514.685 296.056L497.368 318.221L511.59 329.332L530.681 304.898L539.229 311.576L511.864 346.602ZM560.525 286.19C557.53 290.023 554.195 292.94 550.52 294.941C546.884 296.892 543.116 297.765 539.215 297.56C535.314 297.355 531.554 295.879 527.934 293.132L536.681 281.936C538.233 283.068 539.891 283.753 541.653 283.993C543.454 284.182 545.22 283.897 546.951 283.137C548.681 282.378 550.236 281.115 551.615 279.35C552.836 277.787 553.628 276.253 553.991 274.75C554.393 273.196 554.376 271.762 553.941 270.447C553.546 269.082 552.692 267.888 551.381 266.863C549.969 265.76 548.463 265.192 546.864 265.161C545.303 265.079 543.678 265.393 541.986 266.102C540.295 266.811 538.522 267.781 536.667 269.012C534.801 270.153 532.837 271.42 530.773 272.813C526.141 275.935 521.824 277.719 517.821 278.165C513.857 278.561 509.984 277.281 506.201 274.326C502.974 271.804 500.816 268.9 499.729 265.614C498.681 262.277 498.615 258.774 499.533 255.105C500.489 251.386 502.327 247.786 505.046 244.306C507.843 240.726 510.937 238.066 514.325 236.328C517.663 234.55 521.103 233.786 524.644 234.035C528.225 234.234 531.643 235.524 534.9 237.905L526.034 249.253C524.835 248.397 523.519 247.897 522.088 247.754C520.607 247.571 519.15 247.773 517.717 248.359C516.285 248.945 514.997 249.969 513.854 251.432C512.819 252.653 512.114 253.971 511.741 255.385C511.356 256.709 511.356 258.008 511.741 259.283C512.075 260.519 512.872 261.629 514.133 262.614C515.394 263.599 516.689 264.124 518.02 264.189C519.299 264.214 520.655 263.933 522.088 263.347C523.56 262.71 525.145 261.878 526.842 260.848C528.489 259.78 530.26 258.605 532.154 257.324C535.151 255.36 538.146 253.761 541.14 252.527C544.084 251.254 547.052 250.73 550.044 250.955C553.074 251.13 556.203 252.479 559.431 255C562.255 257.207 564.307 259.987 565.585 263.341C566.812 266.655 567.074 270.271 566.369 274.187C565.665 278.104 563.717 282.105 560.525 286.19Z" fill="#A3A3A3"/>
<g filter="url(#filter1_d_352_8016)">
<path d="M675 244.973L476.705 48.2575C476.705 48.2575 469.647 42.4953 464.5 39.2575C459.579 36.1613 457 34.7575 451 32V236.757C451 256.087 466.67 271.758 486 271.758H692.5C690 266.258 688.273 263.323 685 258.258C681.476 252.803 679.5 250.258 675 244.973Z" fill="#F4F4F4"/>
</g>
</g>
<defs>
<filter id="filter0_d_352_8016" x="0" y="23" width="786" height="1000" filterUnits="userSpaceOnUse" color-interpolation-filters="sRGB">
<feFlood flood-opacity="0" result="BackgroundImageFix"/>
<feColorMatrix in="SourceAlpha" type="matrix" values="0 0 0 0 0 0 0 0 0 0 0 0 0 0 0 0 0 0 127 0" result="hardAlpha"/>
<feOffset dx="24" dy="68"/>
<feGaussianBlur stdDeviation="29.5"/>
<feComposite in2="hardAlpha" operator="out"/>
<feColorMatrix type="matrix" values="0 0 0 0 0 0 0 0 0 0 0 0 0 0 0 0 0 0 0.15 0"/>
<feBlend mode="normal" in2="BackgroundImageFix" result="effect1_dropShadow_352_8016"/>
<feBlend mode="normal" in="SourceGraphic" in2="effect1_dropShadow_352_8016" result="shape"/>
</filter>
<filter id="filter1_d_352_8016" x="379" y="0" width="345.5" height="343.758" filterUnits="userSpaceOnUse" color-interpolation-filters="sRGB">
<feFlood flood-opacity="0" result="BackgroundImageFix"/>
<feColorMatrix in="SourceAlpha" type="matrix" values="0 0 0 0 0 0 0 0 0 0 0 0 0 0 0 0 0 0 127 0" result="hardAlpha"/>
<feOffset dx="-20" dy="20"/>
<feGaussianBlur stdDeviation="26"/>
<feComposite in2="hardAlpha" operator="out"/>
<feColorMatrix type="matrix" values="0 0 0 0 0 0 0 0 0 0 0 0 0 0 0 0 0 0 0.35 0"/>
<feBlend mode="normal" in2="BackgroundImageFix" result="effect1_dropShadow_352_8016"/>
<feBlend mode="normal" in="SourceGraphic" in2="effect1_dropShadow_352_8016" result="shape"/>
</filter>
<clipPath id="clip0_352_8016">
<rect x="135" y="177" width="235" height="34" fill="white"/>
</clipPath>
</defs>
</svg>
