<svg width="690" height="896" viewBox="0 0 690 896" fill="none" xmlns="http://www.w3.org/2000/svg">
<path d="M447.41 53.1673C427.93 33.8432 401.604 23 374.165 23L35 23C15.67 23 0 38.67 0 58L0 861C0 880.33 15.67 896 35 896H633C652.33 896 668 880.33 668 861V315.322C668 287.595 656.928 261.017 637.244 241.489L447.41 53.1673Z" fill="#F3F3F3"/>
<path d="M210.736 148V134.44H205.84V131.2H219.376V134.44H214.336V148H210.736ZM221.082 148L227.658 131.2H230.874L237.426 148H233.73L230.346 138.952C230.25 138.696 230.13 138.368 229.986 137.968C229.858 137.568 229.722 137.144 229.578 136.696C229.434 136.248 229.298 135.824 229.17 135.424C229.042 135.008 228.946 134.664 228.882 134.392L229.53 134.368C229.434 134.736 229.322 135.12 229.194 135.52C229.082 135.904 228.962 136.304 228.834 136.72C228.706 137.12 228.57 137.512 228.426 137.896C228.282 138.28 228.146 138.656 228.018 139.024L224.634 148H221.082ZM224.13 144.472L225.306 141.568H233.01L234.21 144.472H224.13ZM241.705 148V131.2H249.001C250.121 131.2 251.065 131.368 251.833 131.704C252.617 132.024 253.209 132.496 253.609 133.12C254.009 133.744 254.209 134.488 254.209 135.352C254.209 136.312 253.969 137.112 253.489 137.752C253.009 138.392 252.321 138.832 251.425 139.072L251.401 138.592C252.137 138.768 252.785 139.056 253.345 139.456C253.905 139.856 254.337 140.352 254.641 140.944C254.945 141.536 255.097 142.208 255.097 142.96C255.097 143.792 254.961 144.528 254.689 145.168C254.417 145.792 254.017 146.312 253.489 146.728C252.961 147.144 252.337 147.464 251.617 147.688C250.913 147.896 250.121 148 249.241 148H241.705ZM245.161 144.88H249.097C249.609 144.88 250.041 144.808 250.393 144.664C250.761 144.504 251.041 144.264 251.233 143.944C251.425 143.624 251.521 143.248 251.521 142.816C251.521 142.4 251.417 142.048 251.209 141.76C251.001 141.472 250.705 141.256 250.321 141.112C249.953 140.952 249.505 140.872 248.977 140.872H245.161V144.88ZM245.161 138.016H248.569C249.001 138.016 249.377 137.936 249.697 137.776C250.017 137.616 250.257 137.4 250.417 137.128C250.593 136.856 250.681 136.536 250.681 136.168C250.681 135.576 250.489 135.12 250.105 134.8C249.721 134.48 249.145 134.32 248.377 134.32H245.161V138.016ZM260.289 148V131.2H271.641V134.368H263.793V144.832H271.809V148H260.289ZM261.969 140.968V137.896H270.489V140.968H261.969ZM277.444 148V131.2H281.044V144.76H288.652V148H277.444ZM303.198 148V131.2H310.326C311.318 131.2 312.214 131.44 313.014 131.92C313.83 132.384 314.47 133.024 314.934 133.84C315.414 134.656 315.654 135.576 315.654 136.6C315.654 137.64 315.414 138.576 314.934 139.408C314.47 140.24 313.83 140.904 313.014 141.4C312.214 141.88 311.318 142.12 310.326 142.12H306.798V148H303.198ZM306.75 138.88H309.918C310.302 138.88 310.646 138.784 310.95 138.592C311.254 138.384 311.494 138.112 311.67 137.776C311.862 137.44 311.958 137.056 311.958 136.624C311.958 136.192 311.862 135.816 311.67 135.496C311.494 135.16 311.254 134.904 310.95 134.728C310.646 134.536 310.302 134.44 309.918 134.44H306.75V138.88ZM320.797 148V131.2H332.149V134.368H324.301V144.832H332.317V148H320.797ZM322.477 140.968V137.896H330.997V140.968H322.477ZM340.664 143.032L339.896 139.768L348.392 131.2H352.76L340.664 143.032ZM337.952 148V131.2H341.552V148H337.952ZM348.848 148L342.56 139.648L345.032 137.512L353.12 148H348.848ZM357.567 148V131.2H368.919V134.368H361.071V144.832H369.087V148H357.567ZM359.247 140.968V137.896H367.767V140.968H359.247ZM374.721 148V131.2H382.161C383.201 131.2 384.145 131.44 384.993 131.92C385.841 132.384 386.505 133.016 386.985 133.816C387.481 134.616 387.729 135.528 387.729 136.552C387.729 137.56 387.481 138.48 386.985 139.312C386.505 140.128 385.841 140.776 384.993 141.256C384.145 141.736 383.201 141.976 382.161 141.976H378.201V148H374.721ZM384.249 148L379.977 140.416L383.673 139.816L388.425 148.024L384.249 148ZM378.201 139.048H381.993C382.425 139.048 382.801 138.952 383.121 138.76C383.457 138.552 383.713 138.272 383.889 137.92C384.065 137.552 384.153 137.144 384.153 136.696C384.153 136.216 384.049 135.8 383.841 135.448C383.633 135.096 383.329 134.824 382.929 134.632C382.529 134.424 382.065 134.32 381.537 134.32H378.201V139.048ZM396.751 148.24C396.159 148.24 395.599 148.168 395.071 148.024C394.559 147.88 394.079 147.68 393.631 147.424C393.199 147.168 392.807 146.856 392.455 146.488C392.103 146.104 391.807 145.68 391.567 145.216L393.655 143.032C393.927 143.4 394.175 143.712 394.399 143.968C394.639 144.208 394.863 144.4 395.071 144.544C395.295 144.688 395.519 144.792 395.743 144.856C395.967 144.904 396.207 144.928 396.463 144.928C396.911 144.928 397.303 144.824 397.639 144.616C397.991 144.408 398.255 144.12 398.431 143.752C398.623 143.384 398.719 142.96 398.719 142.48V134.392H395.647V131.2H404.839V134.392H402.247V142.888C402.247 143.688 402.111 144.416 401.839 145.072C401.567 145.728 401.183 146.296 400.687 146.776C400.191 147.24 399.607 147.6 398.935 147.856C398.279 148.112 397.551 148.24 396.751 148.24ZM406.64 148L413.216 131.2H416.432L422.984 148H419.288L415.904 138.952C415.808 138.696 415.688 138.368 415.544 137.968C415.416 137.568 415.28 137.144 415.136 136.696C414.992 136.248 414.856 135.824 414.728 135.424C414.6 135.008 414.504 134.664 414.44 134.392L415.088 134.368C414.992 134.736 414.88 135.12 414.752 135.52C414.64 135.904 414.52 136.304 414.392 136.72C414.264 137.12 414.128 137.512 413.984 137.896C413.84 138.28 413.704 138.656 413.576 139.024L410.192 148H406.64ZM409.688 144.472L410.864 141.568H418.568L419.768 144.472H409.688ZM425.271 148L431.847 131.2H435.063L441.615 148H437.919L434.535 138.952C434.439 138.696 434.319 138.368 434.175 137.968C434.047 137.568 433.911 137.144 433.767 136.696C433.623 136.248 433.487 135.824 433.359 135.424C433.231 135.008 433.135 134.664 433.071 134.392L433.719 134.368C433.623 134.736 433.511 135.12 433.383 135.52C433.271 135.904 433.151 136.304 433.023 136.72C432.895 137.12 432.759 137.512 432.615 137.896C432.471 138.28 432.335 138.656 432.207 139.024L428.823 148H425.271ZM428.319 144.472L429.495 141.568H437.199L438.399 144.472H428.319ZM445.894 148V131.2H449.11L458.398 143.752H457.726C457.662 143.256 457.606 142.776 457.558 142.312C457.51 141.832 457.462 141.352 457.414 140.872C457.382 140.376 457.35 139.872 457.318 139.36C457.302 138.832 457.286 138.28 457.27 137.704C457.254 137.112 457.246 136.472 457.246 135.784V131.2H460.774V148H457.51L448.03 135.328L448.942 135.352C449.022 136.184 449.086 136.896 449.134 137.488C449.198 138.064 449.246 138.568 449.278 139C449.31 139.432 449.334 139.808 449.35 140.128C449.382 140.448 449.398 140.752 449.398 141.04C449.414 141.328 449.422 141.632 449.422 141.952V148H445.894Z" fill="black"/>
<g clip-path="url(#clip0_348_4903)">
<rect x="100" y="177" width="235" height="34" fill="#B4AFAF"/>
<path d="M198.48 199V190.135H195.405V188.5H203.55V190.135H200.49V199H198.48ZM202.867 199L206.707 188.5H209.002L212.827 199H210.682L207.847 190.81L204.997 199H202.867ZM204.562 196.615L205.102 195.04H210.442L210.967 196.615H204.562ZM213.907 199V188.5H218.212C218.942 188.5 219.557 188.615 220.057 188.845C220.557 189.075 220.932 189.395 221.182 189.805C221.442 190.205 221.572 190.67 221.572 191.2C221.572 191.73 221.457 192.175 221.227 192.535C220.997 192.895 220.692 193.175 220.312 193.375C219.942 193.565 219.532 193.675 219.082 193.705L219.322 193.54C219.802 193.56 220.227 193.69 220.597 193.93C220.977 194.16 221.272 194.47 221.482 194.86C221.702 195.25 221.812 195.675 221.812 196.135C221.812 196.695 221.677 197.19 221.407 197.62C221.137 198.05 220.747 198.39 220.237 198.64C219.727 198.88 219.102 199 218.362 199H213.907ZM215.932 197.35H218.032C218.582 197.35 219.007 197.225 219.307 196.975C219.607 196.725 219.757 196.365 219.757 195.895C219.757 195.425 219.602 195.06 219.292 194.8C218.982 194.53 218.552 194.395 218.002 194.395H215.932V197.35ZM215.932 192.88H217.882C218.412 192.88 218.812 192.76 219.082 192.52C219.362 192.28 219.502 191.94 219.502 191.5C219.502 191.07 219.362 190.735 219.082 190.495C218.812 190.245 218.407 190.12 217.867 190.12H215.932V192.88ZM223.172 199V188.5H225.197V197.425H229.802V199H223.172ZM231.236 199V188.5H238.136V190.135H233.261V192.88H237.686V194.455H233.261V197.365H238.136V199H231.236Z" fill="#282828"/>
</g>
<rect x="101" y="178" width="233" height="32" stroke="black" stroke-width="2"/>
<rect x="334" y="178" width="233" height="32" fill="#B4AFAF"/>
<rect x="334" y="178" width="233" height="32" stroke="black" stroke-width="2"/>
<rect x="101" y="242" width="233" height="32" fill="#F3F3F3"/>
<rect x="101" y="242" width="233" height="32" stroke="black" stroke-width="2"/>
<rect x="334" y="242" width="233" height="32" fill="#F3F3F3"/>
<rect x="334" y="242" width="233" height="32" stroke="black" stroke-width="2"/>
<rect x="101" y="274" width="233" height="32" fill="#F3F3F3"/>
<rect x="101" y="274" width="233" height="32" stroke="black" stroke-width="2"/>
<rect x="334" y="274" width="233" height="32" fill="#F3F3F3"/>
<rect x="334" y="274" width="233" height="32" stroke="black" stroke-width="2"/>
<rect x="101" y="306" width="233" height="32" fill="#F3F3F3"/>
<rect x="101" y="306" width="233" height="32" stroke="black" stroke-width="2"/>
<rect x="334" y="306" width="233" height="32" fill="#F3F3F3"/>
<rect x="334" y="306" width="233" height="32" stroke="black" stroke-width="2"/>
<rect x="101" y="338" width="233" height="32" fill="#F3F3F3"/>
<rect x="101" y="338" width="233" height="32" stroke="black" stroke-width="2"/>
<rect x="334" y="338" width="233" height="32" fill="#F3F3F3"/>
<rect x="334" y="338" width="233" height="32" stroke="black" stroke-width="2"/>
<rect x="101" y="370" width="233" height="32" fill="#F3F3F3"/>
<rect x="101" y="370" width="233" height="32" stroke="black" stroke-width="2"/>
<rect x="334" y="370" width="233" height="32" fill="#F3F3F3"/>
<rect x="334" y="370" width="233" height="32" stroke="black" stroke-width="2"/>
<rect x="101" y="402" width="233" height="32" fill="#F3F3F3"/>
<rect x="101" y="402" width="233" height="32" stroke="black" stroke-width="2"/>
<rect x="334" y="402" width="233" height="32" fill="#F3F3F3"/>
<rect x="334" y="402" width="233" height="32" stroke="black" stroke-width="2"/>
<rect x="101" y="434" width="233" height="32" fill="#F3F3F3"/>
<rect x="101" y="434" width="233" height="32" stroke="black" stroke-width="2"/>
<rect x="334" y="434" width="233" height="32" fill="#F3F3F3"/>
<rect x="334" y="434" width="233" height="32" stroke="black" stroke-width="2"/>
<rect x="101" y="466" width="233" height="32" fill="#F3F3F3"/>
<rect x="101" y="466" width="233" height="32" stroke="black" stroke-width="2"/>
<rect x="334" y="466" width="233" height="32" fill="#F3F3F3"/>
<rect x="334" y="466" width="233" height="32" stroke="black" stroke-width="2"/>
<rect x="101" y="498" width="233" height="32" fill="#F3F3F3"/>
<rect x="101" y="498" width="233" height="32" stroke="black" stroke-width="2"/>
<rect x="334" y="498" width="233" height="32" fill="#F3F3F3"/>
<rect x="334" y="498" width="233" height="32" stroke="black" stroke-width="2"/>
<rect x="101" y="530" width="233" height="32" fill="#F3F3F3"/>
<rect x="101" y="530" width="233" height="32" stroke="black" stroke-width="2"/>
<rect x="334" y="530" width="233" height="32" fill="#F3F3F3"/>
<rect x="334" y="530" width="233" height="32" stroke="black" stroke-width="2"/>
<rect x="101" y="562" width="233" height="32" fill="#F3F3F3"/>
<rect x="101" y="562" width="233" height="32" stroke="black" stroke-width="2"/>
<rect x="334" y="562" width="233" height="32" fill="#F3F3F3"/>
<rect x="334" y="562" width="233" height="32" stroke="black" stroke-width="2"/>
<rect x="101" y="594" width="233" height="32" fill="#F3F3F3"/>
<rect x="101" y="594" width="233" height="32" stroke="black" stroke-width="2"/>
<rect x="334" y="594" width="233" height="32" fill="#F3F3F3"/>
<rect x="334" y="594" width="233" height="32" stroke="black" stroke-width="2"/>
<rect x="101" y="626" width="233" height="32" fill="#F3F3F3"/>
<rect x="101" y="626" width="233" height="32" stroke="black" stroke-width="2"/>
<rect x="334" y="626" width="233" height="32" fill="#F3F3F3"/>
<rect x="334" y="626" width="233" height="32" stroke="black" stroke-width="2"/>
<rect x="101" y="658" width="233" height="32" fill="#F3F3F3"/>
<rect x="101" y="658" width="233" height="32" stroke="black" stroke-width="2"/>
<rect x="334" y="658" width="233" height="32" fill="#F3F3F3"/>
<rect x="334" y="658" width="233" height="32" stroke="black" stroke-width="2"/>
<rect x="101" y="690" width="233" height="32" fill="#F3F3F3"/>
<rect x="101" y="690" width="233" height="32" stroke="black" stroke-width="2"/>
<rect x="334" y="690" width="233" height="32" fill="#F3F3F3"/>
<rect x="334" y="690" width="233" height="32" stroke="black" stroke-width="2"/>
<rect x="101" y="722" width="233" height="32" fill="#F3F3F3"/>
<rect x="101" y="722" width="233" height="32" stroke="black" stroke-width="2"/>
<rect x="334" y="722" width="233" height="32" fill="#F3F3F3"/>
<rect x="334" y="722" width="233" height="32" stroke="black" stroke-width="2"/>
<rect x="101" y="754" width="233" height="32" fill="#F3F3F3"/>
<rect x="101" y="754" width="233" height="32" stroke="black" stroke-width="2"/>
<rect x="334" y="754" width="233" height="32" fill="#F3F3F3"/>
<rect x="334" y="754" width="233" height="32" stroke="black" stroke-width="2"/>
<rect x="334" y="210" width="233" height="32" fill="#F3F3F3"/>
<rect x="334" y="210" width="233" height="32" stroke="black" stroke-width="2"/>
<rect x="101" y="210" width="116" height="32" fill="#E5E5E5"/>
<rect x="101" y="210" width="116" height="32" stroke="black" stroke-width="2"/>
<rect x="217" y="210" width="117" height="32" fill="#E5E5E5"/>
<rect x="217" y="210" width="117" height="32" stroke="black" stroke-width="2"/>
<path d="M256.029 231V220.5H257.289V231H256.029ZM259.14 234.3V223.455H260.28L260.4 224.685C260.56 224.445 260.765 224.22 261.015 224.01C261.265 223.79 261.565 223.615 261.915 223.485C262.265 223.345 262.67 223.275 263.13 223.275C263.86 223.275 264.495 223.45 265.035 223.8C265.585 224.14 266.01 224.61 266.31 225.21C266.62 225.8 266.775 226.48 266.775 227.25C266.775 228.01 266.62 228.685 266.31 229.275C266.01 229.865 265.585 230.33 265.035 230.67C264.485 231.01 263.845 231.18 263.115 231.18C262.505 231.18 261.965 231.055 261.495 230.805C261.025 230.555 260.66 230.205 260.4 229.755V234.3H259.14ZM262.965 230.085C263.455 230.085 263.89 229.97 264.27 229.74C264.66 229.5 264.96 229.165 265.17 228.735C265.39 228.305 265.5 227.805 265.5 227.235C265.5 226.655 265.39 226.155 265.17 225.735C264.96 225.305 264.66 224.97 264.27 224.73C263.89 224.49 263.455 224.37 262.965 224.37C262.465 224.37 262.025 224.49 261.645 224.73C261.265 224.97 260.97 225.305 260.76 225.735C260.55 226.155 260.445 226.655 260.445 227.235C260.445 227.805 260.55 228.305 260.76 228.735C260.97 229.165 261.265 229.5 261.645 229.74C262.025 229.97 262.465 230.085 262.965 230.085ZM271.094 231.18C270.484 231.18 269.944 231.08 269.474 230.88C269.004 230.67 268.629 230.375 268.349 229.995C268.079 229.615 267.909 229.17 267.839 228.66H269.129C269.189 228.92 269.299 229.165 269.459 229.395C269.619 229.615 269.834 229.79 270.104 229.92C270.384 230.05 270.719 230.115 271.109 230.115C271.469 230.115 271.764 230.065 271.994 229.965C272.224 229.855 272.394 229.71 272.504 229.53C272.614 229.35 272.669 229.155 272.669 228.945C272.669 228.645 272.594 228.415 272.444 228.255C272.304 228.085 272.094 227.955 271.814 227.865C271.544 227.775 271.209 227.695 270.809 227.625C270.479 227.565 270.154 227.485 269.834 227.385C269.524 227.275 269.244 227.14 268.994 226.98C268.744 226.82 268.544 226.62 268.394 226.38C268.244 226.13 268.169 225.835 268.169 225.495C268.169 225.065 268.279 224.685 268.499 224.355C268.729 224.015 269.044 223.75 269.444 223.56C269.854 223.37 270.339 223.275 270.899 223.275C271.699 223.275 272.349 223.47 272.849 223.86C273.359 224.25 273.654 224.815 273.734 225.555H272.489C272.449 225.175 272.289 224.88 272.009 224.67C271.729 224.45 271.354 224.34 270.884 224.34C270.414 224.34 270.054 224.435 269.804 224.625C269.564 224.815 269.444 225.065 269.444 225.375C269.444 225.575 269.509 225.755 269.639 225.915C269.779 226.065 269.984 226.195 270.254 226.305C270.524 226.405 270.849 226.495 271.229 226.575C271.729 226.665 272.184 226.785 272.594 226.935C273.004 227.075 273.334 227.295 273.584 227.595C273.844 227.885 273.969 228.3 273.959 228.84C273.969 229.31 273.854 229.72 273.614 230.07C273.384 230.42 273.054 230.695 272.624 230.895C272.194 231.085 271.684 231.18 271.094 231.18ZM278.218 231.18C277.638 231.18 277.128 231.065 276.688 230.835C276.258 230.605 275.923 230.25 275.683 229.77C275.453 229.29 275.338 228.685 275.338 227.955V223.455H276.598V227.82C276.598 228.58 276.763 229.15 277.093 229.53C277.423 229.91 277.893 230.1 278.503 230.1C278.923 230.1 279.303 230 279.643 229.8C279.983 229.59 280.248 229.29 280.438 228.9C280.638 228.51 280.738 228.035 280.738 227.475V223.455H281.998V231H280.858L280.783 229.68C280.543 230.15 280.198 230.52 279.748 230.79C279.298 231.05 278.788 231.18 278.218 231.18ZM283.772 231V223.455H284.912L285.002 224.535C285.242 224.135 285.562 223.825 285.962 223.605C286.362 223.385 286.807 223.275 287.297 223.275C287.687 223.275 288.037 223.33 288.347 223.44C288.667 223.54 288.947 223.7 289.187 223.92C289.437 224.13 289.637 224.4 289.787 224.73C290.047 224.27 290.402 223.915 290.852 223.665C291.312 223.405 291.797 223.275 292.307 223.275C292.897 223.275 293.407 223.395 293.837 223.635C294.277 223.865 294.612 224.22 294.842 224.7C295.082 225.17 295.202 225.77 295.202 226.5V231H293.957V226.635C293.957 225.875 293.802 225.305 293.492 224.925C293.182 224.545 292.742 224.355 292.172 224.355C291.782 224.355 291.432 224.46 291.122 224.67C290.812 224.87 290.567 225.165 290.387 225.555C290.207 225.945 290.117 226.425 290.117 226.995V231H288.857V226.635C288.857 225.875 288.702 225.305 288.392 224.925C288.082 224.545 287.647 224.355 287.087 224.355C286.707 224.355 286.357 224.46 286.037 224.67C285.727 224.87 285.482 225.165 285.302 225.555C285.122 225.945 285.032 226.425 285.032 226.995V231H283.772Z" fill="#8C8686"/>
<path d="M139.421 231V220.5H140.681V229.995H145.571V231H139.421ZM149.994 231.18C149.294 231.18 148.664 231.02 148.104 230.7C147.544 230.37 147.099 229.91 146.769 229.32C146.449 228.72 146.289 228.025 146.289 227.235C146.289 226.425 146.454 225.725 146.784 225.135C147.114 224.545 147.559 224.09 148.119 223.77C148.689 223.44 149.324 223.275 150.024 223.275C150.734 223.275 151.369 223.44 151.929 223.77C152.489 224.09 152.929 224.545 153.249 225.135C153.569 225.725 153.729 226.425 153.729 227.235C153.729 228.035 153.564 228.73 153.234 229.32C152.914 229.91 152.469 230.37 151.899 230.7C151.339 231.02 150.704 231.18 149.994 231.18ZM149.994 230.1C150.434 230.1 150.839 229.995 151.209 229.785C151.579 229.565 151.874 229.245 152.094 228.825C152.324 228.395 152.439 227.865 152.439 227.235C152.439 226.585 152.329 226.05 152.109 225.63C151.889 225.21 151.594 224.895 151.224 224.685C150.854 224.465 150.454 224.355 150.024 224.355C149.604 224.355 149.204 224.465 148.824 224.685C148.454 224.895 148.154 225.215 147.924 225.645C147.694 226.065 147.579 226.595 147.579 227.235C147.579 227.865 147.694 228.395 147.924 228.825C148.154 229.245 148.449 229.565 148.809 229.785C149.179 229.995 149.574 230.1 149.994 230.1ZM155.196 231V223.455H156.336L156.441 224.895C156.611 224.555 156.826 224.265 157.086 224.025C157.356 223.785 157.676 223.6 158.046 223.47C158.426 223.34 158.851 223.275 159.321 223.275V224.595H158.871C158.551 224.595 158.246 224.64 157.956 224.73C157.666 224.81 157.406 224.945 157.176 225.135C156.956 225.325 156.781 225.585 156.651 225.915C156.521 226.235 156.456 226.635 156.456 227.115V231H155.196ZM163.484 231.18C162.784 231.18 162.159 231.015 161.609 230.685C161.059 230.355 160.624 229.895 160.304 229.305C159.994 228.715 159.839 228.025 159.839 227.235C159.839 226.435 159.994 225.74 160.304 225.15C160.614 224.56 161.044 224.1 161.594 223.77C162.154 223.44 162.794 223.275 163.514 223.275C164.254 223.275 164.884 223.44 165.404 223.77C165.924 224.1 166.319 224.535 166.589 225.075C166.869 225.605 167.009 226.185 167.009 226.815C167.009 226.915 167.009 227.025 167.009 227.145C167.009 227.255 167.004 227.38 166.994 227.52H160.784V226.545H165.764C165.734 225.845 165.504 225.305 165.074 224.925C164.654 224.535 164.124 224.34 163.484 224.34C163.064 224.34 162.669 224.44 162.299 224.64C161.929 224.83 161.629 225.11 161.399 225.48C161.179 225.85 161.069 226.32 161.069 226.89V227.31C161.069 227.93 161.184 228.45 161.414 228.87C161.644 229.28 161.939 229.59 162.299 229.8C162.669 230.01 163.064 230.115 163.484 230.115C164.014 230.115 164.449 230 164.789 229.77C165.139 229.53 165.394 229.205 165.554 228.795H166.799C166.669 229.255 166.454 229.665 166.154 230.025C165.854 230.375 165.479 230.655 165.029 230.865C164.589 231.075 164.074 231.18 163.484 231.18ZM168.38 231V223.455H169.52L169.61 224.535C169.85 224.135 170.17 223.825 170.57 223.605C170.97 223.385 171.415 223.275 171.905 223.275C172.295 223.275 172.645 223.33 172.955 223.44C173.275 223.54 173.555 223.7 173.795 223.92C174.045 224.13 174.245 224.4 174.395 224.73C174.655 224.27 175.01 223.915 175.46 223.665C175.92 223.405 176.405 223.275 176.915 223.275C177.505 223.275 178.015 223.395 178.445 223.635C178.885 223.865 179.22 224.22 179.45 224.7C179.69 225.17 179.81 225.77 179.81 226.5V231H178.565V226.635C178.565 225.875 178.41 225.305 178.1 224.925C177.79 224.545 177.35 224.355 176.78 224.355C176.39 224.355 176.04 224.46 175.73 224.67C175.42 224.87 175.175 225.165 174.995 225.555C174.815 225.945 174.725 226.425 174.725 226.995V231H173.465V226.635C173.465 225.875 173.31 225.305 173 224.925C172.69 224.545 172.255 224.355 171.695 224.355C171.315 224.355 170.965 224.46 170.645 224.67C170.335 224.87 170.09 225.165 169.91 225.555C169.73 225.945 169.64 226.425 169.64 226.995V231H168.38Z" fill="#8C8686"/>
<path d="M356.133 231V221.2H357.309V230.062H361.873V231H356.133ZM366.015 231.168C365.361 231.168 364.773 231.019 364.251 230.72C363.728 230.412 363.317 229.983 363.019 229.432C362.72 228.872 362.571 228.223 362.571 227.486C362.571 226.73 362.72 226.077 363.019 225.526C363.327 224.966 363.742 224.537 364.265 224.238C364.797 223.93 365.389 223.776 366.043 223.776C366.715 223.776 367.307 223.93 367.821 224.238C368.343 224.537 368.754 224.966 369.053 225.526C369.361 226.077 369.515 226.725 369.515 227.472C369.515 228.219 369.361 228.872 369.053 229.432C368.745 229.983 368.329 230.412 367.807 230.72C367.284 231.019 366.687 231.168 366.015 231.168ZM366.029 230.16C366.43 230.16 366.803 230.062 367.149 229.866C367.494 229.661 367.774 229.357 367.989 228.956C368.203 228.555 368.311 228.06 368.311 227.472C368.311 226.875 368.203 226.38 367.989 225.988C367.783 225.587 367.508 225.288 367.163 225.092C366.827 224.887 366.453 224.784 366.043 224.784C365.651 224.784 365.277 224.887 364.923 225.092C364.577 225.288 364.297 225.587 364.083 225.988C363.877 226.38 363.775 226.875 363.775 227.472C363.775 228.06 363.877 228.555 364.083 228.956C364.297 229.357 364.573 229.661 364.909 229.866C365.254 230.062 365.627 230.16 366.029 230.16ZM370.884 231V223.944H371.948L372.032 225.288C372.19 224.971 372.391 224.7 372.634 224.476C372.886 224.252 373.184 224.079 373.53 223.958C373.884 223.837 374.286 223.776 374.734 223.776V225.008H374.3C374.001 225.008 373.716 225.05 373.446 225.134C373.175 225.209 372.932 225.335 372.718 225.512C372.512 225.689 372.349 225.932 372.228 226.24C372.116 226.539 372.06 226.912 372.06 227.36V231H370.884ZM378.619 231.168C377.957 231.168 377.369 231.014 376.855 230.706C376.351 230.398 375.955 229.969 375.665 229.418C375.376 228.858 375.231 228.209 375.231 227.472C375.231 226.725 375.371 226.077 375.651 225.526C375.941 224.975 376.342 224.546 376.855 224.238C377.378 223.93 377.975 223.776 378.647 223.776C379.338 223.776 379.921 223.93 380.397 224.238C380.883 224.546 381.251 224.952 381.503 225.456C381.765 225.951 381.895 226.497 381.895 227.094C381.895 227.187 381.895 227.285 381.895 227.388C381.895 227.491 381.891 227.607 381.881 227.738H376.113V226.828H380.747C380.719 226.184 380.505 225.68 380.103 225.316C379.711 224.952 379.217 224.77 378.619 224.77C378.218 224.77 377.845 224.863 377.499 225.05C377.163 225.227 376.893 225.493 376.687 225.848C376.482 226.193 376.379 226.627 376.379 227.15V227.542C376.379 228.121 376.482 228.606 376.687 228.998C376.902 229.39 377.177 229.684 377.513 229.88C377.859 230.076 378.227 230.174 378.619 230.174C379.114 230.174 379.52 230.067 379.837 229.852C380.164 229.628 380.397 229.329 380.537 228.956H381.699C381.587 229.376 381.391 229.754 381.111 230.09C380.831 230.426 380.481 230.692 380.061 230.888C379.651 231.075 379.17 231.168 378.619 231.168ZM383.202 231V223.944H384.266L384.336 224.952C384.56 224.588 384.859 224.303 385.232 224.098C385.615 223.883 386.03 223.776 386.478 223.776C386.842 223.776 387.169 223.827 387.458 223.93C387.757 224.023 388.018 224.173 388.242 224.378C388.466 224.574 388.648 224.826 388.788 225.134C389.031 224.705 389.362 224.373 389.782 224.14C390.212 223.897 390.669 223.776 391.154 223.776C391.696 223.776 392.167 223.888 392.568 224.112C392.979 224.327 393.292 224.658 393.506 225.106C393.73 225.545 393.842 226.105 393.842 226.786V231H392.68V226.912C392.68 226.203 392.536 225.671 392.246 225.316C391.957 224.961 391.551 224.784 391.028 224.784C390.664 224.784 390.338 224.882 390.048 225.078C389.759 225.265 389.53 225.54 389.362 225.904C389.194 226.268 389.11 226.716 389.11 227.248V231H387.934V226.912C387.934 226.203 387.79 225.671 387.5 225.316C387.211 224.961 386.8 224.784 386.268 224.784C385.914 224.784 385.592 224.882 385.302 225.078C385.022 225.265 384.798 225.54 384.63 225.904C384.462 226.268 384.378 226.716 384.378 227.248V231H383.202ZM398.9 231V221.2H400.076V231H398.9ZM401.831 234.08V223.944H402.895L402.993 225.092C403.143 224.868 403.334 224.658 403.567 224.462C403.801 224.257 404.081 224.093 404.407 223.972C404.734 223.841 405.107 223.776 405.527 223.776C406.218 223.776 406.815 223.939 407.319 224.266C407.833 224.593 408.229 225.036 408.509 225.596C408.799 226.147 408.943 226.777 408.943 227.486C408.943 228.195 408.799 228.83 408.509 229.39C408.229 229.941 407.833 230.375 407.319 230.692C406.806 231.009 406.204 231.168 405.513 231.168C404.944 231.168 404.44 231.051 404.001 230.818C403.572 230.585 403.241 230.258 403.007 229.838V234.08H401.831ZM405.387 230.146C405.845 230.146 406.251 230.034 406.605 229.81C406.96 229.586 407.235 229.278 407.431 228.886C407.637 228.485 407.739 228.013 407.739 227.472C407.739 226.94 407.637 226.473 407.431 226.072C407.235 225.671 406.96 225.358 406.605 225.134C406.251 224.91 405.845 224.798 405.387 224.798C404.921 224.798 404.51 224.91 404.155 225.134C403.801 225.358 403.525 225.671 403.329 226.072C403.133 226.473 403.035 226.94 403.035 227.472C403.035 228.013 403.133 228.485 403.329 228.886C403.525 229.278 403.801 229.586 404.155 229.81C404.51 230.034 404.921 230.146 405.387 230.146ZM412.975 231.168C412.387 231.168 411.874 231.07 411.435 230.874C411.006 230.678 410.66 230.407 410.399 230.062C410.147 229.707 409.993 229.292 409.937 228.816H411.141C411.188 229.059 411.286 229.283 411.435 229.488C411.584 229.693 411.785 229.861 412.037 229.992C412.298 230.113 412.616 230.174 412.989 230.174C413.316 230.174 413.586 230.127 413.801 230.034C414.016 229.931 414.174 229.796 414.277 229.628C414.389 229.46 414.445 229.278 414.445 229.082C414.445 228.793 414.375 228.573 414.235 228.424C414.104 228.275 413.908 228.158 413.647 228.074C413.386 227.981 413.068 227.901 412.695 227.836C412.387 227.78 412.084 227.705 411.785 227.612C411.486 227.519 411.22 227.397 410.987 227.248C410.754 227.089 410.567 226.898 410.427 226.674C410.296 226.45 410.231 226.175 410.231 225.848C410.231 225.447 410.334 225.092 410.539 224.784C410.744 224.467 411.038 224.219 411.421 224.042C411.813 223.865 412.266 223.776 412.779 223.776C413.535 223.776 414.146 223.958 414.613 224.322C415.08 224.686 415.355 225.213 415.439 225.904H414.277C414.23 225.549 414.076 225.274 413.815 225.078C413.563 224.873 413.213 224.77 412.765 224.77C412.326 224.77 411.99 224.859 411.757 225.036C411.533 225.213 411.421 225.447 411.421 225.736C411.421 225.923 411.482 226.091 411.603 226.24C411.734 226.38 411.92 226.501 412.163 226.604C412.415 226.707 412.723 226.791 413.087 226.856C413.554 226.94 413.978 227.052 414.361 227.192C414.744 227.332 415.052 227.542 415.285 227.822C415.528 228.093 415.649 228.48 415.649 228.984C415.649 229.423 415.537 229.805 415.313 230.132C415.098 230.459 414.79 230.715 414.389 230.902C413.988 231.079 413.516 231.168 412.975 231.168ZM419.624 231.168C419.083 231.168 418.607 231.061 418.196 230.846C417.795 230.631 417.482 230.3 417.258 229.852C417.044 229.404 416.936 228.844 416.936 228.172V223.944H418.112V228.046C418.112 228.746 418.266 229.273 418.574 229.628C418.882 229.983 419.316 230.16 419.876 230.16C420.268 230.16 420.623 230.067 420.94 229.88C421.258 229.684 421.505 229.409 421.682 229.054C421.869 228.69 421.962 228.247 421.962 227.724V223.944H423.138V231H422.074L422.004 229.768C421.79 230.207 421.472 230.552 421.052 230.804C420.632 231.047 420.156 231.168 419.624 231.168ZM424.808 231V223.944H425.872L425.942 224.952C426.166 224.588 426.464 224.303 426.838 224.098C427.22 223.883 427.636 223.776 428.084 223.776C428.448 223.776 428.774 223.827 429.064 223.93C429.362 224.023 429.624 224.173 429.848 224.378C430.072 224.574 430.254 224.826 430.394 225.134C430.636 224.705 430.968 224.373 431.388 224.14C431.817 223.897 432.274 223.776 432.76 223.776C433.301 223.776 433.772 223.888 434.174 224.112C434.584 224.327 434.897 224.658 435.112 225.106C435.336 225.545 435.448 226.105 435.448 226.786V231H434.286V226.912C434.286 226.203 434.141 225.671 433.852 225.316C433.562 224.961 433.156 224.784 432.634 224.784C432.27 224.784 431.943 224.882 431.654 225.078C431.364 225.265 431.136 225.54 430.968 225.904C430.8 226.268 430.716 226.716 430.716 227.248V231H429.54V226.912C429.54 226.203 429.395 225.671 429.106 225.316C428.816 224.961 428.406 224.784 427.874 224.784C427.519 224.784 427.197 224.882 426.908 225.078C426.628 225.265 426.404 225.54 426.236 225.904C426.068 226.268 425.984 226.716 425.984 227.248V231H424.808ZM440.547 231V223.944H441.723V231H440.547ZM441.135 222.446C440.902 222.446 440.706 222.371 440.547 222.222C440.398 222.063 440.323 221.867 440.323 221.634C440.323 221.401 440.398 221.214 440.547 221.074C440.706 220.925 440.902 220.85 441.135 220.85C441.359 220.85 441.55 220.925 441.709 221.074C441.868 221.214 441.947 221.401 441.947 221.634C441.947 221.867 441.868 222.063 441.709 222.222C441.55 222.371 441.359 222.446 441.135 222.446ZM446.178 231.168C445.59 231.168 445.077 231.07 444.638 230.874C444.209 230.678 443.864 230.407 443.602 230.062C443.35 229.707 443.196 229.292 443.14 228.816H444.344C444.391 229.059 444.489 229.283 444.638 229.488C444.788 229.693 444.988 229.861 445.24 229.992C445.502 230.113 445.819 230.174 446.192 230.174C446.519 230.174 446.79 230.127 447.004 230.034C447.219 229.931 447.378 229.796 447.48 229.628C447.592 229.46 447.648 229.278 447.648 229.082C447.648 228.793 447.578 228.573 447.438 228.424C447.308 228.275 447.112 228.158 446.85 228.074C446.589 227.981 446.272 227.901 445.898 227.836C445.59 227.78 445.287 227.705 444.988 227.612C444.69 227.519 444.424 227.397 444.19 227.248C443.957 227.089 443.77 226.898 443.63 226.674C443.5 226.45 443.434 226.175 443.434 225.848C443.434 225.447 443.537 225.092 443.742 224.784C443.948 224.467 444.242 224.219 444.624 224.042C445.016 223.865 445.469 223.776 445.982 223.776C446.738 223.776 447.35 223.958 447.816 224.322C448.283 224.686 448.558 225.213 448.642 225.904H447.48C447.434 225.549 447.28 225.274 447.018 225.078C446.766 224.873 446.416 224.77 445.968 224.77C445.53 224.77 445.194 224.859 444.96 225.036C444.736 225.213 444.624 225.447 444.624 225.736C444.624 225.923 444.685 226.091 444.806 226.24C444.937 226.38 445.124 226.501 445.366 226.604C445.618 226.707 445.926 226.791 446.29 226.856C446.757 226.94 447.182 227.052 447.564 227.192C447.947 227.332 448.255 227.542 448.488 227.822C448.731 228.093 448.852 228.48 448.852 228.984C448.852 229.423 448.74 229.805 448.516 230.132C448.302 230.459 447.994 230.715 447.592 230.902C447.191 231.079 446.72 231.168 446.178 231.168ZM456.365 231.168C455.777 231.168 455.263 231.07 454.825 230.874C454.395 230.678 454.05 230.407 453.789 230.062C453.537 229.707 453.383 229.292 453.327 228.816H454.531C454.577 229.059 454.675 229.283 454.825 229.488C454.974 229.693 455.175 229.861 455.427 229.992C455.688 230.113 456.005 230.174 456.379 230.174C456.705 230.174 456.976 230.127 457.191 230.034C457.405 229.931 457.564 229.796 457.667 229.628C457.779 229.46 457.835 229.278 457.835 229.082C457.835 228.793 457.765 228.573 457.625 228.424C457.494 228.275 457.298 228.158 457.037 228.074C456.775 227.981 456.458 227.901 456.085 227.836C455.777 227.78 455.473 227.705 455.175 227.612C454.876 227.519 454.61 227.397 454.377 227.248C454.143 227.089 453.957 226.898 453.817 226.674C453.686 226.45 453.621 226.175 453.621 225.848C453.621 225.447 453.723 225.092 453.929 224.784C454.134 224.467 454.428 224.219 454.811 224.042C455.203 223.865 455.655 223.776 456.169 223.776C456.925 223.776 457.536 223.958 458.003 224.322C458.469 224.686 458.745 225.213 458.829 225.904H457.667C457.62 225.549 457.466 225.274 457.205 225.078C456.953 224.873 456.603 224.77 456.155 224.77C455.716 224.77 455.38 224.859 455.147 225.036C454.923 225.213 454.811 225.447 454.811 225.736C454.811 225.923 454.871 226.091 454.993 226.24C455.123 226.38 455.31 226.501 455.553 226.604C455.805 226.707 456.113 226.791 456.477 226.856C456.943 226.94 457.368 227.052 457.751 227.192C458.133 227.332 458.441 227.542 458.675 227.822C458.917 228.093 459.039 228.48 459.039 228.984C459.039 229.423 458.927 229.805 458.703 230.132C458.488 230.459 458.18 230.715 457.779 230.902C457.377 231.079 456.906 231.168 456.365 231.168ZM460.564 231V223.944H461.74V231H460.564ZM461.152 222.446C460.919 222.446 460.723 222.371 460.564 222.222C460.415 222.063 460.34 221.867 460.34 221.634C460.34 221.401 460.415 221.214 460.564 221.074C460.723 220.925 460.919 220.85 461.152 220.85C461.376 220.85 461.567 220.925 461.726 221.074C461.885 221.214 461.964 221.401 461.964 221.634C461.964 221.867 461.885 222.063 461.726 222.222C461.567 222.371 461.376 222.446 461.152 222.446ZM463.535 231V223.944H464.599L464.669 224.952C464.893 224.588 465.192 224.303 465.565 224.098C465.948 223.883 466.363 223.776 466.811 223.776C467.175 223.776 467.502 223.827 467.791 223.93C468.09 224.023 468.351 224.173 468.575 224.378C468.799 224.574 468.981 224.826 469.121 225.134C469.364 224.705 469.695 224.373 470.115 224.14C470.544 223.897 471.002 223.776 471.487 223.776C472.028 223.776 472.5 223.888 472.901 224.112C473.312 224.327 473.624 224.658 473.839 225.106C474.063 225.545 474.175 226.105 474.175 226.786V231H473.013V226.912C473.013 226.203 472.868 225.671 472.579 225.316C472.29 224.961 471.884 224.784 471.361 224.784C470.997 224.784 470.67 224.882 470.381 225.078C470.092 225.265 469.863 225.54 469.695 225.904C469.527 226.268 469.443 226.716 469.443 227.248V231H468.267V226.912C468.267 226.203 468.122 225.671 467.833 225.316C467.544 224.961 467.133 224.784 466.601 224.784C466.246 224.784 465.924 224.882 465.635 225.078C465.355 225.265 465.131 225.54 464.963 225.904C464.795 226.268 464.711 226.716 464.711 227.248V231H463.535ZM475.724 234.08V223.944H476.788L476.886 225.092C477.035 224.868 477.227 224.658 477.46 224.462C477.693 224.257 477.973 224.093 478.3 223.972C478.627 223.841 479 223.776 479.42 223.776C480.111 223.776 480.708 223.939 481.212 224.266C481.725 224.593 482.122 225.036 482.402 225.596C482.691 226.147 482.836 226.777 482.836 227.486C482.836 228.195 482.691 228.83 482.402 229.39C482.122 229.941 481.725 230.375 481.212 230.692C480.699 231.009 480.097 231.168 479.406 231.168C478.837 231.168 478.333 231.051 477.894 230.818C477.465 230.585 477.133 230.258 476.9 229.838V234.08H475.724ZM479.28 230.146C479.737 230.146 480.143 230.034 480.498 229.81C480.853 229.586 481.128 229.278 481.324 228.886C481.529 228.485 481.632 228.013 481.632 227.472C481.632 226.94 481.529 226.473 481.324 226.072C481.128 225.671 480.853 225.358 480.498 225.134C480.143 224.91 479.737 224.798 479.28 224.798C478.813 224.798 478.403 224.91 478.048 225.134C477.693 225.358 477.418 225.671 477.222 226.072C477.026 226.473 476.928 226.94 476.928 227.472C476.928 228.013 477.026 228.485 477.222 228.886C477.418 229.278 477.693 229.586 478.048 229.81C478.403 230.034 478.813 230.146 479.28 230.146ZM484.208 231V220.92H485.384V231H484.208ZM487.815 234.08L489.537 230.216H489.131L486.359 223.944H487.633L489.929 229.334L492.337 223.944H493.555L489.047 234.08H487.815ZM501.091 231.168C500.409 231.168 499.812 231.009 499.299 230.692C498.785 230.365 498.389 229.922 498.109 229.362C497.829 228.802 497.689 228.167 497.689 227.458C497.689 226.749 497.829 226.119 498.109 225.568C498.389 225.008 498.785 224.569 499.299 224.252C499.821 223.935 500.423 223.776 501.105 223.776C501.683 223.776 502.187 223.893 502.617 224.126C503.055 224.359 503.391 224.686 503.625 225.106V220.92H504.801V231H503.737L503.639 229.838C503.489 230.071 503.298 230.291 503.065 230.496C502.831 230.692 502.551 230.855 502.225 230.986C501.898 231.107 501.52 231.168 501.091 231.168ZM501.231 230.146C501.697 230.146 502.108 230.034 502.463 229.81C502.817 229.586 503.093 229.278 503.289 228.886C503.485 228.485 503.583 228.013 503.583 227.472C503.583 226.94 503.485 226.473 503.289 226.072C503.093 225.671 502.817 225.358 502.463 225.134C502.108 224.91 501.697 224.798 501.231 224.798C500.773 224.798 500.367 224.91 500.013 225.134C499.658 225.358 499.383 225.671 499.187 226.072C498.991 226.473 498.893 226.94 498.893 227.472C498.893 228.013 498.991 228.485 499.187 228.886C499.383 229.278 499.658 229.586 500.013 229.81C500.367 230.034 500.773 230.146 501.231 230.146ZM509.042 231.168C508.501 231.168 508.025 231.061 507.614 230.846C507.213 230.631 506.9 230.3 506.676 229.852C506.461 229.404 506.354 228.844 506.354 228.172V223.944H507.53V228.046C507.53 228.746 507.684 229.273 507.992 229.628C508.3 229.983 508.734 230.16 509.294 230.16C509.686 230.16 510.041 230.067 510.358 229.88C510.675 229.684 510.923 229.409 511.1 229.054C511.287 228.69 511.38 228.247 511.38 227.724V223.944H512.556V231H511.492L511.422 229.768C511.207 230.207 510.89 230.552 510.47 230.804C510.05 231.047 509.574 231.168 509.042 231.168ZM514.226 231V223.944H515.29L515.36 224.952C515.584 224.588 515.882 224.303 516.256 224.098C516.638 223.883 517.054 223.776 517.502 223.776C517.866 223.776 518.192 223.827 518.482 223.93C518.78 224.023 519.042 224.173 519.266 224.378C519.49 224.574 519.672 224.826 519.812 225.134C520.054 224.705 520.386 224.373 520.806 224.14C521.235 223.897 521.692 223.776 522.178 223.776C522.719 223.776 523.19 223.888 523.592 224.112C524.002 224.327 524.315 224.658 524.53 225.106C524.754 225.545 524.866 226.105 524.866 226.786V231H523.704V226.912C523.704 226.203 523.559 225.671 523.27 225.316C522.98 224.961 522.574 224.784 522.052 224.784C521.688 224.784 521.361 224.882 521.072 225.078C520.782 225.265 520.554 225.54 520.386 225.904C520.218 226.268 520.134 226.716 520.134 227.248V231H518.958V226.912C518.958 226.203 518.813 225.671 518.524 225.316C518.234 224.961 517.824 224.784 517.292 224.784C516.937 224.784 516.615 224.882 516.326 225.078C516.046 225.265 515.822 225.54 515.654 225.904C515.486 226.268 515.402 226.716 515.402 227.248V231H514.226ZM526.414 231V223.944H527.478L527.548 224.952C527.772 224.588 528.071 224.303 528.444 224.098C528.827 223.883 529.242 223.776 529.69 223.776C530.054 223.776 530.381 223.827 530.67 223.93C530.969 224.023 531.23 224.173 531.454 224.378C531.678 224.574 531.86 224.826 532 225.134C532.243 224.705 532.574 224.373 532.994 224.14C533.424 223.897 533.881 223.776 534.366 223.776C534.908 223.776 535.379 223.888 535.78 224.112C536.191 224.327 536.504 224.658 536.718 225.106C536.942 225.545 537.054 226.105 537.054 226.786V231H535.892V226.912C535.892 226.203 535.748 225.671 535.458 225.316C535.169 224.961 534.763 224.784 534.24 224.784C533.876 224.784 533.55 224.882 533.26 225.078C532.971 225.265 532.742 225.54 532.574 225.904C532.406 226.268 532.322 226.716 532.322 227.248V231H531.146V226.912C531.146 226.203 531.002 225.671 530.712 225.316C530.423 224.961 530.012 224.784 529.48 224.784C529.126 224.784 528.804 224.882 528.514 225.078C528.234 225.265 528.01 225.54 527.842 225.904C527.674 226.268 527.59 226.716 527.59 227.248V231H526.414ZM539.168 234.08L540.89 230.216H540.484L537.712 223.944H538.986L541.282 229.334L543.69 223.944H544.908L540.4 234.08H539.168Z" fill="#8C8686"/>
<path d="M147.57 768.079L94.6154 726.707L110.337 706.584C113.686 702.297 117.195 699.313 120.864 697.632C124.533 695.95 128.161 695.413 131.746 696.022C135.321 696.541 138.697 698.041 141.874 700.523C144.799 702.809 146.99 705.617 148.448 708.949C149.895 712.191 150.297 715.835 149.654 719.881C149.01 723.926 146.975 728.143 143.547 732.531L136.1 742.062L155.844 757.488L147.57 768.079ZM127.551 735.384L134.467 726.533C136.949 723.355 137.991 720.515 137.592 718.01C137.233 715.455 135.843 713.232 133.422 711.341C130.9 709.371 128.382 708.54 125.866 708.849C123.39 709.108 120.911 710.825 118.429 714.003L111.514 722.854L127.551 735.384ZM175.991 731.701L138.108 671.039L147.506 659.01L215.531 681.092L206.784 692.288L154.806 674.46L184.62 720.657L175.991 731.701ZM170.734 713.95L164.675 704.708L185.952 677.475L196.326 681.194L170.734 713.95ZM219.662 675.805L166.708 634.433L182.429 614.31C185.779 610.023 189.288 607.039 192.957 605.358C196.626 603.676 200.253 603.139 203.839 603.748C207.413 604.266 210.789 605.767 213.966 608.249C216.891 610.535 219.083 613.343 220.541 616.675C221.987 619.917 222.389 623.561 221.746 627.606C221.103 631.652 219.067 635.869 215.639 640.256L208.192 649.788L227.937 665.214L219.662 675.805ZM199.644 643.11L206.559 634.259C209.041 631.081 210.083 628.241 209.684 625.736C209.325 623.181 207.935 620.958 205.514 619.067C202.993 617.097 200.474 616.266 197.959 616.575C195.483 616.834 193.004 618.551 190.521 621.729L183.606 630.58L199.644 643.11ZM255.016 630.555L202.061 589.182L229.426 554.157L237.975 560.835L218.884 585.27L232.274 595.731L249.591 573.566L257.837 580.008L240.52 602.174L254.742 613.285L273.832 588.85L282.381 595.529L255.016 630.555ZM288.407 587.816L235.453 546.443L251.115 526.396C254.464 522.11 257.954 519.151 261.583 517.52C265.252 515.838 268.854 515.282 272.39 515.851C275.914 516.33 279.189 517.752 282.215 520.116C285.039 522.322 287.155 525.072 288.562 528.364C290.009 531.606 290.385 535.23 289.692 539.237C288.948 543.203 286.862 547.381 283.434 551.768L276.105 561.149L296.681 577.225L288.407 587.816ZM309.802 560.431L278.126 553.104L287.11 541.605L319.259 548.327L309.802 560.431ZM268.389 555.12L275.304 546.269C277.628 543.294 278.611 540.529 278.252 537.974C277.932 535.369 276.562 533.12 274.141 531.229C271.771 529.377 269.328 528.606 266.812 528.914C264.297 529.223 261.838 530.916 259.434 533.992L252.578 542.768L268.389 555.12ZM346.873 512.983L302.467 478.289L290.41 493.722L281.861 487.043L314.191 445.663L322.739 452.342L310.682 467.774L355.088 502.468L346.873 512.983ZM364.506 490.414L326.623 429.751L336.02 417.722L404.046 439.804L395.299 451L343.32 433.172L373.135 479.369L364.506 490.414ZM359.249 472.662L353.19 463.42L374.467 436.187L384.84 439.906L359.249 472.662ZM408.177 434.517L355.223 393.145L372.422 371.131C375.298 367.449 378.301 364.801 381.431 363.185C384.561 361.57 387.673 360.915 390.765 361.219C393.807 361.484 396.689 362.68 399.412 364.808C402.035 366.857 403.801 369.17 404.71 371.749C405.62 374.327 405.83 376.969 405.341 379.673C404.842 382.288 403.781 384.789 402.159 387.177L402.273 385.316C404.265 382.974 406.595 381.343 409.263 380.423C411.971 379.452 414.722 379.205 417.516 379.683C420.3 380.071 422.851 381.171 425.171 382.983C427.995 385.19 429.985 387.841 431.14 390.936C432.245 393.992 432.378 397.304 431.539 400.872C430.74 404.39 428.883 408.015 425.967 411.747L408.177 434.517ZM407.827 417.189L416.043 406.673C418.131 404 419.141 401.46 419.074 399.052C418.956 396.604 417.762 394.494 415.492 392.721C413.223 390.947 410.841 390.305 408.348 390.794C405.855 391.282 403.564 392.863 401.476 395.536L393.378 405.9L407.827 417.189ZM385.511 399.753L393.076 390.07C395.086 387.498 396.042 385.078 395.946 382.81C395.8 380.503 394.642 378.502 392.474 376.807C390.355 375.153 388.184 374.553 385.961 375.008C383.686 375.424 381.525 376.944 379.476 379.566L371.97 389.174L385.511 399.753ZM444.858 387.568L391.904 346.195L400.178 335.604L444.887 370.534L462.972 347.386L471.218 353.828L444.858 387.568ZM476.864 346.602L423.91 305.229L451.275 270.204L459.823 276.883L440.732 301.317L454.122 311.779L471.44 289.613L479.685 296.056L462.368 318.221L476.59 329.332L495.681 304.898L504.229 311.576L476.864 346.602ZM525.525 286.19C522.53 290.023 519.195 292.94 515.52 294.941C511.884 296.892 508.116 297.765 504.215 297.56C500.314 297.355 496.554 295.879 492.934 293.132L501.681 281.936C503.233 283.068 504.891 283.753 506.653 283.993C508.454 284.182 510.22 283.897 511.951 283.137C513.681 282.378 515.236 281.115 516.615 279.35C517.836 277.787 518.628 276.253 518.991 274.75C519.393 273.196 519.376 271.762 518.941 270.447C518.546 269.082 517.692 267.888 516.381 266.863C514.969 265.76 513.463 265.192 511.864 265.161C510.303 265.079 508.678 265.393 506.986 266.102C505.295 266.811 503.522 267.781 501.667 269.012C499.801 270.153 497.837 271.42 495.773 272.813C491.141 275.935 486.824 277.719 482.821 278.165C478.857 278.561 474.984 277.281 471.201 274.326C467.974 271.804 465.816 268.9 464.729 265.614C463.681 262.277 463.615 258.774 464.533 255.105C465.489 251.386 467.327 247.786 470.046 244.306C472.843 240.726 475.937 238.066 479.325 236.328C482.663 234.55 486.103 233.786 489.644 234.035C493.225 234.234 496.643 235.524 499.9 237.905L491.034 249.253C489.835 248.397 488.519 247.897 487.088 247.754C485.607 247.571 484.15 247.773 482.717 248.359C481.285 248.945 479.997 249.969 478.854 251.432C477.819 252.653 477.114 253.971 476.741 255.385C476.356 256.709 476.356 258.008 476.741 259.283C477.075 260.519 477.872 261.629 479.133 262.614C480.394 263.599 481.689 264.124 483.02 264.189C484.299 264.214 485.655 263.933 487.088 263.347C488.56 262.71 490.145 261.878 491.842 260.848C493.489 259.78 495.26 258.605 497.154 257.324C500.151 255.36 503.146 253.761 506.14 252.527C509.084 251.254 512.052 250.73 515.044 250.955C518.074 251.13 521.203 252.479 524.431 255C527.255 257.207 529.307 259.987 530.585 263.341C531.812 266.655 532.074 270.271 531.369 274.187C530.665 278.104 528.717 282.105 525.525 286.19Z" fill="#A3A3A3"/>
<g filter="url(#filter0_d_348_4903)">
<path d="M640 244.973L441.705 48.2575C441.705 48.2575 434.647 42.4953 429.5 39.2575C424.579 36.1613 422 34.7575 416 32V236.757C416 256.087 431.67 271.758 451 271.758H657.5C655 266.258 653.273 263.323 650 258.258C646.476 252.803 644.5 250.258 640 244.973Z" fill="#F4F4F4"/>
</g>
<defs>
<filter id="filter0_d_348_4903" x="344" y="0" width="345.5" height="343.758" filterUnits="userSpaceOnUse" color-interpolation-filters="sRGB">
<feFlood flood-opacity="0" result="BackgroundImageFix"/>
<feColorMatrix in="SourceAlpha" type="matrix" values="0 0 0 0 0 0 0 0 0 0 0 0 0 0 0 0 0 0 127 0" result="hardAlpha"/>
<feOffset dx="-20" dy="20"/>
<feGaussianBlur stdDeviation="26"/>
<feComposite in2="hardAlpha" operator="out"/>
<feColorMatrix type="matrix" values="0 0 0 0 0 0 0 0 0 0 0 0 0 0 0 0 0 0 0.35 0"/>
<feBlend mode="normal" in2="BackgroundImageFix" result="effect1_dropShadow_348_4903"/>
<feBlend mode="normal" in="SourceGraphic" in2="effect1_dropShadow_348_4903" result="shape"/>
</filter>
<clipPath id="clip0_348_4903">
<rect x="100" y="177" width="235" height="34" fill="white"/>
</clipPath>
</defs>
</svg>
